ply
format ascii 1.0
comment VCGLIB generated
element vertex 772
property float x
property float y
property float z
element face 1536
property list uchar int vertex_indices
end_header
-0.1140859 0.252674 0.3982292 
-0.1140959 0.2514428 0.3973864 
-0.1152292 0.2525337 0.3974622 
-0.116098 0.2528616 0.3975457 
-0.1137305 0.2499022 0.3971654 
-0.1147849 0.2504982 0.3967687 
-0.1155017 0.2513769 0.3969063 
-0.1163092 0.2521521 0.397234 
-0.1149377 0.2494193 0.3966925 
-0.1158974 0.2501315 0.3967367 
-0.1166927 0.2510839 0.3970262 
-0.1131584 0.2526708 0.3994198 
-0.1131228 0.2518416 0.3983514 
-0.1144648 0.2536688 0.3992727 
-0.114992 0.2533476 0.3981934 
-0.1156643 0.2532199 0.397815 
-0.1147204 0.2542605 0.4003819 
-0.1150733 0.254562 0.4008604 
-0.1128137 0.250763 0.3979933 
-0.1163424 0.2532345 0.3981581 
-0.1126331 0.2496584 0.3979239 
-0.1120346 0.2501173 0.3986397 
-0.1151344 0.2538009 0.3986808 
-0.1156499 0.2536291 0.3983502 
-0.1132989 0.2484597 0.3977782 
-0.1167555 0.252666 0.3978112 
-0.1142682 0.2488751 0.3969314 
-0.1149994 0.2486557 0.3967793 
-0.117248 0.2518489 0.3977143 
-0.1161984 0.2484372 0.3970774 
-0.1171565 0.2498087 0.3972267 
-0.1175794 0.2508244 0.3975177 
-0.114754 0.2480012 0.3972774 
-0.1167432 0.2473592 0.3973199 
-0.1122017 0.2523337 0.4009452 
-0.1136824 0.2537447 0.400877 
-0.1146765 0.254485 0.4011752 
-0.1121243 0.2512499 0.3993398 
-0.1156022 0.2547322 0.4014934 
-0.1113941 0.2497791 0.3997209 
-0.1153272 0.2541741 0.399835 
-0.1154345 0.254451 0.4005775 
-0.1120015 0.2488854 0.398784 
-0.1152127 0.2540049 0.3991435 
-0.1155809 0.2539234 0.3988416 
-0.1162396 0.2537074 0.3989955 
-0.1157734 0.254066 0.3994111 
-0.1165476 0.2541396 0.4005688 
-0.1175423 0.2543955 0.4019406 
-0.1123471 0.247116 0.3991698 
-0.1173842 0.2527653 0.399159 
-0.1113349 0.246602 0.4002203 
-0.1140865 0.2468535 0.3983593 
-0.1181058 0.2511509 0.3985295 
-0.1159412 0.2469802 0.3979045 
-0.1179627 0.2483001 0.3981618 
-0.1180578 0.2499876 0.3979832 
-0.1187896 0.2497652 0.399272 
-0.1170175 0.2469787 0.39776 
-0.1171696 0.2476319 0.3973778 
-0.1171578 0.2472072 0.3973938 
-0.117444 0.2472514 0.3978179 
-0.1187156 0.2479785 0.3987987 
-0.1111757 0.2516347 0.4026215 
-0.1126218 0.253499 0.4028158 
-0.1145354 0.2547022 0.4025006 
-0.1136958 0.2548325 0.4042024 
-0.1156531 0.255688 0.4044104 
-0.1173183 0.2563075 0.40522 
-0.1112068 0.2507465 0.4009298 
-0.1160331 0.2552515 0.402857 
-0.1107649 0.2493343 0.4009298 
-0.1169065 0.2549328 0.4022584 
-0.1097807 0.2483807 0.4034067 
-0.1104255 0.2498037 0.4023294 
-0.1172881 0.2556821 0.4038549 
-0.1180497 0.2562186 0.40478 
-0.1111381 0.2480715 0.4001706 
-0.1179988 0.2548474 0.4031264 
-0.1106624 0.2466402 0.4011452 
-0.1183355 0.2533574 0.4020095 
-0.1098966 0.2462816 0.4027825 
-0.110333 0.2480949 0.401749 
-0.1110909 0.2458849 0.4007367 
-0.1187032 0.2514377 0.4003631 
-0.1119467 0.2454326 0.4002907 
-0.119358 0.2499595 0.4010634 
-0.1133209 0.24571 0.3994124 
-0.1192812 0.2491132 0.4001527 
-0.1151818 0.2451965 0.3995358 
-0.1175193 0.2465657 0.3991919 
-0.1119745 0.2438045 0.4012669 
-0.1133372 0.2443014 0.4003341 
-0.1184996 0.2475834 0.398913 
-0.1189746 0.2483805 0.3994092 
-0.1188858 0.2478198 0.3991399 
-0.1158097 0.2437848 0.4007477 
-0.1168481 0.2446666 0.4005854 
-0.1188025 0.2475065 0.3998167 
-0.1129353 0.2547945 0.4054411 
-0.1143077 0.2556691 0.4058461 
-0.1162131 0.2565106 0.4066987 
-0.1111011 0.2536783 0.4075112 
-0.1128521 0.2551374 0.4071112 
-0.1146235 0.2563016 0.407503 
-0.115608 0.2567681 0.4079089 
-0.1123795 0.2540075 0.4044856 
-0.1179813 0.2564793 0.4064141 
-0.1093035 0.2484712 0.4049056 
-0.1100108 0.2504197 0.4045507 
-0.111285 0.2526607 0.4043813 
-0.1181781 0.2564407 0.4053532 
-0.1103568 0.2522229 0.4062276 
-0.1117372 0.2538234 0.4058118 
-0.1181034 0.256695 0.4074359 
-0.109304 0.24717 0.4043125 
-0.11842 0.2562817 0.4050238 
-0.1091785 0.2456334 0.4045732 
-0.1183982 0.2557205 0.4046206 
-0.1184844 0.2562192 0.4054582 
-0.1097586 0.244564 0.4033828 
-0.118829 0.2544814 0.404315 
-0.1101018 0.2449463 0.4025089 
-0.1193515 0.2529263 0.4043494 
-0.1107864 0.2450228 0.4016016 
-0.1193546 0.2514296 0.4026518 
-0.1109899 0.2435232 0.4021754 
-0.1197164 0.249623 0.4031301 
-0.1103098 0.24411 0.4025528 
-0.1119367 0.242278 0.402431 
-0.1193653 0.2483915 0.4011779 
-0.1132611 0.2428152 0.4014157 
-0.1146116 0.2434025 0.4008025 
-0.1188153 0.246576 0.4015791 
-0.1155764 0.2428312 0.401534 
-0.1179304 0.2453419 0.4010544 
-0.1167392 0.2433235 0.4018402 
-0.1176293 0.2442932 0.4017522 
-0.113379 0.2416469 0.4024195 
-0.1145723 0.2421424 0.4019667 
-0.1102429 0.2531926 0.4093571 
-0.1119164 0.254846 0.4090872 
-0.1137446 0.2561212 0.4089713 
-0.1151223 0.256755 0.4087792 
-0.1100161 0.2524843 0.4077918 
-0.1164593 0.2568828 0.4088053 
-0.1095276 0.2514992 0.4073792 
-0.1174962 0.2568185 0.4077195 
-0.1087796 0.2507694 0.4093091 
-0.10933 0.2516846 0.4087036 
-0.1094845 0.250746 0.4064462 
-0.1181162 0.2567172 0.4080392 
-0.1090744 0.2492413 0.4063208 
-0.1185428 0.2562078 0.4075079 
-0.1089317 0.2502939 0.4079046 
-0.1087931 0.2471479 0.4060694 
-0.118787 0.2555437 0.4059681 
-0.1085791 0.244927 0.4064032 
-0.1092487 0.2439011 0.4047844 
-0.1193389 0.2541023 0.4059033 
-0.1196822 0.2528496 0.4060519 
-0.10878 0.243379 0.4060119 
-0.1195786 0.2536454 0.4071018 
-0.1103339 0.2428249 0.4035174 
-0.1198193 0.2512074 0.4051991 
-0.1199746 0.2490828 0.4053351 
-0.1093896 0.2424119 0.4052333 
-0.1113401 0.2413177 0.4036158 
-0.119621 0.2477714 0.4034898 
-0.1192796 0.2458597 0.4041675 
-0.1103635 0.2411768 0.4047408 
-0.1127155 0.2407984 0.4034285 
-0.1184522 0.2449453 0.4025605 
-0.1145736 0.240841 0.4034661 
-0.1160781 0.242052 0.4028488 
-0.1170838 0.2427244 0.4029382 
-0.1178495 0.2435599 0.4030856 
-0.1117054 0.2400835 0.4045669 
-0.1187064 0.2443892 0.4040112 
-0.1085323 0.250323 0.4102128 
-0.1090571 0.2517732 0.4106812 
-0.1098861 0.2531123 0.4108942 
-0.1110429 0.2544558 0.4111775 
-0.1129609 0.2559753 0.4107668 
-0.1152306 0.2569492 0.4109215 
-0.1088583 0.2519768 0.4118509 
-0.1123317 0.2559405 0.4125811 
-0.113843 0.2568702 0.4122404 
-0.1148043 0.2573215 0.4123944 
-0.108508 0.2497407 0.4091517 
-0.1176211 0.2565905 0.4108081 
-0.1177868 0.2567359 0.4089023 
-0.1177402 0.256889 0.412391 
-0.1084611 0.2483773 0.4081959 
-0.118374 0.2564477 0.4085035 
-0.1187639 0.2558446 0.4084681 
-0.1186201 0.2556902 0.4102562 
-0.1184106 0.2561549 0.4093965 
-0.1082228 0.2463306 0.4079808 
-0.1191567 0.2549519 0.4075225 
-0.1083516 0.2434843 0.4073965 
-0.1080584 0.2448407 0.4083012 
-0.1194892 0.2539115 0.4082517 
-0.1079035 0.2458013 0.4091826 
-0.1190557 0.2550333 0.4091766 
-0.1087812 0.2424237 0.406559 
-0.1198085 0.2523613 0.4075844 
-0.1093842 0.241192 0.4063029 
-0.1200568 0.2502799 0.407244 
-0.1201196 0.2485043 0.4072431 
-0.110523 0.2397984 0.4058695 
-0.1198753 0.2473073 0.4056743 
-0.1191402 0.2444245 0.4057738 
-0.1196822 0.245924 0.4062024 
-0.1120255 0.2387074 0.4056841 
-0.1183997 0.2434344 0.4046019 
-0.1136054 0.2393914 0.4048232 
-0.1153262 0.239807 0.4049775 
-0.1163235 0.2409381 0.4045618 
-0.1174619 0.2423211 0.4042524 
-0.1086422 0.2517165 0.4120308 
-0.1121532 0.2560743 0.4144171 
-0.1134447 0.2568946 0.4138179 
-0.1145074 0.2573597 0.4132921 
-0.1121428 0.2561762 0.4158339 
-0.1086418 0.25147 0.4117043 
-0.1088129 0.2518854 0.4123601 
-0.1109983 0.2547764 0.4134312 
-0.1156605 0.2575203 0.4132839 
-0.1084829 0.2503456 0.4117662 
-0.1095822 0.25285 0.4125328 
-0.1168935 0.2572228 0.412534 
-0.1085964 0.2513785 0.4122135 
-0.1082695 0.2489502 0.4102122 
-0.117823 0.2569794 0.4135574 
-0.11874 0.2554579 0.4113207 
-0.1183638 0.2562203 0.4125465 
-0.1080065 0.247004 0.4098494 
-0.1190875 0.2548363 0.4103448 
-0.1078058 0.2458982 0.4100219 
-0.107807 0.2458277 0.4112466 
-0.1192943 0.2542791 0.4110883 
-0.1191879 0.2546904 0.4126426 
-0.1078037 0.2450128 0.4098096 
-0.1195352 0.2534949 0.4096325 
-0.1079706 0.2436347 0.4091783 
-0.1077484 0.2441741 0.410963 
-0.1197131 0.2527443 0.4113083 
-0.1084753 0.2419192 0.4081931 
-0.1199704 0.251242 0.4093719 
-0.1200074 0.2510179 0.4108831 
-0.1093218 0.2398209 0.4077508 
-0.1201531 0.2494962 0.4086099 
-0.1201589 0.2481755 0.4089172 
-0.1087652 0.2391771 0.4092514 
-0.1107726 0.2383238 0.4068666 
-0.1200005 0.2469458 0.4075884 
-0.1191837 0.2436099 0.4076665 
-0.1196832 0.2453044 0.4077687 
-0.1096764 0.2380159 0.4083714 
-0.1121701 0.2374443 0.4065933 
-0.1184684 0.2428006 0.4059993 
-0.1135779 0.2377975 0.406181 
-0.1153488 0.238545 0.40631 
-0.116625 0.2399109 0.4062015 
-0.1176108 0.2413432 0.4060525 
-0.1112509 0.2365315 0.4076634 
-0.1123492 0.2350456 0.407847 
-0.1132902 0.2362371 0.4072731 
-0.1149201 0.2370348 0.4071999 
-0.1118707 0.2557014 0.4169362 
-0.1112598 0.2551804 0.415365 
-0.1126569 0.256543 0.4167883 
-0.1132819 0.2569048 0.4157169 
-0.1148423 0.2574781 0.4148954 
-0.1134629 0.2569807 0.4172086 
-0.1102263 0.2537339 0.4148005 
-0.116171 0.2577045 0.4148364 
-0.1084943 0.2495158 0.4137696 
-0.1088202 0.2513042 0.4132024 
-0.1094052 0.2522367 0.414639 
-0.1169663 0.2575188 0.4141669 
-0.1099314 0.2528825 0.4160458 
-0.1169593 0.2576005 0.4154538 
-0.1081117 0.2479153 0.4121267 
-0.1177854 0.257123 0.4151324 
-0.1079582 0.2460948 0.4134086 
-0.107752 0.2447756 0.4124784 
-0.1186699 0.2560432 0.4143457 
-0.1077557 0.2433602 0.4125148 
-0.1193602 0.2547067 0.4142614 
-0.1198244 0.2530362 0.4151282 
-0.1079168 0.2425168 0.4105327 
-0.1197529 0.2529268 0.4134361 
-0.1199426 0.2515534 0.4143248 
-0.1082725 0.240611 0.4099841 
-0.119947 0.2515217 0.4119844 
-0.1082834 0.2393641 0.4104477 
-0.120073 0.2502157 0.4115356 
-0.1079926 0.2400541 0.4115256 
-0.1200452 0.2498358 0.4138261 
-0.1200098 0.2507434 0.4128035 
-0.1087407 0.2381087 0.4100123 
-0.1201345 0.2494953 0.4101956 
-0.1201498 0.2481639 0.4101582 
-0.1200918 0.2484292 0.4118702 
-0.1096342 0.2362481 0.4092681 
-0.1200088 0.2467171 0.4096492 
-0.1191635 0.2428988 0.4090344 
-0.1196314 0.2444573 0.4096495 
-0.1089006 0.2352366 0.4104279 
-0.1199185 0.245806 0.4115453 
-0.111038 0.2346585 0.4083841 
-0.118569 0.2420594 0.4077049 
-0.1169582 0.2388823 0.4078926 
-0.1178191 0.240528 0.407785 
-0.1097634 0.2341514 0.409301 
-0.1124089 0.2334449 0.4084252 
-0.1160768 0.2376883 0.4075986 
-0.1136929 0.2345266 0.4082693 
-0.114874 0.2357097 0.4081736 
-0.1159829 0.2367019 0.4083919 
-0.1109205 0.2325831 0.4087069 
-0.1167704 0.2376558 0.4086638 
-0.1111266 0.2307221 0.4088317 
-0.1124257 0.2314538 0.4089139 
-0.1146289 0.222559 0.4052495 
-0.1120123 0.2551862 0.4184581 
-0.1129777 0.2564104 0.4181148 
-0.1108559 0.2541739 0.4169002 
-0.1140016 0.257066 0.4181027 
-0.1102443 0.2523471 0.4176906 
-0.1146809 0.2573429 0.4170262 
-0.1160867 0.2575861 0.4162118 
-0.114891 0.2571759 0.4184873 
-0.1094958 0.2517366 0.4161507 
-0.1172732 0.257239 0.4166073 
-0.1087476 0.2490728 0.4157491 
-0.108978 0.2507228 0.4151283 
-0.1094461 0.2503822 0.4171523 
-0.1083019 0.2476855 0.4145406 
-0.1183316 0.2564286 0.4162813 
-0.1083394 0.2459506 0.4157317 
-0.119679 0.2534267 0.4164665 
-0.1086255 0.2476074 0.4162568 
-0.10791 0.2444759 0.4141534 
-0.1198415 0.2519785 0.4158068 
-0.1197329 0.2538589 0.4157552 
-0.119144 0.255324 0.4156766 
-0.107907 0.2427842 0.4144283 
-0.1196298 0.25414 0.4151035 
-0.1196555 0.2523645 0.4169905 
-0.1194723 0.2545183 0.4163417 
-0.1078606 0.2414883 0.4124258 
-0.1199406 0.2506627 0.4151704 
-0.1079196 0.2399285 0.4131813 
-0.1199921 0.249281 0.4151715 
-0.108145 0.2388177 0.4116556 
-0.120076 0.2483499 0.4138624 
-0.1084503 0.23695 0.4114695 
-0.1200218 0.2467417 0.4134028 
-0.1081683 0.2349629 0.4121425 
-0.1197739 0.2445739 0.4132974 
-0.1087718 0.2336646 0.4104474 
-0.1196488 0.2440471 0.4113958 
-0.1193522 0.2430464 0.4103802 
-0.1080738 0.2331919 0.4116333 
-0.1192666 0.2424368 0.4120528 
-0.1095555 0.2323869 0.409393 
-0.1187301 0.241519 0.4096912 
-0.1179805 0.2398511 0.4093181 
-0.1084842 0.2317854 0.4104782 
-0.1184792 0.24005 0.411557 
-0.1102284 0.2313117 0.4088998 
-0.1175409 0.2384887 0.4097963 
-0.1102683 0.2301843 0.4090219 
-0.1139127 0.2325588 0.4094142 
-0.1150497 0.2344099 0.4093688 
-0.1158893 0.2356676 0.4093112 
-0.1168492 0.236792 0.410018 
-0.1084542 0.229745 0.4103329 
-0.1094207 0.2307142 0.4094619 
-0.1177278 0.2379092 0.4116167 
-0.110892 0.229427 0.409191 
-0.1133583 0.2312058 0.4093659 
-0.1120766 0.2295482 0.4093956 
-0.1130275 0.2303602 0.4094723 
-0.1086631 0.2276514 0.4105454 
-0.1098197 0.2288672 0.4096929 
-0.1146286 0.2225593 0.4052505 
-0.1146285 0.2225582 0.4052501 
-0.1146297 0.2225593 0.4052503 
-0.1146296 0.2225581 0.4052499 
-0.1146292 0.2225585 0.4052509 
-0.1124738 0.2546779 0.4198824 
-0.1132479 0.2558519 0.4195521 
-0.1141501 0.2567229 0.4191366 
-0.1113181 0.2537583 0.4188299 
-0.1153832 0.2568042 0.4194422 
-0.1104631 0.2508132 0.4190853 
-0.1110342 0.2524487 0.419326 
-0.1161563 0.2571791 0.4180149 
-0.1097482 0.249395 0.4185043 
-0.117609 0.2565444 0.4179584 
-0.1103567 0.2493133 0.4195176 
-0.1091457 0.2485334 0.4174311 
-0.1187396 0.2554382 0.4174656 
-0.1088942 0.2450763 0.4176899 
-0.1090074 0.2468508 0.4175903 
-0.1192918 0.2543346 0.4174226 
-0.1186594 0.2544151 0.4187784 
-0.1082763 0.2439603 0.4161266 
-0.1193441 0.2533669 0.4178061 
-0.108256 0.2422967 0.4163658 
-0.1193627 0.252189 0.4179494 
-0.1188161 0.2529746 0.4189872 
-0.1079651 0.2411587 0.4147562 
-0.1196656 0.250565 0.416927 
-0.1080906 0.2395905 0.4152271 
-0.119915 0.2487269 0.4162573 
-0.1080462 0.2383447 0.4134609 
-0.1200093 0.2474974 0.4152093 
-0.1198907 0.2476084 0.4166195 
-0.1080282 0.2366593 0.4137188 
-0.1199413 0.2458568 0.414731 
-0.1075533 0.2334064 0.4136167 
-0.1078093 0.23523 0.4141566 
-0.1194047 0.242611 0.4147431 
-0.1197728 0.2445624 0.4152002 
-0.1076717 0.2318531 0.4119454 
-0.1190422 0.2412557 0.4132671 
-0.1187506 0.2401718 0.4134949 
-0.1072 0.2316429 0.4132638 
-0.1190215 0.2409459 0.414498 
-0.1078462 0.2306904 0.411071 
-0.1182812 0.2388169 0.4133523 
-0.1077315 0.2298133 0.4110493 
-0.1176146 0.2369373 0.4134845 
-0.1072399 0.2300711 0.4121955 
-0.1076954 0.2286464 0.4111649 
-0.1171671 0.2364158 0.4117387 
-0.1076465 0.2266722 0.4114444 
-0.1148245 0.2318044 0.4111446 
-0.1152387 0.2332928 0.4106464 
-0.1162688 0.2349182 0.4111126 
-0.1067965 0.2257687 0.4126074 
-0.1069533 0.2279087 0.4123598 
-0.1169901 0.235572 0.4127289 
-0.1087068 0.2256577 0.4110994 
-0.1138993 0.2306252 0.4102877 
-0.1100896 0.2265669 0.4106306 
-0.1112383 0.2280459 0.4099765 
-0.1125217 0.227996 0.4104158 
-0.1132003 0.2292265 0.4102086 
-0.1096922 0.2249354 0.4112763 
-0.1129816 0.2272461 0.4112096 
-0.1133976 0.228093 0.4110098 
-0.1130806 0.2541578 0.4207761 
-0.1137391 0.255218 0.4206089 
-0.1145442 0.2561781 0.4201884 
-0.1120376 0.253335 0.4201839 
-0.11569 0.2561927 0.420291 
-0.1117233 0.2517765 0.420344 
-0.1166217 0.2564391 0.4194075 
-0.1132592 0.2527848 0.4211052 
-0.1142914 0.2543014 0.4211888 
-0.1150886 0.2554245 0.4208706 
-0.1114823 0.2499254 0.4204665 
-0.1177711 0.2556187 0.4191661 
-0.1107834 0.248494 0.4201002 
-0.1176997 0.2546816 0.4199768 
-0.1127058 0.2511069 0.4211226 
-0.1143264 0.2512395 0.4215488 
-0.1151253 0.2530833 0.4213587 
-0.1156157 0.2544906 0.4211459 
-0.1165571 0.2553578 0.4204431 
-0.1098452 0.2479486 0.4189863 
-0.1180971 0.2537153 0.4198698 
-0.10965 0.2444572 0.4191681 
-0.1097392 0.246087 0.4190449 
-0.1179105 0.2523114 0.42013 
-0.1131359 0.2496247 0.4214108 
-0.1163752 0.2514734 0.4212266 
-0.1168447 0.2536903 0.420776 
-0.1089115 0.2432569 0.4180445 
-0.118884 0.2513615 0.4188915 
-0.1087084 0.2418264 0.417785 
-0.108345 0.2408254 0.416705 
-0.1190851 0.2496044 0.4187032 
-0.1086632 0.2392495 0.4175253 
-0.1089445 0.2407993 0.4182384 
-0.1185981 0.2487432 0.4196879 
-0.1081344 0.2379108 0.4155632 
-0.119663 0.2486299 0.4174745 
-0.1196521 0.2472442 0.4176207 
-0.1192134 0.2479482 0.4187068 
-0.1079493 0.2362509 0.4156754 
-0.1197784 0.2459173 0.4165818 
-0.1069933 0.2319611 0.4150611 
-0.1073115 0.2333219 0.4153591 
-0.107619 0.2345698 0.4157929 
-0.1189612 0.2408858 0.4161315 
-0.1192592 0.2423155 0.4168022 
-0.1195632 0.2438434 0.4166188 
-0.1079957 0.2356752 0.4171528 
-0.1068338 0.2306224 0.4138584 
-0.1186558 0.2397088 0.4148535 
-0.1184666 0.2392679 0.4164436 
-0.1065835 0.2290677 0.4137419 
-0.1181039 0.2380656 0.4152336 
-0.1062475 0.2254435 0.4140463 
-0.1063431 0.2271728 0.413837 
-0.1169831 0.2351803 0.414518 
-0.1175818 0.2366011 0.4154173 
-0.1178349 0.237286 0.4160928 
-0.106623 0.2243005 0.4132778 
-0.1165539 0.2344526 0.4130105 
-0.1069438 0.2244719 0.412487 
-0.1151526 0.2312126 0.4126243 
-0.1158037 0.2329211 0.4126606 
-0.1163841 0.2337421 0.4142174 
-0.1076672 0.2246293 0.4119591 
-0.1145895 0.2304358 0.4117554 
-0.1120505 0.226298 0.4115801 
-0.107214 0.2234601 0.4128451 
-0.1089536 0.2240055 0.4118831 
-0.1107015 0.2251116 0.4114892 
-0.1132007 0.2268607 0.4120043 
-0.1140368 0.2291303 0.4115182 
-0.1102433 0.2239304 0.4121644 
-0.1135009 0.2274335 0.4116144 
-0.1138433 0.2280004 0.4117807 
-0.1076507 0.2221441 0.413501 
-0.1081887 0.2229725 0.4126652 
-0.1137923 0.2273922 0.4125347 
-0.1141938 0.2283296 0.4126329 
-0.1119078 0.2482528 0.4208836 
-0.1153852 0.2503998 0.4217111 
-0.1108269 0.2470531 0.4201419 
-0.1132518 0.2480539 0.4214352 
-0.1144812 0.249863 0.421761 
-0.116233 0.2501108 0.4215561 
-0.1104367 0.2438948 0.4200839 
-0.1107719 0.2452378 0.4201812 
-0.1142012 0.2487893 0.4216981 
-0.1168999 0.2502676 0.4212067 
-0.1124462 0.2463627 0.4210484 
-0.1154458 0.2491183 0.421699 
-0.1097072 0.243287 0.4194238 
-0.1178919 0.2502145 0.4202968 
-0.1178334 0.24854 0.4205092 
-0.1104484 0.2429045 0.4201454 
-0.1120322 0.2436559 0.4209833 
-0.1139158 0.2451068 0.4214027 
-0.1147981 0.2472119 0.4215069 
-0.1160489 0.2481806 0.4214782 
-0.1168256 0.2491165 0.421225 
-0.1095579 0.2419831 0.4191989 
-0.1184101 0.2473173 0.4198788 
-0.1093276 0.2382463 0.4192624 
-0.1098858 0.2401024 0.4195947 
-0.1109191 0.2417554 0.4205048 
-0.1142876 0.2435078 0.4215605 
-0.1160471 0.2448347 0.4213258 
-0.1169333 0.2472227 0.4209928 
-0.1084484 0.2371531 0.4176799 
-0.1191807 0.2460923 0.4186553 
-0.1084484 0.2355641 0.4188982 
-0.1090436 0.2369303 0.4193812 
-0.1157584 0.2430069 0.4216123 
-0.1179942 0.2453276 0.4202907 
-0.1077848 0.2345924 0.4176086 
-0.1194348 0.2446248 0.4179272 
-0.1066871 0.231111 0.4171383 
-0.1072856 0.2330917 0.4170445 
-0.1187652 0.2412076 0.4180517 
-0.1191222 0.2430152 0.4183138 
-0.1189107 0.2442762 0.419263 
-0.1064869 0.2300865 0.4153636 
-0.1186291 0.2400739 0.4174185 
-0.117853 0.2378038 0.4170624 
-0.1181671 0.239045 0.4178971 
-0.1183587 0.2399727 0.4184124 
-0.1061375 0.2283008 0.4153536 
-0.1175284 0.2366915 0.4166687 
-0.1061262 0.224908 0.415329 
-0.1059719 0.2264628 0.4155855 
-0.1162574 0.2335568 0.4163072 
-0.1170207 0.2354838 0.4165565 
-0.1058621 0.2276582 0.416673 
-0.1063763 0.2241578 0.4144292 
-0.1159939 0.2326982 0.4146503 
-0.1154944 0.2314461 0.4142137 
-0.1157134 0.2319424 0.4158319 
-0.106964 0.2228572 0.4142461 
-0.1147542 0.229637 0.4135612 
-0.1076002 0.2214629 0.4145139 
-0.1125674 0.224932 0.4135001 
-0.1133967 0.2263834 0.4135179 
-0.1142236 0.2278089 0.4140185 
-0.1080146 0.2212652 0.4140299 
-0.1114833 0.2244368 0.4125534 
-0.1085633 0.2217593 0.4136301 
-0.109634 0.2226782 0.4131834 
-0.1110945 0.2232718 0.4134501 
-0.1120398 0.223866 0.4137472 
-0.1132977 0.2424199 0.421575 
-0.1122397 0.2418002 0.4212972 
-0.1146201 0.2421024 0.4217291 
-0.110521 0.2385388 0.4206145 
-0.1117497 0.2401247 0.4211242 
-0.1174121 0.2439841 0.4209692 
-0.1134045 0.241091 0.4216527 
-0.1097698 0.2374031 0.4202709 
-0.1158497 0.2418854 0.4215632 
-0.1167585 0.2433963 0.4213718 
-0.1182236 0.2436355 0.4203452 
-0.1089157 0.2343681 0.4206156 
-0.1095124 0.2361523 0.4204051 
-0.1166384 0.242436 0.4213915 
-0.1135712 0.2393741 0.4217319 
-0.1149928 0.240808 0.4216202 
-0.1174551 0.2428287 0.4209874 
-0.1078559 0.233794 0.4190188 
-0.1186807 0.2430358 0.4196397 
-0.1065087 0.2301786 0.4188067 
-0.1071797 0.2318791 0.4192327 
-0.1179354 0.2403738 0.4194216 
-0.1183712 0.2418635 0.4195172 
-0.10795 0.2329603 0.4203545 
-0.1153472 0.2393424 0.4213858 
-0.1169187 0.2411881 0.4208323 
-0.118063 0.2424843 0.4203605 
-0.1061309 0.2291332 0.4172481 
-0.1178124 0.2392352 0.4190184 
-0.1058011 0.2276246 0.4180956 
-0.1173661 0.2379909 0.4188056 
-0.1167593 0.2389089 0.4202225 
-0.1057872 0.2266242 0.4171995 
-0.1169835 0.2363561 0.418161 
-0.1060857 0.2250688 0.4171542 
-0.1153231 0.2316923 0.4178614 
-0.1157342 0.2332637 0.4184318 
-0.1163444 0.2346389 0.4181534 
-0.1065734 0.2235387 0.4159066 
-0.1151735 0.2304429 0.4159695 
-0.1075563 0.221686 0.4162198 
-0.1146525 0.228643 0.4159233 
-0.1079488 0.2209429 0.4152283 
-0.1133158 0.2251648 0.4152372 
-0.1140894 0.226817 0.4160142 
-0.1080201 0.2212097 0.4172677 
-0.1144836 0.2279026 0.4175402 
-0.1080539 0.2208867 0.414595 
-0.1126666 0.2241123 0.4146711 
-0.1086363 0.2210053 0.4145672 
-0.1096479 0.22158 0.4146307 
-0.1109127 0.2223896 0.4147248 
-0.1120212 0.2232525 0.4148186 
-0.1084455 0.2207419 0.4151959 
-0.1119708 0.2382547 0.4215542 
-0.1107104 0.2370682 0.4211634 
-0.1131814 0.23788 0.4219267 
-0.1085962 0.2327167 0.4215114 
-0.1100268 0.2336745 0.4219037 
-0.1105117 0.2354256 0.4214706 
-0.1142683 0.2382404 0.4217945 
-0.1122029 0.2365751 0.4218662 
-0.1076556 0.2317742 0.4209164 
-0.1152173 0.2377042 0.4212672 
-0.1069571 0.2298575 0.4208858 
-0.1110991 0.2326772 0.4224471 
-0.1119486 0.2345889 0.4220411 
-0.1132917 0.2357965 0.4219213 
-0.1138302 0.2370341 0.421859 
-0.1061085 0.2286625 0.419275 
-0.1161045 0.2367501 0.4200956 
-0.1058323 0.2272751 0.4194821 
-0.1061758 0.226613 0.4216366 
-0.1061813 0.2276955 0.4207848 
-0.1121365 0.2315107 0.4223543 
-0.112833 0.2331824 0.4219364 
-0.1137323 0.234709 0.4216336 
-0.1146092 0.2361463 0.4213862 
-0.1058058 0.2262553 0.4185962 
-0.1160952 0.2353299 0.4194352 
-0.1061698 0.2248961 0.4191527 
-0.1143296 0.2307825 0.4199958 
-0.1148785 0.2325352 0.4198025 
-0.1154967 0.234034 0.4196703 
-0.1059813 0.2260756 0.4203864 
-0.1130933 0.2301182 0.4217281 
-0.1136469 0.2319611 0.4212655 
-0.114341 0.2335653 0.4209575 
-0.1151334 0.2350572 0.420653 
-0.1070256 0.2230081 0.418564 
-0.114684 0.2294519 0.4182062 
-0.1077855 0.2216166 0.4178223 
-0.1142859 0.2278727 0.4191257 
-0.108557 0.2211905 0.4181857 
-0.1141819 0.2268501 0.4180556 
-0.1083244 0.2210108 0.4169797 
-0.1136245 0.2253405 0.4175338 
-0.1080141 0.2217539 0.418981 
-0.1084384 0.220873 0.4160858 
-0.1128717 0.2239524 0.4161125 
-0.1093698 0.2210117 0.4159281 
-0.1107541 0.2217834 0.4162301 
-0.1119758 0.2227889 0.4163256 
-0.1091608 0.2209815 0.4173267 
-0.1094495 0.2320182 0.4224597 
-0.1081393 0.2311625 0.422039 
-0.1104021 0.2308221 0.4230065 
-0.1064478 0.2261125 0.4223504 
-0.1069658 0.2275732 0.4224696 
-0.1079446 0.2295336 0.4227026 
-0.1089236 0.2306722 0.4228966 
-0.1061896 0.2256189 0.4216179 
-0.1117187 0.2300441 0.4227912 
-0.1065904 0.2251451 0.4222455 
-0.1072079 0.2256845 0.4231115 
-0.1066387 0.2242997 0.4209343 
-0.1122781 0.2285638 0.4225747 
-0.113235 0.2288082 0.4216587 
-0.1072873 0.2242349 0.4225863 
-0.107252 0.2230028 0.4204879 
-0.1139345 0.2289062 0.4204472 
-0.1139483 0.2276964 0.4202517 
-0.1132926 0.2275168 0.4213105 
-0.107999 0.2221818 0.4204143 
-0.1137818 0.2264783 0.4196323 
-0.1088639 0.2215551 0.4198507 
-0.1132767 0.2248605 0.4192787 
-0.1119009 0.2238228 0.4214431 
-0.1128296 0.225392 0.4210681 
-0.1097296 0.2214299 0.419074 
-0.1128208 0.2237449 0.4179077 
-0.1104021 0.2215088 0.4177854 
-0.1117332 0.2225055 0.4180447 
-0.1111276 0.2224243 0.4199659 
-0.1124581 0.2236871 0.4197231 
-0.1082564 0.2280966 0.4235231 
-0.1091773 0.2294419 0.4234255 
-0.1077831 0.2267859 0.4235704 
-0.1106356 0.2289051 0.4234571 
-0.1081583 0.2257249 0.4238349 
-0.1089271 0.2267454 0.4239932 
-0.1093887 0.2281586 0.423853 
-0.1081962 0.2243764 0.4235963 
-0.1113316 0.2275516 0.4233713 
-0.1080814 0.2233778 0.4230166 
-0.1091207 0.2250922 0.4239554 
-0.109959 0.225891 0.4239297 
-0.110222 0.227271 0.4238767 
-0.1077132 0.2230017 0.421806 
-0.1122024 0.2266938 0.4225601 
-0.111367 0.2239422 0.4225043 
-0.1117588 0.2249873 0.4225681 
-0.108745 0.2226315 0.4227642 
-0.1103766 0.2242407 0.4233642 
-0.1110512 0.226108 0.4234656 
-0.1084969 0.2221845 0.4217152 
-0.110857 0.2230676 0.4219919 
-0.1089011 0.2218286 0.4210917 
-0.1098528 0.2219954 0.4210601 
-0.1091849 0.2221026 0.4219952 
-0.109759 0.2227276 0.4227634 
-0.1092247 0.2237877 0.4238471 
-0.1087715 0.2232345 0.4235931 
-0.109612 0.2232238 0.4236352 
-0.1092479 0.2228479 0.4234839 
-0.109231 0.2231429 0.4238216 
3 0 11 12 
3 11 0 13 
3 1 0 12 
3 18 1 12 
3 14 13 0 
3 14 0 2 
3 2 0 1 
3 2 3 15 
3 14 2 15 
3 15 3 19 
3 4 20 24 
3 18 20 4 
3 18 4 1 
3 1 4 5 
3 2 1 6 
3 6 1 5 
3 3 2 7 
3 7 2 6 
3 25 19 3 
3 7 25 3 
3 4 24 26 
3 26 27 8 
3 26 8 4 
3 4 8 5 
3 6 5 9 
3 9 5 8 
3 7 6 10 
3 10 6 9 
3 28 25 7 
3 10 28 7 
3 8 27 29 
3 9 8 29 
3 30 9 29 
3 10 9 30 
3 31 10 30 
3 28 10 31 
3 11 34 37 
3 12 11 37 
3 13 16 35 
3 13 35 11 
3 11 35 34 
3 16 17 36 
3 35 16 36 
3 36 17 38 
3 21 39 42 
3 21 37 39 
3 21 18 37 
3 18 12 37 
3 22 13 14 
3 22 43 13 
3 16 13 40 
3 40 13 43 
3 17 16 41 
3 16 40 41 
3 23 14 15 
3 23 22 14 
3 17 41 38 
3 15 19 23 
3 20 21 42 
3 20 42 24 
3 24 42 49 
3 18 21 20 
3 22 44 43 
3 23 44 22 
3 45 44 23 
3 45 23 19 
3 45 19 50 
3 50 19 25 
3 32 26 24 
3 32 24 52 
3 52 24 49 
3 26 32 27 
3 25 28 50 
3 50 28 53 
3 32 52 54 
3 33 54 58 
3 29 54 33 
3 29 32 54 
3 29 27 32 
3 59 29 33 
3 59 55 29 
3 55 30 29 
3 31 30 56 
3 30 55 56 
3 53 28 31 
3 56 53 31 
3 33 58 60 
3 59 33 60 
3 34 63 69 
3 37 34 69 
3 35 64 34 
3 34 64 63 
3 36 65 35 
3 35 65 64 
3 65 36 38 
3 70 65 38 
3 39 71 77 
3 42 39 77 
3 69 39 37 
3 71 39 69 
3 40 43 46 
3 40 47 41 
3 46 47 40 
3 72 70 38 
3 72 38 47 
3 72 47 48 
3 47 38 41 
3 72 48 78 
3 51 79 83 
3 51 77 79 
3 51 49 77 
3 49 42 77 
3 43 44 46 
3 45 46 44 
3 47 46 45 
3 80 48 47 
3 80 47 50 
3 80 50 84 
3 45 50 47 
3 78 48 80 
3 51 83 85 
3 85 49 51 
3 85 87 49 
3 87 52 49 
3 57 88 86 
3 57 86 84 
3 57 84 53 
3 53 84 50 
3 52 87 89 
3 54 52 89 
3 58 90 61 
3 58 54 90 
3 54 89 90 
3 61 55 59 
3 61 90 55 
3 62 55 93 
3 93 55 90 
3 57 94 88 
3 57 55 94 
3 57 56 55 
3 62 94 55 
3 53 56 57 
3 58 61 60 
3 62 93 95 
3 59 60 61 
3 94 62 95 
3 66 99 106 
3 66 67 100 
3 99 66 100 
3 67 68 101 
3 100 67 101 
3 101 68 107 
3 73 108 115 
3 73 74 109 
3 108 73 109 
3 74 69 63 
3 74 63 109 
3 109 63 110 
3 106 64 66 
3 106 110 64 
3 110 63 64 
3 65 66 64 
3 67 66 65 
3 70 67 65 
3 70 75 67 
3 75 68 67 
3 111 107 68 
3 111 68 76 
3 76 68 75 
3 111 76 116 
3 81 117 120 
3 115 117 81 
3 115 81 73 
3 73 81 82 
3 71 82 77 
3 71 74 82 
3 74 73 82 
3 69 74 71 
3 70 72 75 
3 118 76 75 
3 118 75 78 
3 118 78 121 
3 72 78 75 
3 116 76 118 
3 81 120 122 
3 79 124 83 
3 79 81 124 
3 79 82 81 
3 81 122 124 
3 77 82 79 
3 80 125 123 
3 84 125 80 
3 121 78 80 
3 123 121 80 
3 91 126 129 
3 85 91 92 
3 85 124 91 
3 85 83 124 
3 126 91 124 
3 85 92 87 
3 86 130 127 
3 88 130 86 
3 125 84 86 
3 127 125 86 
3 91 129 131 
3 92 91 131 
3 132 92 131 
3 96 132 134 
3 89 132 96 
3 89 92 132 
3 89 87 92 
3 89 97 90 
3 96 97 89 
3 135 90 97 
3 135 133 90 
3 93 90 98 
3 98 90 133 
3 98 133 130 
3 98 130 94 
3 94 130 88 
3 96 134 136 
3 97 96 136 
3 137 97 136 
3 93 98 95 
3 97 137 135 
3 94 95 98 
3 102 140 144 
3 102 103 141 
3 140 102 141 
3 103 104 142 
3 141 103 142 
3 104 105 143 
3 142 104 143 
3 143 105 145 
3 112 146 150 
3 144 146 112 
3 144 112 102 
3 102 112 113 
3 99 113 106 
3 99 103 113 
3 103 102 113 
3 100 103 99 
3 104 103 100 
3 101 104 100 
3 105 104 101 
3 107 114 147 
3 101 107 147 
3 101 147 145 
3 101 145 105 
3 147 114 151 
3 108 152 155 
3 115 108 155 
3 150 109 112 
3 150 152 109 
3 152 108 109 
3 110 112 109 
3 113 112 110 
3 106 113 110 
3 119 107 111 
3 119 156 107 
3 114 107 153 
3 153 107 156 
3 114 153 151 
3 111 116 119 
3 117 157 158 
3 120 117 158 
3 155 117 115 
3 157 117 155 
3 118 156 119 
3 118 121 156 
3 121 159 156 
3 116 118 119 
3 128 122 120 
3 128 120 163 
3 163 120 158 
3 122 128 124 
3 123 164 160 
3 125 164 123 
3 159 121 123 
3 160 159 123 
3 126 128 163 
3 126 163 129 
3 129 163 167 
3 124 128 126 
3 127 168 165 
3 130 168 127 
3 164 125 127 
3 165 164 127 
3 138 131 129 
3 138 129 171 
3 171 129 167 
3 131 139 132 
3 138 139 131 
3 132 139 134 
3 133 172 169 
3 135 172 133 
3 168 130 133 
3 169 168 133 
3 138 171 173 
3 139 138 173 
3 174 139 173 
3 134 139 174 
3 134 174 136 
3 136 174 175 
3 137 136 176 
3 136 175 176 
3 172 135 137 
3 176 172 137 
3 148 179 189 
3 148 149 180 
3 179 148 180 
3 149 144 140 
3 149 140 180 
3 180 140 181 
3 141 182 140 
3 140 182 181 
3 142 183 141 
3 141 183 182 
3 143 184 142 
3 142 184 183 
3 184 143 145 
3 190 184 145 
3 154 148 189 
3 193 154 189 
3 146 154 150 
3 146 149 154 
3 149 148 154 
3 144 149 146 
3 145 191 190 
3 147 191 145 
3 191 147 151 
3 194 191 151 
3 152 154 193 
3 152 193 155 
3 155 193 198 
3 150 154 152 
3 153 199 195 
3 156 199 153 
3 194 151 153 
3 195 194 153 
3 161 200 205 
3 161 158 157 
3 161 157 200 
3 200 157 201 
3 198 157 155 
3 201 157 198 
3 162 206 202 
3 162 202 199 
3 162 199 159 
3 159 199 156 
3 166 161 205 
3 207 166 205 
3 158 166 163 
3 161 166 158 
3 160 206 162 
3 160 164 206 
3 164 208 206 
3 159 160 162 
3 170 166 207 
3 210 170 207 
3 163 170 167 
3 166 170 163 
3 165 211 209 
3 168 211 165 
3 208 164 165 
3 209 208 165 
3 177 170 210 
3 214 177 210 
3 167 177 171 
3 170 177 167 
3 178 215 212 
3 178 169 172 
3 178 212 169 
3 212 213 169 
3 211 168 169 
3 213 211 169 
3 177 214 216 
3 171 177 216 
3 171 216 173 
3 173 216 217 
3 174 173 218 
3 173 217 218 
3 175 174 219 
3 174 218 219 
3 215 178 176 
3 215 176 219 
3 219 176 175 
3 172 176 178 
3 185 220 225 
3 220 185 226 
3 186 221 227 
3 186 187 222 
3 221 186 222 
3 187 188 223 
3 222 187 223 
3 223 188 228 
3 179 229 233 
3 189 179 233 
3 225 180 185 
3 225 229 180 
3 229 179 180 
3 185 230 226 
3 185 180 230 
3 180 181 230 
3 227 182 186 
3 227 230 182 
3 230 181 182 
3 183 186 182 
3 187 186 183 
3 184 187 183 
3 188 187 184 
3 190 192 231 
3 184 190 231 
3 184 231 228 
3 184 228 188 
3 231 192 234 
3 189 233 193 
3 233 237 193 
3 196 238 235 
3 236 190 235 
3 236 192 190 
3 235 190 196 
3 191 197 190 
3 196 190 197 
3 192 236 234 
3 191 194 197 
3 203 239 243 
3 203 237 239 
3 203 198 237 
3 198 193 237 
3 204 238 196 
3 244 238 204 
3 195 199 204 
3 195 204 197 
3 197 204 196 
3 194 195 197 
3 200 245 248 
3 205 200 248 
3 243 201 203 
3 243 245 201 
3 245 200 201 
3 198 203 201 
3 202 244 204 
3 202 206 244 
3 206 249 244 
3 199 202 204 
3 205 248 207 
3 248 251 207 
3 206 208 249 
3 249 208 252 
3 207 251 210 
3 251 255 210 
3 209 256 253 
3 211 256 209 
3 252 208 209 
3 253 252 209 
3 210 255 214 
3 255 260 214 
3 212 261 257 
3 215 261 212 
3 213 212 258 
3 212 257 258 
3 256 211 213 
3 258 256 213 
3 214 260 262 
3 216 214 262 
3 217 216 263 
3 216 262 263 
3 218 217 264 
3 217 263 264 
3 219 218 265 
3 218 264 265 
3 261 215 219 
3 265 261 219 
3 224 270 271 
3 270 224 272 
3 220 232 225 
3 220 226 232 
3 221 224 271 
3 221 271 227 
3 227 271 276 
3 224 273 272 
3 224 221 273 
3 221 222 273 
3 223 274 222 
3 222 274 273 
3 274 223 228 
3 277 274 228 
3 229 278 284 
3 233 229 284 
3 232 229 225 
3 232 279 229 
3 279 278 229 
3 226 279 232 
3 226 230 279 
3 230 280 279 
3 276 230 227 
3 280 230 276 
3 228 281 277 
3 231 281 228 
3 281 231 234 
3 285 281 234 
3 240 286 287 
3 240 284 286 
3 240 237 284 
3 237 233 284 
3 235 238 241 
3 235 242 236 
3 241 242 235 
3 236 242 288 
3 236 288 234 
3 234 288 285 
3 246 289 292 
3 287 289 246 
3 240 287 246 
3 240 246 243 
3 240 243 239 
3 237 240 239 
3 241 244 247 
3 238 244 241 
3 293 290 242 
3 293 242 247 
3 247 242 241 
3 288 242 290 
3 245 246 292 
3 245 292 248 
3 248 292 295 
3 243 246 245 
3 247 249 250 
3 244 249 247 
3 296 293 247 
3 250 296 247 
3 254 297 302 
3 254 295 297 
3 254 251 295 
3 251 248 295 
3 250 303 298 
3 250 249 303 
3 249 252 303 
3 296 250 298 
3 259 254 302 
3 306 259 302 
3 251 259 255 
3 254 259 251 
3 253 307 304 
3 256 307 253 
3 303 252 253 
3 304 303 253 
3 266 259 306 
3 312 266 306 
3 255 266 260 
3 259 266 255 
3 257 313 308 
3 261 313 257 
3 258 257 309 
3 257 308 309 
3 307 256 258 
3 309 307 258 
3 267 266 312 
3 317 267 312 
3 260 268 262 
3 260 266 268 
3 266 267 268 
3 262 269 263 
3 268 269 262 
3 318 263 269 
3 318 314 263 
3 314 264 263 
3 265 264 315 
3 264 314 315 
3 313 261 265 
3 315 313 265 
3 267 317 319 
3 268 267 319 
3 320 268 319 
3 269 268 320 
3 321 269 320 
3 318 269 321 
3 270 327 329 
3 271 270 329 
3 272 275 328 
3 272 328 270 
3 270 328 327 
3 328 275 330 
3 282 331 335 
3 282 329 331 
3 282 276 329 
3 276 271 329 
3 272 273 275 
3 275 332 330 
3 275 273 332 
3 273 274 332 
3 277 283 333 
3 277 333 274 
3 274 333 332 
3 333 283 336 
3 278 337 340 
3 284 278 340 
3 279 338 278 
3 278 338 337 
3 335 280 282 
3 335 338 280 
3 338 279 280 
3 276 282 280 
3 277 281 283 
3 283 281 285 
3 283 285 336 
3 336 285 341 
3 286 342 345 
3 287 286 345 
3 340 286 284 
3 342 286 340 
3 291 346 343 
3 343 347 291 
3 285 288 341 
3 341 288 348 
3 289 349 353 
3 292 289 353 
3 345 289 287 
3 349 289 345 
3 294 346 291 
3 354 346 294 
3 293 350 290 
3 293 291 350 
3 293 294 291 
3 347 350 291 
3 348 288 290 
3 350 348 290 
3 299 355 357 
3 299 353 355 
3 299 295 353 
3 295 292 353 
3 300 358 356 
3 354 300 356 
3 354 294 300 
3 294 301 300 
3 293 296 301 
3 294 293 301 
3 297 299 357 
3 297 357 302 
3 302 357 359 
3 295 299 297 
3 305 358 300 
3 360 358 305 
3 298 303 305 
3 298 305 301 
3 301 305 300 
3 296 298 301 
3 310 361 363 
3 310 359 361 
3 310 306 359 
3 306 302 359 
3 311 364 362 
3 360 311 362 
3 305 311 360 
3 305 307 311 
3 305 304 307 
3 303 304 305 
3 316 310 363 
3 368 316 363 
3 306 316 312 
3 310 316 306 
3 308 369 365 
3 313 369 308 
3 364 311 309 
3 364 309 365 
3 365 309 308 
3 307 309 311 
3 322 316 368 
3 373 322 368 
3 312 322 317 
3 316 322 312 
3 314 318 323 
3 374 314 323 
3 374 370 314 
3 370 315 314 
3 369 313 315 
3 370 369 315 
3 324 375 383 
3 373 375 324 
3 373 324 322 
3 322 324 325 
3 317 322 325 
3 317 325 376 
3 317 376 319 
3 376 325 384 
3 320 319 377 
3 319 376 377 
3 321 320 378 
3 320 377 378 
3 323 318 321 
3 323 321 379 
3 379 321 378 
3 374 323 379 
3 324 383 385 
3 325 324 385 
3 386 325 385 
3 384 325 386 
3 326 389 390 
3 389 326 391 
3 326 390 392 
3 391 326 392 
3 327 394 397 
3 329 327 397 
3 328 395 327 
3 327 395 394 
3 330 334 396 
3 330 396 328 
3 328 396 395 
3 396 334 398 
3 339 399 402 
3 339 335 331 
3 339 331 399 
3 399 331 400 
3 397 331 329 
3 400 331 397 
3 330 332 334 
3 334 401 398 
3 334 332 401 
3 332 333 401 
3 401 333 336 
3 403 401 336 
3 337 344 340 
3 339 402 405 
3 339 405 337 
3 339 337 338 
3 344 337 405 
3 335 339 338 
3 336 341 403 
3 403 341 406 
3 342 407 411 
3 345 342 411 
3 344 342 340 
3 344 408 342 
3 408 407 342 
3 405 408 344 
3 343 346 351 
3 412 343 351 
3 412 409 343 
3 347 343 352 
3 352 343 409 
3 352 409 406 
3 352 406 348 
3 348 406 341 
3 349 413 416 
3 353 349 416 
3 411 349 345 
3 413 349 411 
3 351 417 414 
3 351 346 417 
3 346 354 417 
3 347 352 350 
3 351 414 412 
3 348 350 352 
3 355 418 420 
3 357 355 420 
3 416 355 353 
3 418 355 416 
3 356 421 419 
3 358 421 356 
3 417 354 356 
3 419 417 356 
3 357 420 359 
3 420 423 359 
3 358 360 421 
3 421 360 424 
3 366 425 429 
3 366 363 361 
3 366 361 425 
3 425 361 426 
3 423 361 359 
3 426 361 423 
3 367 430 427 
3 367 362 364 
3 367 427 362 
3 427 428 362 
3 424 360 362 
3 428 424 362 
3 371 366 429 
3 434 371 429 
3 363 371 368 
3 366 371 363 
3 372 435 431 
3 430 372 431 
3 367 372 430 
3 367 369 372 
3 367 365 369 
3 364 365 367 
3 380 436 439 
3 434 436 380 
3 434 380 371 
3 371 380 381 
3 368 381 373 
3 371 381 368 
3 382 440 437 
3 435 382 437 
3 372 382 435 
3 372 374 382 
3 372 370 374 
3 369 370 372 
3 387 441 448 
3 439 441 387 
3 439 387 380 
3 380 387 388 
3 375 388 383 
3 375 381 388 
3 381 380 388 
3 373 381 375 
3 376 449 442 
3 384 449 376 
3 377 376 443 
3 376 442 443 
3 378 377 444 
3 377 443 444 
3 440 382 379 
3 440 379 444 
3 444 379 378 
3 374 379 382 
3 387 448 450 
3 388 387 450 
3 451 388 450 
3 383 388 451 
3 383 451 385 
3 385 451 452 
3 386 385 453 
3 385 452 453 
3 449 384 386 
3 453 449 386 
3 389 393 390 
3 389 391 393 
3 390 393 392 
3 391 392 393 
3 394 457 460 
3 397 394 460 
3 395 458 394 
3 394 458 457 
3 396 459 395 
3 395 459 458 
3 459 396 398 
3 461 459 398 
3 399 404 402 
3 467 404 399 
3 467 399 462 
3 462 399 400 
3 460 400 397 
3 462 400 460 
3 398 463 461 
3 401 463 398 
3 463 401 403 
3 468 463 403 
3 404 469 476 
3 404 476 402 
3 402 476 405 
3 467 469 404 
3 410 477 470 
3 410 470 468 
3 410 468 406 
3 406 468 403 
3 407 478 484 
3 411 407 484 
3 408 479 407 
3 407 479 478 
3 476 408 405 
3 479 408 476 
3 415 485 480 
3 477 415 480 
3 410 415 477 
3 410 412 415 
3 410 409 412 
3 406 409 410 
3 413 486 487 
3 416 413 487 
3 484 413 411 
3 486 413 484 
3 414 485 415 
3 414 417 485 
3 417 488 485 
3 412 414 415 
3 418 489 492 
3 420 418 492 
3 487 418 416 
3 489 418 487 
3 419 421 422 
3 419 422 493 
3 419 493 417 
3 417 493 488 
3 420 492 423 
3 492 496 423 
3 422 497 494 
3 422 421 497 
3 421 424 497 
3 493 422 494 
3 432 498 505 
3 432 429 425 
3 432 425 498 
3 498 425 499 
3 426 500 425 
3 425 500 499 
3 496 426 423 
3 500 426 496 
3 433 506 501 
3 433 427 430 
3 433 501 427 
3 501 502 427 
3 428 427 503 
3 427 502 503 
3 497 424 428 
3 503 497 428 
3 438 432 505 
3 508 438 505 
3 429 438 434 
3 432 438 429 
3 431 506 433 
3 431 435 506 
3 435 509 506 
3 430 431 433 
3 445 510 515 
3 445 446 511 
3 510 445 511 
3 508 511 446 
3 438 508 446 
3 438 446 439 
3 438 439 436 
3 434 438 436 
3 447 516 512 
3 447 437 440 
3 447 512 437 
3 512 513 437 
3 509 435 437 
3 513 509 437 
3 445 515 517 
3 441 521 448 
3 441 445 521 
3 441 446 445 
3 445 517 521 
3 439 446 441 
3 442 522 518 
3 449 522 442 
3 443 442 519 
3 442 518 519 
3 516 447 444 
3 516 444 519 
3 519 444 443 
3 440 444 447 
3 454 450 448 
3 454 448 525 
3 525 448 521 
3 526 450 454 
3 526 523 450 
3 523 451 450 
3 455 523 527 
3 455 452 523 
3 452 451 523 
3 452 456 453 
3 455 456 452 
3 453 456 528 
3 453 528 449 
3 449 528 522 
3 454 525 529 
3 526 454 529 
3 455 527 530 
3 456 455 530 
3 531 456 530 
3 528 456 531 
3 457 464 460 
3 457 458 465 
3 464 457 465 
3 458 459 466 
3 465 458 466 
3 459 461 466 
3 462 471 467 
3 462 460 464 
3 462 464 471 
3 471 464 472 
3 465 473 464 
3 473 472 464 
3 466 474 465 
3 474 473 465 
3 461 463 475 
3 461 475 466 
3 466 475 474 
3 463 468 475 
3 469 536 538 
3 476 469 538 
3 467 536 469 
3 467 481 536 
3 467 471 481 
3 539 536 481 
3 540 472 537 
3 540 481 472 
3 481 471 472 
3 537 482 541 
3 537 472 482 
3 472 473 482 
3 474 483 473 
3 483 482 473 
3 470 477 483 
3 470 483 475 
3 475 483 474 
3 468 470 475 
3 478 542 548 
3 484 478 548 
3 479 543 478 
3 478 543 542 
3 538 479 476 
3 543 479 538 
3 481 544 539 
3 540 544 481 
3 482 545 541 
3 480 485 549 
3 480 549 482 
3 480 482 483 
3 482 549 545 
3 477 480 483 
3 486 490 487 
3 486 557 490 
3 486 484 557 
3 484 548 557 
3 491 558 550 
3 491 550 549 
3 491 549 488 
3 488 549 485 
3 489 559 565 
3 492 489 565 
3 490 489 487 
3 490 560 489 
3 560 559 489 
3 557 560 490 
3 495 558 491 
3 566 558 495 
3 488 493 495 
3 491 488 495 
3 504 567 571 
3 504 565 567 
3 504 496 565 
3 496 492 565 
3 494 566 495 
3 494 497 566 
3 497 572 566 
3 493 494 495 
3 498 573 578 
3 505 498 578 
3 499 574 498 
3 498 574 573 
3 571 500 504 
3 571 574 500 
3 574 499 500 
3 496 504 500 
3 501 506 507 
3 579 501 507 
3 579 575 501 
3 575 502 501 
3 503 502 576 
3 502 575 576 
3 572 497 503 
3 576 572 503 
3 505 578 508 
3 578 583 508 
3 514 584 580 
3 507 580 581 
3 507 509 580 
3 507 506 509 
3 509 514 580 
3 579 507 581 
3 510 585 590 
3 515 510 590 
3 511 586 510 
3 510 586 585 
3 583 511 508 
3 586 511 583 
3 520 591 587 
3 520 512 516 
3 520 587 512 
3 587 588 512 
3 584 514 513 
3 584 513 588 
3 588 513 512 
3 509 513 514 
3 524 517 515 
3 524 515 594 
3 594 515 590 
3 517 524 521 
3 518 595 592 
3 522 595 518 
3 591 520 519 
3 591 519 592 
3 592 519 518 
3 516 519 520 
3 532 596 600 
3 594 596 532 
3 594 532 524 
3 524 532 533 
3 521 533 525 
3 524 533 521 
3 523 601 597 
3 526 601 523 
3 527 598 534 
3 527 523 598 
3 523 597 598 
3 534 599 535 
3 598 599 534 
3 535 599 595 
3 535 595 528 
3 528 595 522 
3 532 600 602 
3 533 532 602 
3 603 533 602 
3 525 533 603 
3 525 603 529 
3 529 603 604 
3 601 526 529 
3 604 601 529 
3 527 534 530 
3 531 530 534 
3 535 531 534 
3 528 531 535 
3 536 546 538 
3 536 539 546 
3 537 547 540 
3 537 541 547 
3 542 551 548 
3 542 543 552 
3 551 542 552 
3 543 538 546 
3 543 546 552 
3 552 546 553 
3 539 544 554 
3 539 554 546 
3 546 554 553 
3 544 540 547 
3 544 547 554 
3 554 547 555 
3 541 545 556 
3 541 556 547 
3 547 556 555 
3 545 549 556 
3 551 561 557 
3 548 551 557 
3 607 552 606 
3 607 561 552 
3 561 551 552 
3 606 562 608 
3 606 552 562 
3 552 553 562 
3 554 563 553 
3 563 562 553 
3 555 564 554 
3 564 563 554 
3 550 558 564 
3 550 564 556 
3 556 564 555 
3 549 550 556 
3 559 568 565 
3 613 568 559 
3 613 559 609 
3 609 559 560 
3 561 560 557 
3 561 610 560 
3 610 609 560 
3 607 610 561 
3 569 608 562 
3 614 608 569 
3 615 563 611 
3 615 569 563 
3 569 562 563 
3 611 570 616 
3 611 563 570 
3 563 564 570 
3 558 566 570 
3 564 558 570 
3 567 617 623 
3 571 567 623 
3 568 567 565 
3 568 618 567 
3 618 617 567 
3 613 618 568 
3 569 619 614 
3 615 619 569 
3 577 616 570 
3 624 616 577 
3 566 572 577 
3 570 566 577 
3 573 625 633 
3 578 573 633 
3 574 626 573 
3 573 626 625 
3 623 574 571 
3 626 574 623 
3 582 634 627 
3 582 575 579 
3 582 627 575 
3 627 628 575 
3 624 577 576 
3 624 576 628 
3 628 576 575 
3 572 576 577 
3 589 635 638 
3 589 633 635 
3 589 583 633 
3 583 578 633 
3 580 639 636 
3 584 639 580 
3 634 582 581 
3 634 581 636 
3 636 581 580 
3 579 581 582 
3 585 640 644 
3 590 585 644 
3 638 586 589 
3 638 640 586 
3 640 585 586 
3 583 589 586 
3 593 645 641 
3 593 587 591 
3 593 641 587 
3 641 642 587 
3 588 587 643 
3 587 642 643 
3 639 584 588 
3 643 639 588 
3 590 644 594 
3 644 646 594 
3 592 645 593 
3 592 595 645 
3 595 647 645 
3 591 592 593 
3 596 648 653 
3 600 596 653 
3 646 596 594 
3 648 596 646 
3 597 601 605 
3 654 597 605 
3 654 649 597 
3 649 598 597 
3 599 598 650 
3 598 649 650 
3 647 595 599 
3 650 647 599 
3 600 653 655 
3 602 600 655 
3 603 602 656 
3 602 655 656 
3 604 603 657 
3 603 656 657 
3 605 601 604 
3 605 604 658 
3 658 604 657 
3 654 605 658 
3 606 612 607 
3 606 608 612 
3 609 660 661 
3 613 609 661 
3 620 662 660 
3 620 660 610 
3 610 660 609 
3 610 607 612 
3 610 612 620 
3 620 612 621 
3 608 614 621 
3 612 608 621 
3 611 622 615 
3 611 616 622 
3 629 663 668 
3 629 623 617 
3 629 617 663 
3 663 617 664 
3 618 665 617 
3 617 665 664 
3 661 618 613 
3 665 618 661 
3 620 666 662 
3 666 630 669 
3 666 620 630 
3 620 621 630 
3 614 619 631 
3 614 631 621 
3 621 631 630 
3 619 615 622 
3 619 622 631 
3 631 622 632 
3 616 624 632 
3 622 616 632 
3 625 670 675 
3 633 625 675 
3 668 626 629 
3 668 670 626 
3 670 625 626 
3 623 629 626 
3 637 669 630 
3 676 669 637 
3 627 634 637 
3 627 637 631 
3 631 637 630 
3 628 627 631 
3 632 628 631 
3 624 628 632 
3 635 677 684 
3 638 635 684 
3 675 635 633 
3 677 635 675 
3 636 676 637 
3 636 639 676 
3 639 685 676 
3 634 636 637 
3 640 686 695 
3 644 640 695 
3 684 640 638 
3 686 640 684 
3 641 696 687 
3 645 696 641 
3 642 641 688 
3 641 687 688 
3 643 642 689 
3 642 688 689 
3 685 639 643 
3 689 685 643 
3 697 651 646 
3 697 646 695 
3 695 646 644 
3 697 699 651 
3 652 700 698 
3 652 698 696 
3 652 696 647 
3 647 696 645 
3 648 659 653 
3 648 704 659 
3 646 704 648 
3 646 701 704 
3 646 651 701 
3 699 701 651 
3 649 705 702 
3 654 705 649 
3 700 652 650 
3 700 650 702 
3 702 650 649 
3 647 650 652 
3 653 659 655 
3 659 704 706 
3 659 706 655 
3 655 706 656 
3 657 656 707 
3 656 706 707 
3 658 657 708 
3 657 707 708 
3 705 654 658 
3 708 705 658 
3 660 667 661 
3 660 662 667 
3 663 710 711 
3 668 663 711 
3 671 712 710 
3 671 710 664 
3 664 710 663 
3 664 665 672 
3 671 664 672 
3 665 661 667 
3 665 667 672 
3 672 667 673 
3 662 666 674 
3 662 674 667 
3 667 674 673 
3 666 669 674 
3 678 713 717 
3 678 679 714 
3 713 678 714 
3 679 675 670 
3 679 670 714 
3 714 670 715 
3 711 670 668 
3 715 670 711 
3 680 712 671 
3 718 712 680 
3 672 681 671 
3 681 680 671 
3 673 682 672 
3 682 681 672 
3 674 683 673 
3 683 682 673 
3 669 676 683 
3 674 669 683 
3 690 678 717 
3 721 690 717 
3 677 690 684 
3 677 679 690 
3 679 678 690 
3 675 679 677 
3 691 718 680 
3 722 718 691 
3 681 692 680 
3 692 691 680 
3 682 693 681 
3 693 692 681 
3 683 694 682 
3 694 693 682 
3 676 685 694 
3 683 676 694 
3 686 690 721 
3 686 721 695 
3 695 721 725 
3 684 690 686 
3 691 723 722 
3 687 696 726 
3 687 726 691 
3 687 691 692 
3 691 726 723 
3 688 687 692 
3 693 688 692 
3 689 688 693 
3 694 689 693 
3 685 689 694 
3 703 697 695 
3 703 695 729 
3 729 695 725 
3 697 703 699 
3 698 730 727 
3 700 730 698 
3 726 696 698 
3 727 726 698 
3 701 709 704 
3 703 729 731 
3 731 699 703 
3 731 735 699 
3 701 699 709 
3 709 699 735 
3 702 736 732 
3 705 736 702 
3 730 700 702 
3 732 730 702 
3 704 709 706 
3 709 735 737 
3 709 737 706 
3 706 737 707 
3 708 707 738 
3 707 737 738 
3 736 705 708 
3 738 736 708 
3 710 716 711 
3 710 712 716 
3 713 719 717 
3 713 714 720 
3 719 713 720 
3 743 720 714 
3 743 714 741 
3 741 714 715 
3 716 715 711 
3 716 742 715 
3 742 741 715 
3 742 716 712 
3 742 712 744 
3 744 712 718 
3 719 724 721 
3 717 719 721 
3 748 720 745 
3 748 724 720 
3 724 719 720 
3 743 745 720 
3 718 722 744 
3 744 722 749 
3 724 750 754 
3 724 754 721 
3 721 754 725 
3 748 750 724 
3 728 722 723 
3 728 755 722 
3 755 749 722 
3 723 726 728 
3 725 754 729 
3 754 761 729 
3 733 762 756 
3 733 757 734 
3 756 757 733 
3 755 734 757 
3 728 734 755 
3 728 730 734 
3 728 727 730 
3 726 727 728 
3 729 761 763 
3 731 729 763 
3 735 764 739 
3 735 731 764 
3 731 763 764 
3 762 739 764 
3 762 733 739 
3 733 740 739 
3 732 736 740 
3 732 740 734 
3 734 740 733 
3 730 732 734 
3 735 739 737 
3 738 737 739 
3 740 738 739 
3 736 738 740 
3 741 746 743 
3 741 742 747 
3 746 741 747 
3 742 744 747 
3 745 751 748 
3 745 743 746 
3 745 746 751 
3 751 746 752 
3 747 753 746 
3 753 752 746 
3 744 749 753 
3 747 744 753 
3 750 758 754 
3 750 768 758 
3 748 768 750 
3 748 767 768 
3 748 751 767 
3 767 759 769 
3 767 751 759 
3 751 752 759 
3 753 760 752 
3 760 759 752 
3 749 755 760 
3 753 749 760 
3 758 765 761 
3 754 758 761 
3 770 758 768 
3 770 766 758 
3 766 765 758 
3 769 766 770 
3 759 766 769 
3 759 762 766 
3 759 756 762 
3 757 756 759 
3 760 757 759 
3 755 757 760 
3 761 765 763 
3 764 763 765 
3 766 764 765 
3 762 764 766 
3 767 771 768 
3 767 769 771 
3 768 771 770 
3 769 770 771 
