ply
format ascii 1.0
comment VCGLIB generated
element vertex 114
property float x
property float y
property float z
element face 224
property list uchar int vertex_indices
end_header
2.238133 1.837504 0.9290191 
2.238834 1.837757 0.9291042 
2.237443 1.83851 0.9294986 
2.238274 1.838796 0.9293314 
2.238163 1.83599 0.9295796 
2.238816 1.836727 0.9291302 
2.23833 1.834646 0.9305249 
2.237112 1.837006 0.9299836 
2.239317 1.836988 0.9297184 
2.236437 1.838805 0.9310873 
2.239206 1.838464 0.9303447 
2.237498 1.839786 0.9301244 
2.238396 1.839851 0.9303281 
2.236937 1.840494 0.9313931 
2.237848 1.840829 0.9313815 
2.237877 1.833548 0.9321377 
2.237171 1.83502 0.9309108 
2.238958 1.834058 0.9314466 
2.239155 1.83552 0.9302361 
2.239682 1.834567 0.9320289 
2.235678 1.836148 0.9321351 
2.239913 1.83645 0.9316153 
2.234762 1.834495 0.9338307 
2.235117 1.838233 0.93367 
2.23992 1.838338 0.9324696 
2.23429 1.836063 0.9345183 
2.236237 1.840259 0.9332744 
2.239054 1.840147 0.9322262 
2.237225 1.841251 0.9327508 
2.238204 1.841443 0.9333324 
2.239163 1.84104 0.9341999 
2.237395 1.832335 0.9346872 
2.23915 1.833095 0.9337406 
2.236102 1.833641 0.933152 
2.240361 1.834546 0.9343745 
2.234894 1.833199 0.9348158 
2.235836 1.83234 0.9353527 
2.240051 1.832716 0.936009 
2.23409 1.834161 0.9357988 
2.240471 1.836856 0.9340261 
2.233684 1.835794 0.9371579 
2.240125 1.839068 0.9353004 
2.234182 1.837604 0.9359486 
2.239413 1.841016 0.935886 
2.235315 1.839598 0.9366272 
2.238619 1.841676 0.9350485 
2.237367 1.841328 0.9356744 
2.238783 1.841419 0.9367905 
2.236707 1.831516 0.9379709 
2.238809 1.831795 0.9368149 
2.234842 1.832561 0.9369847 
2.240169 1.832069 0.938468 
2.240754 1.833464 0.9370723 
2.233911 1.833753 0.9385973 
2.240921 1.835705 0.9371486 
2.233646 1.835507 0.9402419 
2.240774 1.8377 0.938769 
2.234048 1.837691 0.9386908 
2.235116 1.839356 0.9405655 
2.23982 1.839994 0.9384904 
2.236666 1.840717 0.9394969 
2.238389 1.84101 0.9391138 
2.236784 1.830933 0.9417809 
2.238797 1.83111 0.9404439 
2.235054 1.832029 0.9401186 
2.24036 1.831863 0.9408702 
2.240977 1.833321 0.9395171 
2.240869 1.83285 0.9419974 
2.234081 1.833408 0.9417404 
2.241102 1.835209 0.9411284 
2.233989 1.835069 0.9433096 
2.240602 1.837862 0.9415129 
2.23422 1.837326 0.9420329 
2.235314 1.838845 0.943662 
2.239451 1.839707 0.9418262 
2.2364 1.840178 0.9427017 
2.237924 1.840512 0.942191 
2.237014 1.830764 0.9446116 
2.238257 1.830691 0.9433379 
2.239832 1.831531 0.943359 
2.235347 1.831766 0.943613 
2.24066 1.833484 0.944263 
2.236179 1.831301 0.9457333 
2.239915 1.831941 0.945558 
2.23438 1.833308 0.9442191 
2.240796 1.835901 0.9436679 
2.234531 1.834409 0.9455853 
2.240068 1.837725 0.9442054 
2.234909 1.836559 0.9452918 
2.234878 1.835095 0.9464687 
2.235897 1.838428 0.9455924 
2.238863 1.839303 0.9444439 
2.236364 1.839557 0.9447786 
2.237499 1.839874 0.9446259 
2.237036 1.838796 0.9461161 
2.238189 1.838816 0.9460095 
2.238602 1.831099 0.9455864 
2.237241 1.831082 0.9462942 
2.239326 1.832046 0.9467367 
2.236569 1.831856 0.9468423 
2.240077 1.83301 0.9463034 
2.237973 1.832146 0.9471972 
2.235342 1.832683 0.9460046 
2.240065 1.835173 0.9459497 
2.235206 1.834112 0.9468039 
2.236504 1.833486 0.9473886 
2.237997 1.833869 0.9477564 
2.239203 1.833448 0.9472682 
2.235716 1.835313 0.9470497 
2.239149 1.837451 0.9461835 
2.236378 1.837126 0.9467787 
2.237861 1.837334 0.9470416 
2.237208 1.835438 0.9476076 
2.238728 1.83545 0.9473583 
3 0 4 7 
3 0 1 5 
3 4 0 5 
3 5 1 8 
3 2 0 7 
3 9 2 7 
3 1 0 3 
3 3 0 2 
3 10 8 1 
3 3 10 1 
3 2 9 11 
3 3 2 11 
3 12 3 11 
3 10 3 12 
3 6 15 16 
3 15 6 17 
3 4 6 16 
3 4 16 7 
3 7 16 20 
3 6 18 17 
3 6 4 18 
3 4 5 18 
3 18 5 8 
3 21 18 8 
3 7 20 9 
3 20 23 9 
3 8 10 21 
3 21 10 24 
3 13 11 9 
3 13 9 26 
3 26 9 23 
3 11 14 12 
3 13 14 11 
3 12 14 27 
3 12 27 10 
3 10 27 24 
3 13 26 28 
3 14 13 28 
3 29 14 28 
3 27 14 29 
3 15 31 33 
3 16 15 33 
3 17 19 32 
3 17 32 15 
3 15 32 31 
3 32 19 34 
3 22 35 38 
3 22 33 35 
3 22 20 33 
3 20 16 33 
3 17 18 19 
3 19 18 21 
3 19 21 34 
3 34 21 39 
3 25 22 38 
3 40 25 38 
3 20 25 23 
3 22 25 20 
3 21 24 39 
3 39 24 41 
3 25 40 42 
3 42 23 25 
3 42 44 23 
3 44 26 23 
3 30 45 43 
3 30 43 41 
3 30 41 27 
3 27 41 24 
3 26 44 46 
3 28 26 46 
3 45 30 29 
3 45 29 46 
3 46 29 28 
3 27 29 30 
3 36 48 50 
3 36 33 31 
3 36 31 48 
3 48 31 49 
3 37 51 49 
3 37 49 32 
3 32 49 31 
3 32 34 37 
3 35 36 50 
3 35 50 38 
3 38 50 53 
3 33 36 35 
3 37 52 51 
3 52 37 34 
3 52 34 54 
3 54 34 39 
3 38 53 40 
3 53 55 40 
3 39 41 54 
3 54 41 56 
3 40 55 57 
3 42 40 57 
3 57 44 42 
3 58 44 57 
3 43 45 47 
3 43 47 59 
3 43 59 41 
3 41 59 56 
3 44 58 60 
3 46 44 60 
3 47 45 46 
3 47 46 61 
3 61 46 60 
3 59 47 61 
3 48 62 64 
3 50 48 64 
3 49 63 48 
3 48 63 62 
3 63 49 51 
3 65 63 51 
3 50 64 53 
3 64 68 53 
3 51 66 65 
3 52 66 51 
3 66 52 54 
3 69 66 54 
3 53 68 55 
3 68 70 55 
3 54 56 69 
3 69 56 71 
3 55 70 72 
3 57 55 72 
3 72 58 57 
3 73 58 72 
3 56 59 71 
3 71 59 74 
3 58 73 75 
3 60 58 75 
3 61 60 76 
3 60 75 76 
3 74 59 61 
3 76 74 61 
3 62 77 80 
3 64 62 80 
3 63 78 62 
3 62 78 77 
3 65 67 79 
3 65 79 63 
3 63 79 78 
3 79 67 81 
3 64 80 68 
3 80 84 68 
3 65 66 67 
3 67 66 69 
3 67 69 81 
3 81 69 85 
3 68 84 70 
3 84 86 70 
3 69 71 85 
3 85 71 87 
3 70 86 88 
3 72 70 88 
3 88 73 72 
3 90 73 88 
3 71 74 87 
3 87 74 91 
3 73 90 92 
3 75 73 92 
3 76 75 93 
3 75 92 93 
3 91 74 76 
3 93 91 76 
3 77 82 80 
3 97 82 77 
3 97 77 96 
3 96 77 78 
3 83 98 96 
3 83 96 79 
3 79 96 78 
3 79 81 83 
3 82 99 102 
3 82 102 80 
3 80 102 84 
3 97 99 82 
3 83 100 98 
3 100 83 81 
3 100 81 103 
3 103 81 85 
3 104 89 86 
3 104 86 102 
3 102 86 84 
3 104 108 89 
3 85 87 103 
3 103 87 109 
3 86 89 88 
3 90 110 94 
3 88 110 90 
3 88 108 110 
3 88 89 108 
3 94 111 95 
3 110 111 94 
3 95 111 109 
3 95 109 91 
3 91 109 87 
3 90 94 92 
3 93 92 94 
3 95 93 94 
3 91 93 95 
3 96 101 97 
3 96 98 101 
3 99 105 102 
3 99 97 101 
3 99 101 105 
3 105 101 106 
3 98 100 107 
3 98 107 101 
3 101 107 106 
3 100 103 107 
3 102 105 104 
3 108 104 105 
3 108 105 112 
3 112 105 106 
3 107 113 106 
3 113 112 106 
3 103 109 113 
3 107 103 113 
3 108 112 110 
3 111 110 112 
3 113 111 112 
3 109 111 113 
