ply
format ascii 1.0
comment VCGLIB generated
element vertex 806
property float x
property float y
property float z
element face 1608
property list uchar int vertex_indices
end_header
2.13408 1.083271 0.6445783 
2.137239 1.082981 0.6445601 
2.140175 1.083311 0.6446398 
2.142219 1.083527 0.6449203 
2.143533 1.084151 0.6455533 
2.133402 1.085473 0.6439338 
2.136051 1.085091 0.6439304 
2.13864 1.084771 0.6441445 
2.14139 1.085534 0.6449177 
2.135062 1.087132 0.6439739 
2.138146 1.087113 0.6443912 
2.13165 1.08186 0.6459448 
2.135349 1.080668 0.646278 
2.139155 1.081449 0.6457554 
2.141783 1.082207 0.6455367 
2.14329 1.082906 0.645574 
2.136118 1.078924 0.6479956 
2.131367 1.084207 0.6446823 
2.144354 1.083222 0.6465372 
2.144639 1.08436 0.6465927 
2.126429 1.083998 0.6467315 
2.129259 1.083235 0.6458902 
2.131537 1.086165 0.6442745 
2.143877 1.085732 0.6465039 
2.132972 1.087159 0.6440372 
2.142572 1.087268 0.6460366 
2.124167 1.086046 0.6468508 
2.126626 1.086492 0.6459415 
2.129148 1.085783 0.6451996 
2.14492 1.084963 0.6473457 
2.13392 1.088566 0.6445259 
2.140838 1.088344 0.6456846 
2.136237 1.089087 0.6448994 
2.138608 1.089323 0.6454208 
2.123364 1.088407 0.6470653 
2.125705 1.08842 0.6463555 
2.128401 1.088453 0.6457257 
2.131449 1.088294 0.644951 
2.142383 1.088377 0.646534 
2.124867 1.090378 0.6470981 
2.127489 1.090674 0.6467829 
2.130634 1.090838 0.6465345 
2.134187 1.090664 0.6461836 
2.137526 1.090851 0.6465958 
2.135301 1.078061 0.6497055 
2.134309 1.078955 0.6479529 
2.137276 1.078408 0.6491624 
2.124638 1.08223 0.6489723 
2.12855 1.080975 0.6481802 
2.132168 1.079753 0.6476752 
2.138536 1.079618 0.6479019 
2.141403 1.080897 0.6473173 
2.14337 1.082039 0.6467645 
2.130911 1.078829 0.6498758 
2.133087 1.078453 0.6491981 
2.138888 1.078637 0.6499676 
2.123789 1.084079 0.6476722 
2.144493 1.082533 0.6479617 
2.122687 1.084988 0.6477063 
2.121799 1.083804 0.6491184 
2.121563 1.086488 0.6479872 
2.145093 1.083947 0.6481707 
2.144913 1.085829 0.6488746 
2.116134 1.086731 0.6504684 
2.119075 1.085305 0.6497176 
2.121593 1.088952 0.6478478 
2.143503 1.08781 0.6478673 
2.122952 1.090187 0.6475363 
2.141962 1.089404 0.6475087 
2.11432 1.088621 0.6506287 
2.116527 1.089163 0.6498471 
2.119119 1.088444 0.6489956 
2.123905 1.091701 0.6480308 
2.140007 1.090317 0.6469203 
2.126286 1.092443 0.6480941 
2.129435 1.092899 0.6481799 
2.133078 1.093216 0.6487073 
2.136497 1.092566 0.6487138 
2.139266 1.091785 0.6488158 
2.11541 1.090733 0.6503329 
2.118186 1.091461 0.6497686 
2.121467 1.091232 0.6486923 
2.141186 1.090775 0.6488342 
2.120773 1.093659 0.6503187 
2.124256 1.093732 0.6497551 
2.127974 1.094422 0.6499097 
2.131141 1.09473 0.6502007 
2.130579 1.078115 0.6526272 
2.133368 1.077787 0.6517006 
2.135874 1.077586 0.6519732 
2.137483 1.077942 0.6509886 
2.128657 1.079159 0.6508951 
2.139598 1.078551 0.6520982 
2.122149 1.081298 0.6521092 
2.126067 1.080135 0.6511578 
2.141145 1.079792 0.6501706 
2.143372 1.081372 0.6489932 
2.119634 1.083146 0.6509386 
2.144782 1.082684 0.6501034 
2.113971 1.085379 0.6522204 
2.116872 1.083864 0.6518434 
2.118828 1.082111 0.6526705 
2.113796 1.087031 0.651219 
2.145394 1.084394 0.6507619 
2.113055 1.087855 0.6512696 
2.145205 1.086076 0.6518037 
2.112088 1.087165 0.6523297 
2.112525 1.089048 0.6515774 
2.144404 1.087542 0.6504428 
2.113631 1.090335 0.6509691 
2.110552 1.089264 0.6531721 
2.114254 1.091929 0.651125 
2.142892 1.089527 0.6504072 
2.116219 1.092893 0.6508533 
2.118388 1.093753 0.6507368 
2.13578 1.094334 0.6514599 
2.138613 1.09303 0.6515135 
2.141003 1.09155 0.651266 
2.110117 1.092058 0.6538779 
2.112304 1.091516 0.6521587 
2.119768 1.095165 0.6516846 
2.133504 1.094947 0.6508969 
2.122863 1.095848 0.6524022 
2.126676 1.095773 0.6521159 
2.129904 1.095829 0.6521232 
2.132556 1.095775 0.6523001 
2.111726 1.093932 0.6534213 
2.114337 1.094037 0.6523305 
2.117348 1.094986 0.652032 
2.134439 1.09549 0.6524633 
2.130383 1.077885 0.6555695 
2.132953 1.07756 0.6548914 
2.135535 1.077518 0.6542906 
2.13779 1.077843 0.6534566 
2.128028 1.078687 0.6533936 
2.140034 1.078841 0.6548907 
2.119084 1.080698 0.6553481 
2.122782 1.07986 0.6554614 
2.12534 1.079423 0.6543074 
2.141526 1.07963 0.6530982 
2.143468 1.081249 0.6522605 
2.116893 1.08214 0.6537494 
2.145011 1.083193 0.6526862 
2.111328 1.085155 0.6541901 
2.114256 1.0831 0.6541035 
2.115864 1.081489 0.6553334 
2.144182 1.082376 0.6546573 
2.110277 1.087237 0.6537128 
2.145439 1.084717 0.6529355 
2.109316 1.088266 0.6542589 
2.145073 1.085764 0.6540757 
2.108766 1.086876 0.6552794 
2.144893 1.084135 0.6548296 
2.108225 1.09002 0.6554158 
2.144186 1.087814 0.6535162 
2.106717 1.087894 0.6568239 
2.108707 1.093363 0.6557108 
2.142499 1.090333 0.6539652 
2.110142 1.094147 0.6545042 
2.137754 1.094071 0.6548553 
2.140455 1.092283 0.654485 
2.111189 1.095454 0.6546599 
2.135674 1.095273 0.653801 
2.113222 1.095931 0.6542413 
2.116161 1.096433 0.6538973 
2.119696 1.096812 0.6538306 
2.122998 1.097599 0.6553439 
2.125904 1.097042 0.6548228 
2.128949 1.096693 0.6545048 
2.131678 1.096393 0.6544384 
2.134007 1.095957 0.6543278 
2.109834 1.095525 0.6558656 
2.109868 1.096928 0.6574764 
2.111865 1.097143 0.6563268 
2.114913 1.097781 0.656043 
2.118026 1.098119 0.6560248 
2.120966 1.098362 0.6565061 
2.130455 1.077935 0.6583371 
2.132845 1.077683 0.6578945 
2.135392 1.077701 0.6572511 
2.137857 1.078103 0.656323 
2.128 1.078393 0.6563696 
2.140115 1.079552 0.6579415 
2.115642 1.080323 0.6578414 
2.119121 1.079657 0.658339 
2.122075 1.079431 0.6580742 
2.125726 1.078895 0.6579163 
2.142377 1.080744 0.6557186 
2.128626 1.07829 0.6588727 
2.113884 1.081696 0.656088 
2.143672 1.083088 0.6569375 
2.109113 1.084374 0.6564397 
2.111664 1.082829 0.6560286 
2.107281 1.08211 0.6597334 
2.109611 1.082097 0.6583091 
2.112484 1.081295 0.6575537 
2.107309 1.085845 0.6569073 
2.144101 1.08586 0.6566311 
2.105827 1.086414 0.6580112 
2.10679 1.084139 0.6584715 
2.104801 1.088543 0.6586064 
2.143214 1.088708 0.656805 
2.106138 1.089993 0.6573973 
2.106598 1.09266 0.6579534 
2.14185 1.090881 0.6571012 
2.137133 1.094197 0.6585073 
2.139816 1.092415 0.6581715 
2.104953 1.09087 0.6588122 
2.141439 1.090923 0.6592947 
2.108278 1.095405 0.6577261 
2.135642 1.095374 0.6561933 
2.125363 1.098081 0.6577443 
2.128348 1.097326 0.6573699 
2.130763 1.096809 0.6566591 
2.133266 1.096219 0.6571356 
2.135144 1.095386 0.6586167 
2.108988 1.097436 0.6595237 
2.123124 1.098509 0.6573753 
2.111217 1.098386 0.6589077 
2.113939 1.098898 0.6585053 
2.116974 1.099143 0.6583632 
2.119815 1.099152 0.6583952 
2.122209 1.099035 0.6587026 
2.123989 1.098781 0.6589177 
2.132712 1.078078 0.6607048 
2.135247 1.078122 0.6601041 
2.137717 1.078644 0.6593174 
2.130398 1.078146 0.66032 
2.139655 1.080612 0.6611244 
2.10685 1.081379 0.6609272 
2.108736 1.080732 0.6606393 
2.112197 1.080099 0.6599076 
2.115268 1.079237 0.6605304 
2.117991 1.079127 0.660314 
2.12117 1.078976 0.6605264 
2.124932 1.07882 0.661272 
2.128752 1.078587 0.66131 
2.141918 1.081694 0.6589876 
2.106838 1.080398 0.6629736 
2.110608 1.079221 0.6626288 
2.113959 1.07866 0.6625028 
2.117087 1.078442 0.6625422 
2.120116 1.078475 0.6626089 
2.123054 1.078549 0.6629609 
2.125484 1.078638 0.663897 
2.13142 1.078409 0.6619759 
2.105231 1.082894 0.6608323 
2.142835 1.084253 0.6594233 
2.103109 1.082447 0.6632755 
2.141353 1.082857 0.6612064 
2.104164 1.085991 0.6597719 
2.142797 1.087081 0.6594812 
2.100023 1.085435 0.6633788 
2.102699 1.0847 0.6615952 
2.141538 1.085323 0.6617455 
2.10303 1.088484 0.6602674 
2.142269 1.089507 0.6593007 
2.141599 1.090106 0.6604387 
2.097585 1.087808 0.6640949 
2.099706 1.088179 0.6628395 
2.101713 1.087183 0.661507 
2.141242 1.088573 0.6617175 
2.103582 1.090251 0.6599849 
2.140527 1.090891 0.6608238 
2.104177 1.092749 0.6607254 
2.135355 1.094558 0.661352 
2.138187 1.092346 0.6616578 
2.098508 1.089953 0.6639538 
2.101457 1.09042 0.6621104 
2.139658 1.09016 0.6629083 
2.106591 1.095848 0.6608705 
2.133721 1.095835 0.659789 
2.127603 1.097881 0.6606705 
2.131158 1.096714 0.6600088 
2.104365 1.095007 0.6626155 
2.133229 1.095716 0.6616808 
2.108449 1.098071 0.6617618 
2.125331 1.09859 0.6600056 
2.110429 1.099064 0.6614096 
2.113159 1.099814 0.6612957 
2.116295 1.100046 0.6611311 
2.119355 1.099833 0.6609076 
2.121547 1.099496 0.6604509 
2.123784 1.09913 0.6609235 
2.125772 1.098635 0.6617835 
2.107003 1.079073 0.6662391 
2.109807 1.078472 0.6653932 
2.113048 1.07796 0.6650678 
2.116294 1.077788 0.664947 
2.119413 1.077895 0.6648935 
2.122253 1.078147 0.6648693 
2.124409 1.078395 0.6648984 
2.135081 1.078726 0.6624656 
2.137243 1.079206 0.6619033 
2.104691 1.080418 0.6650019 
2.126559 1.078628 0.6660562 
2.13323 1.078659 0.662873 
2.13819 1.080659 0.6632805 
2.10257 1.08133 0.6656117 
2.128308 1.078929 0.6644012 
2.131727 1.079159 0.6640863 
2.134712 1.079642 0.664301 
2.136595 1.079775 0.6636426 
2.100798 1.083045 0.6647411 
2.139586 1.083035 0.6633664 
2.09841 1.084506 0.6658318 
2.136874 1.081571 0.6650587 
2.097456 1.086225 0.6646355 
2.139939 1.086359 0.6638235 
2.096426 1.087163 0.6648413 
2.095852 1.08655 0.6660302 
2.138017 1.084661 0.6656039 
2.095732 1.088191 0.665402 
2.139811 1.088567 0.663808 
2.09663 1.089455 0.6649496 
2.139086 1.089407 0.6642938 
2.094161 1.088105 0.6669491 
2.138205 1.088027 0.6655908 
2.097172 1.090958 0.6655149 
2.138034 1.090558 0.664423 
2.099491 1.092428 0.6650985 
2.102362 1.093632 0.6635133 
2.133631 1.094909 0.6639968 
2.135766 1.092704 0.6648865 
2.093684 1.089555 0.6678354 
2.095271 1.090027 0.6665729 
2.136516 1.090161 0.6667185 
2.10368 1.095737 0.6648174 
2.131961 1.096108 0.6630334 
2.105398 1.096498 0.6635525 
2.127116 1.098236 0.6641014 
2.129864 1.097043 0.6635671 
2.107378 1.098017 0.6640926 
2.124923 1.099014 0.6630923 
2.109534 1.099237 0.6636013 
2.112117 1.100408 0.6643225 
2.11575 1.10099 0.66443 
2.119161 1.100574 0.6640279 
2.122624 1.099728 0.6635607 
2.125274 1.099049 0.664941 
2.112466 1.101127 0.6668656 
2.114453 1.101561 0.6665549 
2.107244 1.078635 0.6689087 
2.10967 1.077966 0.6683712 
2.112625 1.077444 0.6679282 
2.115813 1.077226 0.6677004 
2.11901 1.077338 0.6675386 
2.121998 1.077695 0.667303 
2.12455 1.078165 0.6668885 
2.104682 1.079886 0.6677813 
2.127059 1.078584 0.6687165 
2.102314 1.081097 0.6674318 
2.129148 1.079293 0.6675577 
2.13109 1.079723 0.6664051 
2.133874 1.080842 0.666537 
2.106044 1.079155 0.6695336 
2.100623 1.082352 0.666555 
2.135851 1.08328 0.6672566 
2.096137 1.085534 0.6683474 
2.099218 1.083456 0.6683828 
2.101174 1.081938 0.6683982 
2.134017 1.08241 0.6687183 
2.094398 1.086727 0.6673977 
2.13657 1.085992 0.667574 
2.093404 1.08741 0.667919 
2.093979 1.086647 0.6683769 
2.134841 1.084574 0.6693819 
2.093064 1.088526 0.6683553 
2.136495 1.088201 0.6676797 
2.135461 1.089399 0.6688358 
2.135263 1.087248 0.6695153 
2.093203 1.089907 0.6691039 
2.134635 1.091688 0.6686838 
2.094497 1.091055 0.668555 
2.096974 1.092363 0.6675642 
2.0994 1.094014 0.6674051 
2.101496 1.094766 0.6661578 
2.133465 1.094097 0.6670599 
2.103452 1.096509 0.6675827 
2.131724 1.095831 0.6656685 
2.105362 1.097273 0.665733 
2.129459 1.097179 0.6676302 
2.131824 1.095377 0.6684154 
2.107062 1.09842 0.6667199 
2.126809 1.098559 0.6666861 
2.109933 1.099842 0.6670735 
2.119084 1.101487 0.6673745 
2.122163 1.100537 0.667142 
2.124869 1.099485 0.6670416 
2.105561 1.097743 0.6678671 
2.112338 1.101176 0.6684808 
2.116651 1.101831 0.667097 
2.11411 1.101786 0.6685587 
2.116282 1.102123 0.668811 
2.113697 1.101595 0.6701182 
2.118075 1.102114 0.6688049 
2.109639 1.078178 0.6716218 
2.112556 1.077333 0.6710345 
2.115628 1.076939 0.6707439 
2.118819 1.076932 0.6705303 
2.121967 1.07728 0.670251 
2.12475 1.077873 0.6696434 
2.107204 1.078917 0.670897 
2.127354 1.078449 0.6716059 
2.105496 1.080077 0.6712109 
2.129432 1.079491 0.6705022 
2.131811 1.08074 0.6690776 
2.103036 1.081126 0.6696893 
2.133061 1.08291 0.6710182 
2.094387 1.086767 0.6696717 
2.096099 1.086156 0.6707073 
2.098608 1.084868 0.6712758 
2.101135 1.082789 0.6707133 
2.093206 1.087575 0.6689956 
2.133698 1.085767 0.6720169 
2.093598 1.087965 0.6702553 
2.095116 1.08776 0.671632 
2.097347 1.086822 0.6728292 
2.132869 1.085527 0.6744175 
2.093016 1.088877 0.66971 
2.134148 1.089465 0.6716009 
2.094005 1.089466 0.6712997 
2.133288 1.087464 0.6740298 
2.093342 1.090153 0.6703011 
2.133837 1.09186 0.6711701 
2.093922 1.091121 0.6699647 
2.095877 1.092778 0.6704384 
2.098611 1.094293 0.6695865 
2.101067 1.095445 0.6686625 
2.09446 1.091307 0.6712863 
2.102599 1.096399 0.669551 
2.133037 1.093749 0.6705206 
2.129559 1.097613 0.6717191 
2.131337 1.095874 0.6710102 
2.09658 1.093694 0.671937 
2.097954 1.094396 0.6716729 
2.101342 1.095787 0.6715465 
2.104745 1.097331 0.6702798 
2.127265 1.098698 0.6694092 
2.107434 1.098652 0.6691221 
2.109924 1.099586 0.6709661 
2.112072 1.10075 0.670432 
2.122255 1.101334 0.6705932 
2.12502 1.10004 0.670252 
2.107725 1.098433 0.6720988 
2.110049 1.099195 0.6733778 
2.114395 1.101418 0.6724476 
2.119827 1.102006 0.6699115 
2.116102 1.10208 0.6712752 
2.118785 1.102291 0.6711807 
2.121023 1.10206 0.6717774 
2.110675 1.078557 0.6749067 
2.112777 1.077655 0.6742342 
2.115655 1.077046 0.6740048 
2.118761 1.076806 0.6737506 
2.121904 1.076987 0.673485 
2.12517 1.077619 0.6731328 
2.108128 1.079584 0.6739686 
2.127714 1.078353 0.6740626 
2.106061 1.080972 0.6741221 
2.129321 1.079357 0.6734439 
2.131188 1.080979 0.6724499 
2.10979 1.079281 0.6757682 
2.128904 1.078913 0.6756834 
2.103871 1.082271 0.6734736 
2.132309 1.083284 0.6743771 
2.101337 1.084312 0.6737243 
2.132521 1.084837 0.6763812 
2.105626 1.08193 0.675318 
2.09987 1.086388 0.6747061 
2.132807 1.086412 0.6755944 
2.096835 1.088711 0.6737634 
2.098543 1.088095 0.6749184 
2.101526 1.085543 0.6756286 
2.095419 1.089471 0.6728209 
2.133074 1.087906 0.6760764 
2.133503 1.089689 0.6748827 
2.097009 1.090721 0.6743174 
2.098751 1.090101 0.6758257 
2.095451 1.091085 0.6728106 
2.133488 1.092384 0.6739613 
2.097331 1.092583 0.6741353 
2.099483 1.092556 0.6761326 
2.133837 1.093056 0.6770136 
2.096129 1.092878 0.6725192 
2.13252 1.094711 0.6732868 
2.097289 1.094066 0.6727164 
2.099129 1.094749 0.6732896 
2.101929 1.095505 0.6747615 
2.105397 1.097084 0.6741387 
2.108987 1.098392 0.6749081 
2.129867 1.098187 0.6748952 
2.131415 1.096479 0.6742517 
2.097674 1.0938 0.6736116 
2.099434 1.094066 0.6748657 
2.101811 1.094601 0.6767719 
2.111044 1.09921 0.6750656 
2.127697 1.099144 0.6727368 
2.112697 1.100186 0.6741646 
2.125681 1.100665 0.6742887 
2.11216 1.099462 0.6758916 
2.128402 1.099423 0.6754133 
2.115393 1.101253 0.6749614 
2.122878 1.10174 0.6733202 
2.116879 1.101919 0.6743332 
2.119091 1.102286 0.6741214 
2.121326 1.102214 0.6739039 
2.117195 1.101597 0.6764612 
2.112922 1.078272 0.676938 
2.115719 1.0776 0.6774884 
2.118835 1.077054 0.6771496 
2.121804 1.07694 0.6767408 
2.12466 1.077283 0.6764548 
2.127203 1.078011 0.6762494 
2.111305 1.079284 0.6775794 
2.129061 1.078909 0.6782436 
2.109352 1.080213 0.6770347 
2.130617 1.080548 0.6761674 
2.112941 1.078864 0.6785992 
2.114523 1.078489 0.6793099 
2.107418 1.081717 0.677128 
2.132118 1.08284 0.6783311 
2.105267 1.083233 0.6768398 
2.132689 1.084834 0.6784444 
2.109184 1.081298 0.6787283 
2.103312 1.084973 0.6768565 
2.132813 1.08641 0.6774397 
2.101744 1.086994 0.677287 
2.104949 1.084617 0.6784312 
2.133057 1.085846 0.6792383 
2.100555 1.089076 0.6773573 
2.133174 1.087972 0.677722 
2.133521 1.089448 0.6772081 
2.133804 1.091332 0.6767431 
2.102247 1.088987 0.6794925 
2.100913 1.091779 0.6781963 
2.134282 1.092402 0.6785696 
2.102003 1.093792 0.6783969 
2.134255 1.093987 0.6791816 
2.103516 1.095099 0.6785838 
2.133084 1.094917 0.6765987 
2.104851 1.096096 0.6776131 
2.108335 1.097514 0.677662 
2.111365 1.098755 0.6773043 
2.131664 1.097398 0.6776913 
2.105137 1.095731 0.6798555 
2.113552 1.099668 0.6772901 
2.129886 1.098856 0.6770888 
2.11604 1.100662 0.677765 
2.126349 1.101142 0.6779316 
2.128368 1.099983 0.6776134 
2.115094 1.099804 0.6790399 
2.118404 1.101536 0.6783355 
2.123909 1.101781 0.6758654 
2.119421 1.102056 0.6771213 
2.122172 1.102195 0.6770864 
2.12013 1.101791 0.6795363 
2.124682 1.101874 0.678266 
2.119024 1.077676 0.680737 
2.122051 1.077281 0.6801611 
2.124326 1.077248 0.6792226 
2.126994 1.07784 0.6795568 
2.1166 1.078087 0.6803316 
2.129123 1.078709 0.6809385 
2.113257 1.079861 0.6808472 
2.116002 1.078982 0.6819354 
2.130874 1.08033 0.6804442 
2.117887 1.078346 0.6822331 
2.128126 1.078162 0.6823431 
2.110672 1.080743 0.6795499 
2.132506 1.082197 0.6815211 
2.109517 1.082844 0.6814319 
2.111784 1.081463 0.6820142 
2.106569 1.084425 0.6800766 
2.13343 1.08454 0.6810053 
2.104752 1.086065 0.6799679 
2.133668 1.086452 0.6804321 
2.103297 1.087464 0.6796244 
2.133302 1.087218 0.6790365 
2.103605 1.08989 0.6821052 
2.133804 1.088854 0.6791201 
2.134234 1.090771 0.6789855 
2.104542 1.088005 0.6818199 
2.134073 1.087848 0.6804879 
2.102498 1.091556 0.6808774 
2.135015 1.092564 0.6808991 
2.102793 1.093466 0.6803425 
2.103877 1.094831 0.6801437 
2.134865 1.094498 0.6812308 
2.105564 1.095588 0.681473 
2.133762 1.096037 0.6805757 
2.107858 1.096562 0.6812951 
2.111396 1.097923 0.680657 
2.113906 1.099051 0.679857 
2.132195 1.097897 0.6805069 
2.103522 1.093605 0.6821778 
2.104441 1.094708 0.6820169 
2.134936 1.095258 0.6822215 
2.116764 1.099748 0.6813154 
2.130489 1.098979 0.6793569 
2.119259 1.101 0.6808013 
2.128655 1.100263 0.6809617 
2.131237 1.09889 0.6816035 
2.121352 1.101633 0.6812544 
2.12619 1.101475 0.6799552 
2.122139 1.102037 0.6799639 
2.124388 1.101953 0.6799945 
2.122883 1.101692 0.6821569 
2.122371 1.07805 0.6839164 
2.1257 1.077764 0.6827853 
2.119732 1.078395 0.6836485 
2.128268 1.078279 0.6842089 
2.115804 1.080547 0.6845205 
2.118183 1.07926 0.6843817 
2.130032 1.079208 0.6836121 
2.132203 1.081034 0.6838412 
2.129426 1.078922 0.6857367 
2.113476 1.081298 0.6835804 
2.133838 1.082989 0.6837778 
2.11044 1.084912 0.6853946 
2.11231 1.08296 0.6847821 
2.114532 1.082094 0.6857433 
2.13567 1.084068 0.6859336 
2.108263 1.085756 0.6838589 
2.13499 1.084906 0.6837949 
2.109418 1.086738 0.6864579 
2.136887 1.086533 0.6856204 
2.106161 1.087075 0.682829 
2.13496 1.086988 0.682468 
2.104591 1.091486 0.6847393 
2.105389 1.089463 0.6842236 
2.135014 1.089755 0.6814457 
2.13666 1.089167 0.6844148 
2.138426 1.088701 0.6867948 
2.103595 1.091941 0.6833621 
2.136197 1.091853 0.6836659 
2.104407 1.093023 0.6850367 
2.137732 1.091062 0.6863028 
2.103746 1.093238 0.6834901 
2.13554 1.094116 0.6829815 
2.104721 1.094472 0.6838056 
2.106569 1.095537 0.6837848 
2.10919 1.096273 0.6847019 
2.111604 1.097109 0.6840903 
2.114962 1.098298 0.6834921 
2.134792 1.095862 0.6837774 
2.104729 1.094043 0.6850282 
2.117963 1.099071 0.6843082 
2.132932 1.097636 0.6827709 
2.119736 1.099998 0.6836631 
2.122142 1.100899 0.6833981 
2.128102 1.100132 0.6843798 
2.13101 1.098979 0.6837832 
2.119832 1.099095 0.6857274 
2.124135 1.101282 0.6835446 
2.126346 1.1013 0.6819813 
2.124348 1.10175 0.6820234 
2.125724 1.101099 0.6836888 
2.123445 1.078703 0.6866603 
2.125274 1.078384 0.6860332 
2.127608 1.078439 0.6858352 
2.12126 1.079397 0.6866157 
2.129236 1.079364 0.6873228 
2.118619 1.080687 0.6870013 
2.131577 1.080501 0.6869114 
2.134024 1.082194 0.6862295 
2.123341 1.07933 0.6878482 
2.124999 1.079313 0.6881133 
2.127348 1.079291 0.6879222 
2.116942 1.082404 0.6879434 
2.135891 1.083453 0.6877475 
2.112458 1.08492 0.6874323 
2.114464 1.08374 0.6876812 
2.118994 1.081905 0.6888457 
2.111199 1.086617 0.6880156 
2.137785 1.085349 0.688019 
2.109722 1.087857 0.6878775 
2.138797 1.087127 0.6876358 
2.112698 1.086128 0.6888328 
2.114165 1.085646 0.6893436 
2.139931 1.087097 0.689193 
2.140895 1.087757 0.6901526 
2.108002 1.088748 0.686566 
2.139728 1.088331 0.6883212 
2.106284 1.091287 0.6865243 
2.109565 1.088802 0.6883695 
2.140577 1.088842 0.6895292 
2.105378 1.09271 0.6862821 
2.13939 1.089988 0.6882432 
2.138037 1.092224 0.6887153 
2.107008 1.093207 0.6877384 
2.140013 1.09039 0.6895025 
2.105586 1.093873 0.6863675 
2.136323 1.093888 0.6856779 
2.106056 1.094799 0.6856654 
2.108461 1.095388 0.6867108 
2.111362 1.096165 0.6868746 
2.114462 1.096928 0.6867576 
2.118048 1.097883 0.6867813 
2.13516 1.095745 0.6858586 
2.107019 1.094488 0.6872286 
2.108629 1.094363 0.6884682 
2.135214 1.095195 0.6878729 
2.120908 1.098457 0.6873446 
2.133389 1.09721 0.685671 
2.121971 1.099617 0.6858053 
2.125153 1.100052 0.6857151 
2.128185 1.099202 0.6869324 
2.130649 1.098612 0.6864469 
2.123432 1.098426 0.6880602 
2.12663 1.098275 0.6885647 
2.129675 1.097817 0.6886792 
2.132483 1.096943 0.6882761 
2.12375 1.080668 0.6893415 
2.126881 1.08074 0.6897817 
2.129925 1.080873 0.6893258 
2.132705 1.081884 0.6894721 
2.134443 1.082428 0.6885433 
2.120861 1.081405 0.6891238 
2.136827 1.084278 0.6894968 
2.119827 1.083644 0.6907926 
2.139051 1.085943 0.6899819 
2.140457 1.086942 0.6902869 
2.123063 1.083007 0.691237 
2.126118 1.082727 0.6914132 
2.129203 1.082777 0.6913736 
2.132244 1.08313 0.6911381 
2.134913 1.083637 0.6905417 
2.116838 1.084983 0.6903263 
2.140741 1.087587 0.6907924 
2.113343 1.087638 0.6900079 
2.115691 1.086969 0.6909609 
2.125634 1.085313 0.6929041 
2.1284 1.084753 0.6925912 
2.131614 1.085422 0.6927223 
2.134707 1.085268 0.692172 
2.137735 1.085994 0.6913849 
2.139873 1.086823 0.690908 
2.111017 1.088553 0.6891881 
2.140867 1.088587 0.6906316 
2.109996 1.090107 0.6890873 
2.112898 1.090464 0.6906062 
2.116294 1.089447 0.6918169 
2.129495 1.088001 0.6934516 
2.139721 1.088128 0.6915405 
2.108361 1.091569 0.6884204 
2.140658 1.089681 0.6902897 
2.10889 1.093213 0.6891307 
2.135799 1.093469 0.6902786 
2.137906 1.091773 0.6907638 
2.139623 1.09074 0.6904246 
2.110785 1.092387 0.6899759 
2.113368 1.092761 0.690854 
2.115893 1.092242 0.6915306 
2.119337 1.09186 0.6925573 
2.122649 1.092278 0.6932493 
2.129042 1.091846 0.6930406 
2.132585 1.09072 0.6930413 
2.135895 1.09144 0.6920946 
2.138752 1.090105 0.6917219 
2.140293 1.089514 0.6910168 
2.110203 1.093946 0.6895859 
2.133662 1.095288 0.6898139 
2.110723 1.095049 0.6887299 
2.113493 1.095535 0.6889681 
2.116772 1.096041 0.689182 
2.120682 1.096697 0.6894453 
2.124542 1.096503 0.6903473 
2.128015 1.096386 0.6905391 
2.131155 1.096009 0.6902847 
2.112268 1.094098 0.6900872 
2.115064 1.094261 0.6905772 
2.118355 1.094338 0.6911052 
2.121981 1.094372 0.6917653 
2.125863 1.093831 0.6924677 
2.129469 1.09454 0.6917742 
2.132673 1.093551 0.6916383 
2.120786 1.085605 0.6927046 
2.122561 1.085084 0.6926922 
2.119135 1.085681 0.6920935 
2.124104 1.086586 0.6936368 
2.125986 1.087567 0.6938081 
2.134385 1.087005 0.693248 
2.136617 1.087082 0.6927815 
2.138288 1.087659 0.6924003 
2.120408 1.087154 0.6932666 
2.122334 1.086895 0.6936138 
2.118158 1.087447 0.6923588 
2.126565 1.089659 0.6938959 
2.13257 1.087568 0.6935493 
2.138563 1.08881 0.6924568 
2.118976 1.089563 0.6930156 
2.121047 1.090385 0.6936188 
2.132836 1.088949 0.6935998 
2.134918 1.089687 0.6932838 
2.137158 1.089563 0.6928228 
2.12013 1.088679 0.6934868 
2.122206 1.08893 0.6939638 
2.124248 1.088316 0.6940596 
2.134231 1.088377 0.6936193 
2.135964 1.088393 0.6933275 
2.137537 1.088339 0.6929527 
2.122972 1.090804 0.69396 
2.126114 1.091604 0.6936512 
2.124448 1.091859 0.6937063 
2.124437 1.090256 0.6940951 
3 0 11 17 
3 0 1 12 
3 11 0 12 
3 1 2 13 
3 12 1 13 
3 2 3 14 
3 13 2 14 
3 3 4 15 
3 14 3 15 
3 15 4 18 
3 5 0 17 
3 22 5 17 
3 1 0 6 
3 6 0 5 
3 2 1 7 
3 7 1 6 
3 3 2 8 
3 8 2 7 
3 23 19 4 
3 23 4 8 
3 8 4 3 
3 18 4 19 
3 5 22 24 
3 24 30 9 
3 24 9 5 
3 5 9 6 
3 7 6 10 
3 10 6 9 
3 31 25 8 
3 31 8 10 
3 10 8 7 
3 23 8 25 
3 9 30 32 
3 10 9 32 
3 33 10 32 
3 31 10 33 
3 16 44 45 
3 44 16 46 
3 20 47 56 
3 20 21 48 
3 47 20 48 
3 21 17 11 
3 21 11 48 
3 48 11 49 
3 45 12 16 
3 45 49 12 
3 49 11 12 
3 16 50 46 
3 16 12 50 
3 12 13 50 
3 14 51 13 
3 13 51 50 
3 15 52 14 
3 14 52 51 
3 52 15 18 
3 57 52 18 
3 26 58 60 
3 56 58 26 
3 56 26 20 
3 20 26 27 
3 21 20 28 
3 28 20 27 
3 17 28 22 
3 21 28 17 
3 19 23 29 
3 19 29 61 
3 19 61 18 
3 18 61 57 
3 34 26 60 
3 65 34 60 
3 27 26 35 
3 35 26 34 
3 28 27 36 
3 36 27 35 
3 22 37 24 
3 22 28 37 
3 28 36 37 
3 24 37 30 
3 25 31 38 
3 25 38 66 
3 23 25 66 
3 23 66 62 
3 23 62 29 
3 61 29 62 
3 34 65 67 
3 67 72 39 
3 67 39 34 
3 34 39 35 
3 36 35 40 
3 40 35 39 
3 37 36 41 
3 41 36 40 
3 30 42 32 
3 30 37 42 
3 37 41 42 
3 32 43 33 
3 42 43 32 
3 33 43 73 
3 31 33 73 
3 31 73 68 
3 31 68 38 
3 66 38 68 
3 39 72 74 
3 40 39 74 
3 75 40 74 
3 41 40 75 
3 76 41 75 
3 42 41 76 
3 77 42 76 
3 43 42 77 
3 78 43 77 
3 73 43 78 
3 53 87 91 
3 53 54 88 
3 87 53 88 
3 54 45 44 
3 54 44 88 
3 88 44 89 
3 46 55 90 
3 46 90 44 
3 44 90 89 
3 90 55 92 
3 59 93 97 
3 59 56 47 
3 59 47 93 
3 93 47 94 
3 91 48 53 
3 91 94 48 
3 94 47 48 
3 49 53 48 
3 54 53 49 
3 45 54 49 
3 46 50 55 
3 55 95 92 
3 55 50 95 
3 50 51 95 
3 52 96 51 
3 51 96 95 
3 96 52 57 
3 98 96 57 
3 63 99 102 
3 63 64 100 
3 99 63 100 
3 97 100 64 
3 59 97 64 
3 59 64 60 
3 59 60 58 
3 56 59 58 
3 57 61 98 
3 98 61 103 
3 69 104 107 
3 102 104 69 
3 102 69 63 
3 63 69 70 
3 64 63 71 
3 71 63 70 
3 60 71 65 
3 64 71 60 
3 62 108 105 
3 66 108 62 
3 103 61 62 
3 105 103 62 
3 69 107 109 
3 109 111 79 
3 109 79 69 
3 69 79 70 
3 71 70 80 
3 80 70 79 
3 65 81 67 
3 65 71 81 
3 71 80 81 
3 67 81 72 
3 68 73 82 
3 68 82 112 
3 68 112 66 
3 66 112 108 
3 79 111 113 
3 80 79 113 
3 114 80 113 
3 114 120 83 
3 114 83 80 
3 80 83 81 
3 72 84 74 
3 72 81 84 
3 81 83 84 
3 74 85 75 
3 84 85 74 
3 75 86 76 
3 85 86 75 
3 121 76 86 
3 121 115 76 
3 115 77 76 
3 78 77 116 
3 77 115 116 
3 82 73 78 
3 82 78 117 
3 117 78 116 
3 112 82 117 
3 83 120 122 
3 84 83 122 
3 123 84 122 
3 85 84 123 
3 124 85 123 
3 86 85 124 
3 125 86 124 
3 121 86 125 
3 87 130 134 
3 91 87 134 
3 88 131 87 
3 87 131 130 
3 89 132 88 
3 88 132 131 
3 90 133 89 
3 89 133 132 
3 133 90 92 
3 135 133 92 
3 101 136 141 
3 101 97 93 
3 101 93 136 
3 136 93 137 
3 94 138 93 
3 93 138 137 
3 134 94 91 
3 138 94 134 
3 92 139 135 
3 95 139 92 
3 96 140 95 
3 95 140 139 
3 140 96 98 
3 142 140 98 
3 106 143 147 
3 106 102 99 
3 106 99 143 
3 143 99 144 
3 141 100 101 
3 141 144 100 
3 144 99 100 
3 97 101 100 
3 98 103 142 
3 142 103 148 
3 110 149 153 
3 147 149 110 
3 106 147 110 
3 106 110 107 
3 106 107 104 
3 102 106 104 
3 105 154 150 
3 108 154 105 
3 148 103 105 
3 150 148 105 
3 118 110 153 
3 156 118 153 
3 107 119 109 
3 107 110 119 
3 110 118 119 
3 109 119 111 
3 108 112 154 
3 154 112 157 
3 118 156 158 
3 158 161 126 
3 158 126 118 
3 118 126 119 
3 111 127 113 
3 111 119 127 
3 119 126 127 
3 113 128 114 
3 127 128 113 
3 114 128 120 
3 115 121 129 
3 162 115 129 
3 162 159 115 
3 159 116 115 
3 117 116 160 
3 116 159 160 
3 157 112 117 
3 160 157 117 
3 126 161 163 
3 127 126 163 
3 164 127 163 
3 128 127 164 
3 165 128 164 
3 120 128 165 
3 120 165 122 
3 122 165 166 
3 123 122 167 
3 122 166 167 
3 124 123 168 
3 123 167 168 
3 125 124 169 
3 124 168 169 
3 129 121 125 
3 129 125 170 
3 170 125 169 
3 162 129 170 
3 130 177 181 
3 134 130 181 
3 131 178 130 
3 130 178 177 
3 132 179 131 
3 131 179 178 
3 133 180 132 
3 132 180 179 
3 180 133 135 
3 182 180 135 
3 145 183 189 
3 145 141 136 
3 145 136 183 
3 183 136 184 
3 137 185 136 
3 136 185 184 
3 138 186 137 
3 137 186 185 
3 181 138 134 
3 186 138 181 
3 135 187 182 
3 139 187 135 
3 146 190 187 
3 146 187 140 
3 140 187 139 
3 140 142 146 
3 151 191 196 
3 151 147 143 
3 151 143 191 
3 191 143 192 
3 189 144 145 
3 189 192 144 
3 192 143 144 
3 141 145 144 
3 152 190 146 
3 197 190 152 
3 142 148 152 
3 146 142 152 
3 155 198 200 
3 196 198 155 
3 151 196 155 
3 151 155 153 
3 151 153 149 
3 147 151 149 
3 150 197 152 
3 150 154 197 
3 154 201 197 
3 148 150 152 
3 155 200 202 
3 202 153 155 
3 202 203 153 
3 203 156 153 
3 154 157 201 
3 201 157 204 
3 171 158 156 
3 171 156 209 
3 209 156 203 
3 158 171 161 
3 159 210 205 
3 162 210 159 
3 160 159 206 
3 159 205 206 
3 204 157 160 
3 206 204 160 
3 172 171 209 
3 216 172 209 
3 161 173 163 
3 161 171 173 
3 171 172 173 
3 163 174 164 
3 173 174 163 
3 164 175 165 
3 174 175 164 
3 165 176 166 
3 175 176 165 
3 217 166 176 
3 217 211 166 
3 211 167 166 
3 168 167 212 
3 167 211 212 
3 169 168 213 
3 168 212 213 
3 170 169 214 
3 169 213 214 
3 210 162 170 
3 214 210 170 
3 172 216 218 
3 173 172 218 
3 219 173 218 
3 174 173 219 
3 220 174 219 
3 175 174 220 
3 221 175 220 
3 176 175 221 
3 222 176 221 
3 217 176 222 
3 177 188 181 
3 227 188 177 
3 227 177 224 
3 224 177 178 
3 179 225 178 
3 178 225 224 
3 180 226 179 
3 179 226 225 
3 226 180 182 
3 228 226 182 
3 193 229 246 
3 193 194 230 
3 229 193 230 
3 194 195 231 
3 230 194 231 
3 195 189 183 
3 195 183 231 
3 231 183 232 
3 184 233 183 
3 183 233 232 
3 185 234 184 
3 184 234 233 
3 186 235 185 
3 185 235 234 
3 188 186 181 
3 188 236 186 
3 236 235 186 
3 227 236 188 
3 182 237 228 
3 187 237 182 
3 237 187 190 
3 247 237 190 
3 199 193 246 
3 250 199 246 
3 191 199 196 
3 191 194 199 
3 194 193 199 
3 192 194 191 
3 195 194 192 
3 189 195 192 
3 190 197 247 
3 247 197 251 
3 198 199 250 
3 198 250 200 
3 200 250 255 
3 196 199 198 
3 197 201 251 
3 251 201 256 
3 207 202 200 
3 207 200 262 
3 262 200 255 
3 202 207 203 
3 208 263 257 
3 208 257 256 
3 208 256 204 
3 204 256 201 
3 207 262 264 
3 264 203 207 
3 264 270 203 
3 270 209 203 
3 215 271 265 
3 215 205 210 
3 215 265 205 
3 265 266 205 
3 263 208 206 
3 263 206 266 
3 266 206 205 
3 204 206 208 
3 209 270 216 
3 270 276 216 
3 211 217 223 
3 277 211 223 
3 277 272 211 
3 272 212 211 
3 213 212 273 
3 212 272 273 
3 271 215 214 
3 271 214 273 
3 273 214 213 
3 210 214 215 
3 216 276 278 
3 218 216 278 
3 219 218 279 
3 218 278 279 
3 220 219 280 
3 219 279 280 
3 221 220 281 
3 220 280 281 
3 222 221 282 
3 221 281 282 
3 223 217 222 
3 223 222 283 
3 283 222 282 
3 277 223 283 
3 238 285 294 
3 238 239 286 
3 285 238 286 
3 239 240 287 
3 286 239 287 
3 240 241 288 
3 287 240 288 
3 241 242 289 
3 288 241 289 
3 242 243 290 
3 289 242 290 
3 243 244 291 
3 290 243 291 
3 291 244 295 
3 224 245 227 
3 296 245 224 
3 296 224 292 
3 292 224 225 
3 226 293 225 
3 225 293 292 
3 293 226 228 
3 297 293 228 
3 248 298 303 
3 294 298 248 
3 238 294 248 
3 238 248 246 
3 238 246 229 
3 230 238 229 
3 239 238 230 
3 231 239 230 
3 240 239 231 
3 232 240 231 
3 241 240 232 
3 233 241 232 
3 242 241 233 
3 234 242 233 
3 243 242 234 
3 235 243 234 
3 244 243 235 
3 244 299 295 
3 244 235 299 
3 235 236 299 
3 245 236 227 
3 245 300 236 
3 300 299 236 
3 296 300 245 
3 249 228 237 
3 249 304 228 
3 304 297 228 
3 237 247 249 
3 252 305 307 
3 303 305 252 
3 303 252 248 
3 248 252 253 
3 246 253 250 
3 248 253 246 
3 254 304 249 
3 308 304 254 
3 247 251 254 
3 249 247 254 
3 258 309 312 
3 307 309 258 
3 307 258 252 
3 252 258 259 
3 253 252 260 
3 260 252 259 
3 250 260 255 
3 253 260 250 
3 261 308 254 
3 313 308 261 
3 251 256 261 
3 254 251 261 
3 258 312 314 
3 314 318 267 
3 314 267 258 
3 258 267 259 
3 260 259 268 
3 268 259 267 
3 255 268 262 
3 260 268 255 
3 269 319 315 
3 313 269 315 
3 261 269 313 
3 261 263 269 
3 261 257 263 
3 256 257 261 
3 267 318 320 
3 268 267 320 
3 321 268 320 
3 274 321 327 
3 264 321 274 
3 264 268 321 
3 264 262 268 
3 264 274 270 
3 275 328 322 
3 275 265 271 
3 275 322 265 
3 322 323 265 
3 319 269 266 
3 319 266 323 
3 323 266 265 
3 263 266 269 
3 274 327 329 
3 329 270 274 
3 329 332 270 
3 332 276 270 
3 284 333 330 
3 284 272 277 
3 284 330 272 
3 330 331 272 
3 328 275 273 
3 328 273 331 
3 331 273 272 
3 271 273 275 
3 276 332 334 
3 278 276 334 
3 279 278 335 
3 278 334 335 
3 280 279 336 
3 279 335 336 
3 281 280 337 
3 280 336 337 
3 282 281 338 
3 281 337 338 
3 333 284 283 
3 333 283 338 
3 338 283 282 
3 277 283 284 
3 285 342 349 
3 294 285 349 
3 286 343 285 
3 285 343 342 
3 287 344 286 
3 286 344 343 
3 288 345 287 
3 287 345 344 
3 289 346 288 
3 288 346 345 
3 290 347 289 
3 289 347 346 
3 291 348 290 
3 290 348 347 
3 348 291 295 
3 350 348 295 
3 292 301 296 
3 292 293 302 
3 301 292 302 
3 293 297 302 
3 298 351 356 
3 303 298 356 
3 349 298 294 
3 351 298 349 
3 295 352 350 
3 299 352 295 
3 300 353 299 
3 299 353 352 
3 301 300 296 
3 301 354 300 
3 354 353 300 
3 354 306 357 
3 354 301 306 
3 301 302 306 
3 297 304 306 
3 302 297 306 
3 310 358 362 
3 310 307 305 
3 310 305 358 
3 358 305 359 
3 356 305 303 
3 359 305 356 
3 311 357 306 
3 363 357 311 
3 304 308 311 
3 306 304 311 
3 316 364 367 
3 362 364 316 
3 310 362 316 
3 310 316 312 
3 310 312 309 
3 307 310 309 
3 317 363 311 
3 368 363 317 
3 308 313 317 
3 311 308 317 
3 324 316 367 
3 371 324 367 
3 312 325 314 
3 312 316 325 
3 316 324 325 
3 314 325 318 
3 326 372 369 
3 368 326 369 
3 317 326 368 
3 317 319 326 
3 317 315 319 
3 313 315 317 
3 324 371 373 
3 325 324 373 
3 374 325 373 
3 318 325 374 
3 318 374 320 
3 320 374 375 
3 321 320 376 
3 320 375 376 
3 376 327 321 
3 378 327 376 
3 322 379 377 
3 328 379 322 
3 372 326 323 
3 372 323 377 
3 377 323 322 
3 319 323 326 
3 327 378 380 
3 329 327 380 
3 380 332 329 
3 383 332 380 
3 330 333 339 
3 384 330 339 
3 384 381 330 
3 381 331 330 
3 379 328 331 
3 381 379 331 
3 332 383 385 
3 334 332 385 
3 340 385 390 
3 340 335 385 
3 335 334 385 
3 335 341 336 
3 340 341 335 
3 391 336 341 
3 391 386 336 
3 386 337 336 
3 338 337 387 
3 337 386 387 
3 339 333 338 
3 339 338 388 
3 388 338 387 
3 384 339 388 
3 340 390 392 
3 341 340 392 
3 393 341 392 
3 391 341 393 
3 342 355 349 
3 402 355 342 
3 402 342 396 
3 396 342 343 
3 344 397 343 
3 343 397 396 
3 345 398 344 
3 344 398 397 
3 346 399 345 
3 345 399 398 
3 347 400 346 
3 346 400 399 
3 348 401 347 
3 347 401 400 
3 401 348 350 
3 403 401 350 
3 351 360 356 
3 351 407 360 
3 349 407 351 
3 349 404 407 
3 349 355 404 
3 402 404 355 
3 350 405 403 
3 352 405 350 
3 353 406 352 
3 352 406 405 
3 361 408 406 
3 361 406 354 
3 354 406 353 
3 354 357 361 
3 365 409 413 
3 365 362 358 
3 365 358 409 
3 409 358 410 
3 359 411 358 
3 358 411 410 
3 360 359 356 
3 360 412 359 
3 412 411 359 
3 407 412 360 
3 366 408 361 
3 414 408 366 
3 357 363 366 
3 361 357 366 
3 364 365 413 
3 364 413 367 
3 367 413 419 
3 362 365 364 
3 370 414 366 
3 420 414 370 
3 363 368 370 
3 366 363 370 
3 367 419 371 
3 419 423 371 
3 369 420 370 
3 369 372 420 
3 372 424 420 
3 368 369 370 
3 371 423 425 
3 373 371 425 
3 374 373 426 
3 373 425 426 
3 375 374 427 
3 374 426 427 
3 376 375 428 
3 375 427 428 
3 428 378 376 
3 430 378 428 
3 377 379 382 
3 377 382 431 
3 377 431 372 
3 372 431 424 
3 389 380 378 
3 389 378 437 
3 437 378 430 
3 380 389 383 
3 381 438 432 
3 384 438 381 
3 382 379 381 
3 382 381 433 
3 433 381 432 
3 431 382 433 
3 389 437 439 
3 383 389 439 
3 383 439 385 
3 385 439 440 
3 390 441 394 
3 390 385 441 
3 385 440 441 
3 441 446 394 
3 386 391 395 
3 447 386 395 
3 447 442 386 
3 442 387 386 
3 388 387 443 
3 387 442 443 
3 438 384 388 
3 443 438 388 
3 390 394 392 
3 394 446 448 
3 394 448 392 
3 392 448 393 
3 395 391 393 
3 395 393 449 
3 449 393 448 
3 447 395 449 
3 396 451 457 
3 402 396 457 
3 397 452 396 
3 396 452 451 
3 398 453 397 
3 397 453 452 
3 399 454 398 
3 398 454 453 
3 400 455 399 
3 399 455 454 
3 401 456 400 
3 400 456 455 
3 456 401 403 
3 458 456 403 
3 404 459 464 
3 407 404 464 
3 457 404 402 
3 459 404 457 
3 403 460 458 
3 405 460 403 
3 406 461 405 
3 405 461 460 
3 461 406 408 
3 465 461 408 
3 409 415 413 
3 409 410 416 
3 415 409 416 
3 410 411 417 
3 416 410 417 
3 469 417 411 
3 469 411 466 
3 466 411 412 
3 464 412 407 
3 466 412 464 
3 418 470 467 
3 418 467 465 
3 418 465 414 
3 414 465 408 
3 415 421 419 
3 413 415 419 
3 474 416 471 
3 474 421 416 
3 421 415 416 
3 417 471 416 
3 472 471 417 
3 469 472 417 
3 422 470 418 
3 475 470 422 
3 414 420 422 
3 418 414 422 
3 421 429 423 
3 419 421 423 
3 479 421 474 
3 429 421 479 
3 422 476 475 
3 476 422 420 
3 476 420 480 
3 480 420 424 
3 423 429 425 
3 429 426 425 
3 429 484 426 
3 429 479 484 
3 484 434 426 
3 426 435 427 
3 434 435 426 
3 427 436 428 
3 435 436 427 
3 428 436 430 
3 424 431 480 
3 480 431 485 
3 434 484 486 
3 435 434 486 
3 487 435 486 
3 436 435 487 
3 488 436 487 
3 436 437 430 
3 436 489 437 
3 436 488 489 
3 444 437 489 
3 444 490 445 
3 489 490 444 
3 490 496 445 
3 432 497 491 
3 438 497 432 
3 433 432 492 
3 432 491 492 
3 485 431 433 
3 492 485 433 
3 437 444 439 
3 440 439 444 
3 445 440 444 
3 445 496 498 
3 445 498 440 
3 440 498 441 
3 498 446 441 
3 502 446 498 
3 442 447 450 
3 503 442 450 
3 503 499 442 
3 499 443 442 
3 497 438 443 
3 499 497 443 
3 446 502 504 
3 448 446 504 
3 449 448 505 
3 448 504 505 
3 450 447 449 
3 450 449 506 
3 506 449 505 
3 503 450 506 
3 451 462 457 
3 514 462 451 
3 514 451 508 
3 508 451 452 
3 453 509 452 
3 452 509 508 
3 454 510 453 
3 453 510 509 
3 455 511 454 
3 454 511 510 
3 456 512 455 
3 455 512 511 
3 458 463 513 
3 458 513 456 
3 456 513 512 
3 513 463 515 
3 459 468 464 
3 459 520 468 
3 457 520 459 
3 457 516 520 
3 457 462 516 
3 514 516 462 
3 458 460 463 
3 463 517 515 
3 463 460 517 
3 460 461 517 
3 517 461 465 
3 521 517 465 
3 466 473 469 
3 466 525 473 
3 464 525 466 
3 464 522 525 
3 464 468 522 
3 520 522 468 
3 467 526 523 
3 470 526 467 
3 521 465 467 
3 523 521 467 
3 471 477 474 
3 471 472 478 
3 477 471 478 
3 472 530 478 
3 469 530 472 
3 469 527 530 
3 469 473 527 
3 525 527 473 
3 470 475 526 
3 526 475 531 
3 477 481 479 
3 474 477 479 
3 478 482 477 
3 482 481 477 
3 535 478 530 
3 482 478 535 
3 475 532 531 
3 476 532 475 
3 480 483 533 
3 480 533 476 
3 476 533 532 
3 533 483 536 
3 481 493 484 
3 479 481 484 
3 482 494 481 
3 494 493 481 
3 537 482 535 
3 537 495 482 
3 495 494 482 
3 537 539 495 
3 483 540 538 
3 483 480 540 
3 480 485 540 
3 536 483 538 
3 484 493 486 
3 487 486 493 
3 494 487 493 
3 488 487 494 
3 495 488 494 
3 495 539 541 
3 495 541 488 
3 488 541 489 
3 490 489 542 
3 489 541 542 
3 496 543 500 
3 496 490 543 
3 490 542 543 
3 543 546 500 
3 491 497 501 
3 547 491 501 
3 547 544 491 
3 544 492 491 
3 540 485 492 
3 544 540 492 
3 496 500 498 
3 502 548 507 
3 498 548 502 
3 498 546 548 
3 498 500 546 
3 548 552 507 
3 499 553 549 
3 503 553 499 
3 501 497 499 
3 501 499 550 
3 550 499 549 
3 547 501 550 
3 502 507 504 
3 507 552 554 
3 507 554 504 
3 504 554 505 
3 506 505 555 
3 505 554 555 
3 553 503 506 
3 555 553 506 
3 508 518 514 
3 508 509 519 
3 518 508 519 
3 562 519 509 
3 562 509 558 
3 558 509 510 
3 511 559 510 
3 510 559 558 
3 512 560 511 
3 511 560 559 
3 513 561 512 
3 512 561 560 
3 561 513 515 
3 563 561 515 
3 516 524 520 
3 516 569 524 
3 514 569 516 
3 514 564 569 
3 514 518 564 
3 519 564 518 
3 565 564 519 
3 562 565 519 
3 515 566 563 
3 517 566 515 
3 566 517 521 
3 570 566 521 
3 522 528 525 
3 522 573 528 
3 520 573 522 
3 520 571 573 
3 520 524 571 
3 569 571 524 
3 523 526 529 
3 523 529 574 
3 523 574 521 
3 521 574 570 
3 527 534 530 
3 527 577 534 
3 525 577 527 
3 525 575 577 
3 525 528 575 
3 573 575 528 
3 529 578 576 
3 529 526 578 
3 526 531 578 
3 574 529 576 
3 534 579 584 
3 534 584 530 
3 530 584 535 
3 577 579 534 
3 531 580 578 
3 532 580 531 
3 533 581 532 
3 532 581 580 
3 581 533 536 
3 585 581 536 
3 535 584 586 
3 537 535 586 
3 539 587 545 
3 539 537 587 
3 537 586 587 
3 587 589 545 
3 538 590 588 
3 540 590 538 
3 585 536 538 
3 588 585 538 
3 539 545 541 
3 545 589 591 
3 545 591 541 
3 541 591 542 
3 543 542 592 
3 542 591 592 
3 546 593 551 
3 546 543 593 
3 543 592 593 
3 593 598 551 
3 544 599 594 
3 547 599 544 
3 590 540 544 
3 594 590 544 
3 546 551 548 
3 552 600 556 
3 548 600 552 
3 548 598 600 
3 548 551 598 
3 600 603 556 
3 549 553 557 
3 604 549 557 
3 604 601 549 
3 601 550 549 
3 599 547 550 
3 601 599 550 
3 552 556 554 
3 556 603 605 
3 556 605 554 
3 554 605 555 
3 557 553 555 
3 557 555 606 
3 606 555 605 
3 604 557 606 
3 558 567 562 
3 610 567 558 
3 610 558 608 
3 608 558 559 
3 560 609 559 
3 559 609 608 
3 568 611 609 
3 568 609 561 
3 561 609 560 
3 561 563 568 
3 564 572 569 
3 617 572 564 
3 617 564 612 
3 612 564 565 
3 567 565 562 
3 567 613 565 
3 613 612 565 
3 610 613 567 
3 568 614 611 
3 563 614 568 
3 563 566 614 
3 566 615 614 
3 615 566 570 
3 618 615 570 
3 571 619 623 
3 573 571 623 
3 572 571 569 
3 572 620 571 
3 620 619 571 
3 617 620 572 
3 570 574 618 
3 618 574 624 
3 575 582 577 
3 575 627 582 
3 575 573 627 
3 573 623 627 
3 576 578 583 
3 576 583 628 
3 576 628 574 
3 574 628 624 
3 579 629 634 
3 584 579 634 
3 582 579 577 
3 582 630 579 
3 630 629 579 
3 627 630 582 
3 578 580 583 
3 583 631 628 
3 583 580 631 
3 580 581 631 
3 631 581 585 
3 635 631 585 
3 595 586 584 
3 595 584 638 
3 638 584 634 
3 586 596 587 
3 595 596 586 
3 587 596 589 
3 588 590 597 
3 588 597 639 
3 588 639 585 
3 585 639 635 
3 595 638 640 
3 596 595 640 
3 641 596 640 
3 589 596 641 
3 589 641 591 
3 591 641 642 
3 592 591 643 
3 591 642 643 
3 593 592 644 
3 592 643 644 
3 644 598 593 
3 647 598 644 
3 594 599 602 
3 594 602 648 
3 590 594 648 
3 590 648 645 
3 590 645 597 
3 639 597 645 
3 598 647 649 
3 600 598 649 
3 603 650 607 
3 603 600 650 
3 600 649 650 
3 650 654 607 
3 601 655 651 
3 604 655 601 
3 602 599 601 
3 602 601 652 
3 652 601 651 
3 648 602 652 
3 603 607 605 
3 607 654 656 
3 607 656 605 
3 605 656 606 
3 655 604 606 
3 656 655 606 
3 608 658 661 
3 610 608 661 
3 609 659 608 
3 608 659 658 
3 611 616 660 
3 611 660 609 
3 609 660 659 
3 660 616 662 
3 612 621 617 
3 669 621 612 
3 669 612 663 
3 663 612 613 
3 661 613 610 
3 663 613 661 
3 611 614 616 
3 616 664 662 
3 616 614 664 
3 614 615 664 
3 618 622 665 
3 618 665 615 
3 615 665 664 
3 665 622 670 
3 619 625 623 
3 674 625 619 
3 674 619 671 
3 671 619 620 
3 621 620 617 
3 621 672 620 
3 672 671 620 
3 669 672 621 
3 622 624 626 
3 618 624 622 
3 675 670 622 
3 626 675 622 
3 625 676 682 
3 625 682 623 
3 623 682 627 
3 674 676 625 
3 626 628 632 
3 624 628 626 
3 677 675 626 
3 677 626 633 
3 633 626 632 
3 677 633 683 
3 629 636 634 
3 687 636 629 
3 687 629 684 
3 684 629 630 
3 682 630 627 
3 684 630 682 
3 628 631 632 
3 635 632 631 
3 635 637 632 
3 637 633 632 
3 688 683 633 
3 637 688 633 
3 636 646 638 
3 634 636 638 
3 692 636 687 
3 646 636 692 
3 637 693 689 
3 637 635 693 
3 635 639 693 
3 688 637 689 
3 638 646 640 
3 646 692 694 
3 646 694 640 
3 640 694 641 
3 642 641 695 
3 641 694 695 
3 643 642 696 
3 642 695 696 
3 644 643 697 
3 643 696 697 
3 647 698 653 
3 647 644 698 
3 644 697 698 
3 698 703 653 
3 645 704 699 
3 648 704 645 
3 693 639 645 
3 699 693 645 
3 647 653 649 
3 653 703 705 
3 653 705 649 
3 649 705 650 
3 654 706 657 
3 654 650 706 
3 650 705 706 
3 657 651 655 
3 657 706 651 
3 706 707 651 
3 652 651 708 
3 651 707 708 
3 704 648 652 
3 708 704 652 
3 654 657 656 
3 655 656 657 
3 658 666 661 
3 658 659 667 
3 666 658 667 
3 659 660 668 
3 667 659 668 
3 660 662 668 
3 663 673 669 
3 663 718 673 
3 661 718 663 
3 661 713 718 
3 661 666 713 
3 667 713 666 
3 714 713 667 
3 668 714 667 
3 715 714 668 
3 662 715 668 
3 662 664 715 
3 664 716 715 
3 665 717 664 
3 664 717 716 
3 717 665 670 
3 719 717 670 
3 671 678 674 
3 671 672 679 
3 678 671 679 
3 672 728 679 
3 669 728 672 
3 669 720 728 
3 669 673 720 
3 718 720 673 
3 721 675 680 
3 721 719 675 
3 719 670 675 
3 680 681 722 
3 721 680 722 
3 722 681 729 
3 676 685 682 
3 676 738 685 
3 674 738 676 
3 674 730 738 
3 674 678 730 
3 679 730 678 
3 731 730 679 
3 728 731 679 
3 675 677 680 
3 683 680 677 
3 683 686 680 
3 686 681 680 
3 739 729 681 
3 686 739 681 
3 684 690 687 
3 684 745 690 
3 682 745 684 
3 682 740 745 
3 682 685 740 
3 738 740 685 
3 686 688 691 
3 683 688 686 
3 746 739 686 
3 691 746 686 
3 690 700 692 
3 687 690 692 
3 747 690 745 
3 747 701 690 
3 701 700 690 
3 747 761 701 
3 702 762 748 
3 702 689 693 
3 702 748 689 
3 748 749 689 
3 691 688 689 
3 691 689 750 
3 750 689 749 
3 746 691 750 
3 692 700 694 
3 695 694 700 
3 701 695 700 
3 701 761 763 
3 701 763 695 
3 695 763 696 
3 697 696 764 
3 696 763 764 
3 698 697 765 
3 697 764 765 
3 703 766 709 
3 703 698 766 
3 698 765 766 
3 709 767 710 
3 766 767 709 
3 710 768 711 
3 767 768 710 
3 711 769 712 
3 768 769 711 
3 762 712 769 
3 702 712 762 
3 702 704 712 
3 702 699 704 
3 693 699 702 
3 703 709 705 
3 706 705 709 
3 710 706 709 
3 707 706 710 
3 711 707 710 
3 708 707 711 
3 712 708 711 
3 704 708 712 
3 713 723 718 
3 713 714 724 
3 723 713 724 
3 714 715 725 
3 724 714 725 
3 715 716 726 
3 725 715 726 
3 716 717 727 
3 726 716 727 
3 717 719 727 
3 720 777 779 
3 728 720 779 
3 723 720 718 
3 723 778 720 
3 778 777 720 
3 778 732 780 
3 778 723 732 
3 723 724 732 
3 725 733 724 
3 733 732 724 
3 726 734 725 
3 734 733 725 
3 727 735 726 
3 735 734 726 
3 719 721 736 
3 719 736 727 
3 727 736 735 
3 721 722 737 
3 736 721 737 
3 722 729 737 
3 730 741 738 
3 730 731 742 
3 741 730 742 
3 731 787 742 
3 731 728 787 
3 728 779 787 
3 732 781 780 
3 781 743 788 
3 781 732 743 
3 732 733 743 
3 789 734 782 
3 789 743 734 
3 743 733 734 
3 735 782 734 
3 783 782 735 
3 736 783 735 
3 784 783 736 
3 784 744 790 
3 784 736 744 
3 736 737 744 
3 729 739 744 
3 737 729 744 
3 740 751 745 
3 740 738 741 
3 740 741 751 
3 751 741 752 
3 742 753 741 
3 753 752 741 
3 791 742 787 
3 791 754 742 
3 754 753 742 
3 754 792 755 
3 791 792 754 
3 792 802 755 
3 756 788 743 
3 803 788 756 
3 793 743 789 
3 793 757 743 
3 757 756 743 
3 757 794 758 
3 793 794 757 
3 758 795 759 
3 794 795 758 
3 790 759 795 
3 790 744 759 
3 744 760 759 
3 739 746 760 
3 744 739 760 
3 745 751 747 
3 761 747 751 
3 761 751 770 
3 770 751 752 
3 753 771 752 
3 771 770 752 
3 754 772 753 
3 772 771 753 
3 755 773 754 
3 773 772 754 
3 804 755 802 
3 804 774 755 
3 774 773 755 
3 803 774 804 
3 803 756 774 
3 756 775 774 
3 757 776 756 
3 776 775 756 
3 748 762 776 
3 748 776 758 
3 758 776 757 
3 749 748 758 
3 759 749 758 
3 750 749 759 
3 760 750 759 
3 746 750 760 
3 761 770 763 
3 764 763 770 
3 771 764 770 
3 765 764 771 
3 772 765 771 
3 766 765 772 
3 773 766 772 
3 767 766 773 
3 774 767 773 
3 768 767 774 
3 775 768 774 
3 769 768 775 
3 776 769 775 
3 762 769 776 
3 777 785 779 
3 777 778 786 
3 785 777 786 
3 778 780 786 
3 785 796 787 
3 779 785 787 
3 786 797 785 
3 797 796 785 
3 780 781 798 
3 780 798 786 
3 786 798 797 
3 781 788 798 
3 782 799 789 
3 782 783 800 
3 799 782 800 
3 783 784 801 
3 800 783 801 
3 784 790 801 
3 787 796 791 
3 792 791 796 
3 797 792 796 
3 802 792 797 
3 802 797 805 
3 805 797 798 
3 788 803 805 
3 798 788 805 
3 789 799 793 
3 794 793 799 
3 800 794 799 
3 795 794 800 
3 801 795 800 
3 790 795 801 
3 802 805 804 
3 803 804 805 
