ply
format ascii 1.0
comment VCGLIB generated
element vertex 650
property float x
property float y
property float z
element face 1296
property list uchar int vertex_indices
end_header
-0.2926516 -0.7235474 1.852527 
-0.2928367 -0.7250745 1.850334 
-0.2932658 -0.7219448 1.84946 
-0.2972109 -0.7322088 1.865257 
-0.294068 -0.7252591 1.856963 
-0.2981003 -0.7355146 1.862431 
-0.2960631 -0.7324269 1.861462 
-0.2954715 -0.729079 1.861301 
-0.2935429 -0.7273024 1.852957 
-0.2935725 -0.7209265 1.854636 
-0.2933189 -0.7199998 1.85177 
-0.2959488 -0.7314143 1.857294 
-0.295634 -0.7162599 1.853902 
-0.2986408 -0.7114766 1.853982 
-0.294111 -0.727083 1.849991 
-0.2952479 -0.7173495 1.849128 
-0.294519 -0.724458 1.847989 
-0.2955785 -0.720708 1.84656 
-0.2961218 -0.7298115 1.851849 
-0.2972924 -0.713135 1.850935 
-0.2982218 -0.7197812 1.844268 
-0.3057142 -0.7388013 1.884806 
-0.3047357 -0.7436042 1.880938 
-0.3033808 -0.739254 1.88023 
-0.3045218 -0.7348241 1.881477 
-0.300167 -0.7333038 1.871331 
-0.3043986 -0.7443145 1.875914 
-0.3027095 -0.7410986 1.87707 
-0.3021965 -0.7367285 1.876585 
-0.2990431 -0.7363746 1.867279 
-0.2987319 -0.728819 1.868389 
-0.3007505 -0.7389139 1.866117 
-0.2969719 -0.7276307 1.864978 
-0.3018606 -0.7399541 1.87171 
-0.2998927 -0.7231212 1.867663 
-0.3031766 -0.7165987 1.86817 
-0.3024404 -0.7386683 1.86212 
-0.2963244 -0.7238818 1.862161 
-0.2992935 -0.7355866 1.858534 
-0.2958568 -0.7194548 1.858387 
-0.3000896 -0.7124762 1.859117 
-0.2991634 -0.7180884 1.863459 
-0.3024392 -0.7133818 1.864626 
-0.3000767 -0.7333649 1.854232 
-0.3016232 -0.7083218 1.85542 
-0.3025964 -0.7366862 1.857709 
-0.3042633 -0.7052453 1.854085 
-0.2997647 -0.7301626 1.850053 
-0.3012723 -0.7087259 1.851011 
-0.2971745 -0.7272723 1.848289 
-0.2983746 -0.7234001 1.845361 
-0.298625 -0.7131375 1.847667 
-0.3042207 -0.7054149 1.851574 
-0.300622 -0.7205966 1.843234 
-0.2977223 -0.7168932 1.845502 
-0.301327 -0.7169783 1.8432 
-0.302374 -0.7227758 1.843719 
-0.3005422 -0.713853 1.844867 
-0.3085597 -0.7404688 1.889491 
-0.3108906 -0.7485038 1.892468 
-0.3102796 -0.7437841 1.892062 
-0.3062911 -0.7437326 1.88554 
-0.3083494 -0.7359739 1.888634 
-0.3069228 -0.7476136 1.883652 
-0.3079908 -0.7329164 1.886344 
-0.3111272 -0.7585047 1.887721 
-0.3100507 -0.7532251 1.889485 
-0.3084576 -0.7473967 1.888252 
-0.3096751 -0.7333695 1.889404 
-0.3079592 -0.7485593 1.879107 
-0.3070018 -0.7300595 1.882712 
-0.31012 -0.753646 1.884226 
-0.3087991 -0.7251465 1.881125 
-0.3074058 -0.7465459 1.874712 
-0.3038889 -0.7303334 1.877565 
-0.3051012 -0.7439734 1.872212 
-0.3019656 -0.7267551 1.872554 
-0.305995 -0.7195969 1.873284 
-0.3056028 -0.7246417 1.876637 
-0.3089215 -0.7212657 1.878114 
-0.3049845 -0.7418641 1.867731 
-0.3070042 -0.7144371 1.87099 
-0.3064058 -0.7115738 1.867999 
-0.308789 -0.7119902 1.870875 
-0.3073418 -0.7406903 1.863935 
-0.305059 -0.7091317 1.863584 
-0.3060148 -0.7057051 1.85921 
-0.3079313 -0.7061241 1.863324 
-0.3072105 -0.7383204 1.859691 
-0.3080877 -0.702634 1.85549 
-0.3061327 -0.7352444 1.855198 
-0.3090143 -0.7369121 1.857373 
-0.3114194 -0.7006455 1.856035 
-0.3042451 -0.7315904 1.850932 
-0.3064548 -0.7037722 1.852526 
-0.3037576 -0.7267768 1.846708 
-0.3062717 -0.7059915 1.849567 
-0.3070565 -0.7298146 1.849149 
-0.3060177 -0.7226152 1.843565 
-0.3027917 -0.7102915 1.84667 
-0.3047106 -0.7194203 1.842385 
-0.3056206 -0.7156163 1.842316 
-0.3042685 -0.7128822 1.843758 
-0.3087436 -0.7201471 1.842642 
-0.3144253 -0.7498807 1.895914 
-0.3136239 -0.7435857 1.895225 
-0.3192209 -0.7801629 1.895868 
-0.311517 -0.7530059 1.892756 
-0.3122844 -0.7391067 1.893666 
-0.3123897 -0.7616775 1.889491 
-0.3115438 -0.7574142 1.891124 
-0.3120287 -0.7344303 1.891943 
-0.3201787 -0.7854207 1.894 
-0.3185961 -0.7808541 1.891446 
-0.3171533 -0.7741914 1.89284 
-0.315973 -0.7674969 1.893477 
-0.314215 -0.7614324 1.892989 
-0.3132479 -0.755599 1.89414 
-0.3143009 -0.7357336 1.894694 
-0.3125283 -0.7624539 1.887507 
-0.3118148 -0.7305073 1.88964 
-0.3135189 -0.7611765 1.88483 
-0.311677 -0.7269569 1.88636 
-0.318317 -0.7761927 1.88833 
-0.3153523 -0.7672953 1.888458 
-0.3141194 -0.7275797 1.889717 
-0.3140432 -0.7575335 1.881734 
-0.3128942 -0.7229701 1.884076 
-0.3131612 -0.7532384 1.879272 
-0.3133804 -0.7201132 1.881482 
-0.3168401 -0.7610778 1.881736 
-0.3153937 -0.72087 1.884283 
-0.3125721 -0.7488744 1.87522 
-0.3118075 -0.7172021 1.877372 
-0.3093044 -0.7452689 1.871395 
-0.3115693 -0.7131853 1.873637 
-0.3146972 -0.7142071 1.876958 
-0.3110843 -0.7428113 1.867437 
-0.3106686 -0.7095922 1.870006 
-0.309103 -0.7074454 1.866311 
-0.3130566 -0.7064912 1.868182 
-0.3125494 -0.7399979 1.863339 
-0.3123448 -0.7038444 1.863595 
-0.3124457 -0.7374711 1.859406 
-0.3109263 -0.7015744 1.858729 
-0.3151882 -0.7384306 1.861917 
-0.3111661 -0.7352782 1.855951 
-0.313463 -0.6997693 1.857729 
-0.3108383 -0.7318224 1.852211 
-0.3144423 -0.700106 1.85575 
-0.3140262 -0.7335765 1.855047 
-0.3104198 -0.72767 1.848095 
-0.3107942 -0.7024137 1.85288 
-0.3114234 -0.7228509 1.845004 
-0.312348 -0.7055612 1.848807 
-0.3142491 -0.7253987 1.84739 
-0.3122325 -0.7186384 1.842901 
-0.3077996 -0.7091116 1.845698 
-0.3096297 -0.7164717 1.842147 
-0.3088968 -0.7125775 1.843112 
-0.3139298 -0.7158283 1.842761 
-0.3219472 -0.7804018 1.899443 
-0.3278352 -0.7981601 1.903588 
-0.3261128 -0.7939473 1.902969 
-0.3249001 -0.7888814 1.90248 
-0.3219493 -0.7859082 1.898599 
-0.3207082 -0.7767802 1.898554 
-0.3229006 -0.7900468 1.896118 
-0.3187298 -0.7748901 1.896583 
-0.3181909 -0.7698079 1.896433 
-0.3175998 -0.7632901 1.896737 
-0.3169479 -0.7558008 1.897291 
-0.3186273 -0.7494052 1.899088 
-0.3189948 -0.7434577 1.89877 
-0.317206 -0.7374657 1.896664 
-0.3261436 -0.7952983 1.899138 
-0.3237057 -0.791257 1.899867 
-0.3212508 -0.7718241 1.899134 
-0.3214112 -0.7654306 1.899497 
-0.3213954 -0.7586014 1.900014 
-0.3217637 -0.7520106 1.900743 
-0.3224829 -0.7463069 1.901184 
-0.324029 -0.7418942 1.901204 
-0.3223435 -0.7879727 1.892427 
-0.3168369 -0.7328145 1.895046 
-0.3204729 -0.7847901 1.890736 
-0.3204311 -0.7816482 1.888295 
-0.3170378 -0.7286941 1.892471 
-0.3198692 -0.7299706 1.895248 
-0.3212216 -0.7782114 1.885966 
-0.3166392 -0.7249975 1.889333 
-0.3208039 -0.7724168 1.884587 
-0.3182327 -0.7656635 1.883383 
-0.3159277 -0.7224929 1.886345 
-0.3234634 -0.7814286 1.886296 
-0.3197897 -0.7217664 1.888285 
-0.3216243 -0.762456 1.880432 
-0.3196508 -0.7186592 1.884565 
-0.3187533 -0.7571424 1.879145 
-0.3178307 -0.7521229 1.876547 
-0.3168985 -0.7157208 1.879778 
-0.3177538 -0.7489697 1.874274 
-0.3186281 -0.7115319 1.876309 
-0.3167194 -0.7456249 1.871347 
-0.3156056 -0.7085055 1.871722 
-0.3202152 -0.7476875 1.873289 
-0.3169519 -0.7418016 1.86712 
-0.3178117 -0.7049038 1.868215 
-0.3186378 -0.7389383 1.864175 
-0.3207702 -0.7404622 1.866839 
-0.3173575 -0.7367877 1.860755 
-0.3196183 -0.7018872 1.863464 
-0.3155744 -0.7349686 1.857488 
-0.3150541 -0.7004645 1.860232 
-0.3198914 -0.7344251 1.859046 
-0.3189891 -0.7313982 1.855046 
-0.3158394 -0.699408 1.858042 
-0.3161226 -0.7276823 1.850121 
-0.3179325 -0.7000235 1.85705 
-0.3183887 -0.7000181 1.859547 
-0.3192614 -0.7225679 1.847617 
-0.3175232 -0.702328 1.853352 
-0.3172384 -0.7174311 1.84462 
-0.3190102 -0.7068595 1.848363 
-0.3167376 -0.7136445 1.8438 
-0.3130603 -0.7093548 1.845152 
-0.3132775 -0.7129807 1.843074 
-0.3168717 -0.7107087 1.844842 
-0.3298959 -0.7998548 1.906189 
-0.3294696 -0.7963852 1.90641 
-0.328218 -0.7910954 1.90536 
-0.3317592 -0.7995268 1.908133 
-0.3324338 -0.7969093 1.908494 
-0.3299311 -0.8008214 1.904321 
-0.3275175 -0.7866377 1.904577 
-0.328417 -0.7992306 1.901635 
-0.3256602 -0.7825525 1.902381 
-0.3251574 -0.7751206 1.901337 
-0.3259171 -0.7674431 1.901576 
-0.3260942 -0.760588 1.901933 
-0.3261752 -0.7540891 1.902353 
-0.3262984 -0.748242 1.9026 
-0.3263202 -0.7439312 1.902431 
-0.3298618 -0.7828984 1.904841 
-0.3293602 -0.7980977 1.899145 
-0.3286828 -0.7400951 1.901991 
-0.3281034 -0.7956831 1.89685 
-0.3243726 -0.7370274 1.899608 
-0.3217435 -0.7322758 1.897003 
-0.3271699 -0.7915105 1.893702 
-0.3242506 -0.727451 1.894947 
-0.3242851 -0.785623 1.889108 
-0.3218545 -0.7239663 1.891302 
-0.3280507 -0.7822813 1.88601 
-0.3249224 -0.7200636 1.888701 
-0.3257789 -0.7772552 1.884151 
-0.3260849 -0.7720878 1.882384 
-0.3238333 -0.767646 1.881594 
-0.3279373 -0.7633414 1.87959 
-0.3275722 -0.7162707 1.885184 
-0.3257988 -0.7583789 1.878317 
-0.3238179 -0.7536327 1.876686 
-0.3220271 -0.7497722 1.874739 
-0.323307 -0.7138461 1.880903 
-0.3244755 -0.746034 1.872419 
-0.3261963 -0.7098336 1.877056 
-0.3222272 -0.7423892 1.869145 
-0.3219339 -0.7071913 1.872656 
-0.3250885 -0.7388002 1.866286 
-0.3241951 -0.7039983 1.868498 
-0.3225348 -0.7360615 1.862295 
-0.3249816 -0.7328092 1.859341 
-0.3258851 -0.7022579 1.864516 
-0.3274454 -0.7290154 1.855816 
-0.3234055 -0.7014181 1.858862 
-0.3233637 -0.7261511 1.851666 
-0.3275852 -0.7211561 1.849386 
-0.3247207 -0.7037457 1.853093 
-0.3248272 -0.7166053 1.847109 
-0.3217305 -0.7117149 1.84626 
-0.3263603 -0.7070684 1.84956 
-0.3300377 -0.7045717 1.852517 
-0.3339804 -0.8007035 1.908741 
-0.3338057 -0.7987634 1.909136 
-0.332241 -0.8014842 1.906909 
-0.3352149 -0.795751 1.908588 
-0.3327985 -0.7922359 1.907439 
-0.3312965 -0.7868613 1.906134 
-0.334531 -0.8017291 1.907893 
-0.3321867 -0.801713 1.904646 
-0.3345885 -0.7814421 1.905418 
-0.3309667 -0.8005282 1.902089 
-0.3317446 -0.7766075 1.903779 
-0.3314975 -0.7689692 1.902976 
-0.3314355 -0.7620108 1.903031 
-0.3311535 -0.7556647 1.903312 
-0.3310656 -0.7497486 1.903435 
-0.3306312 -0.7443549 1.903107 
-0.3331729 -0.7985504 1.899759 
-0.3348604 -0.7399526 1.902406 
-0.3313459 -0.7954987 1.896383 
-0.332181 -0.7352587 1.900628 
-0.3285159 -0.7310003 1.898115 
-0.3339848 -0.791428 1.893077 
-0.3322892 -0.7260739 1.895634 
-0.3315923 -0.7865379 1.889024 
-0.3285446 -0.7226891 1.892319 
-0.3330177 -0.7821764 1.885931 
-0.3318058 -0.7187765 1.889036 
-0.3318617 -0.7784986 1.884157 
-0.3313253 -0.7733964 1.882461 
-0.3300413 -0.7682149 1.880881 
-0.3360338 -0.7795053 1.885074 
-0.3344333 -0.7634767 1.879549 
-0.3347149 -0.7153031 1.885268 
-0.3325927 -0.7588055 1.878135 
-0.3306389 -0.7540629 1.87664 
-0.3282164 -0.7497162 1.874799 
-0.3305721 -0.7125284 1.881305 
-0.3324342 -0.7454037 1.872745 
-0.3334297 -0.7091592 1.87704 
-0.3290673 -0.7417754 1.869852 
-0.3287711 -0.7063905 1.872841 
-0.3328066 -0.7377867 1.866943 
-0.3306491 -0.7038671 1.868202 
-0.3289676 -0.7349928 1.863251 
-0.3318528 -0.7314187 1.859764 
-0.3311089 -0.7024768 1.862956 
-0.3345909 -0.7278248 1.85605 
-0.3316275 -0.7028551 1.857052 
-0.3308476 -0.724803 1.852578 
-0.3353705 -0.7045046 1.853311 
-0.3347182 -0.7206378 1.850015 
-0.3318796 -0.706548 1.850535 
-0.3325059 -0.7162032 1.848308 
-0.3304068 -0.7108331 1.848302 
-0.3358879 -0.7987421 1.908771 
-0.3357315 -0.8007314 1.908456 
-0.3383262 -0.7951307 1.907154 
-0.3360196 -0.8010234 1.9072 
-0.3377513 -0.7908891 1.907015 
-0.3362842 -0.7862417 1.906456 
-0.3374737 -0.7987757 1.907138 
-0.3343936 -0.8016407 1.905993 
-0.3398294 -0.7806163 1.904741 
-0.3340395 -0.8006781 1.903113 
-0.3386374 -0.7755136 1.9039 
-0.3377752 -0.7695106 1.903173 
-0.3373546 -0.7628765 1.903024 
-0.3367003 -0.7564578 1.903308 
-0.3354892 -0.7514107 1.903588 
-0.3367076 -0.7456083 1.903244 
-0.3370187 -0.7993526 1.904532 
-0.3401389 -0.7949731 1.90408 
-0.3362878 -0.7984058 1.901227 
-0.340382 -0.7407647 1.902246 
-0.3372294 -0.7944806 1.897352 
-0.3402917 -0.735419 1.900631 
-0.3362623 -0.7301859 1.898443 
-0.3388967 -0.7962353 1.901433 
-0.3425456 -0.7442896 1.902337 
-0.3386588 -0.7905753 1.893415 
-0.3399623 -0.7255257 1.895368 
-0.337712 -0.7875544 1.890636 
-0.337714 -0.7827238 1.887607 
-0.3357866 -0.7218159 1.892445 
-0.3410574 -0.7880103 1.892333 
-0.3395206 -0.77838 1.885895 
-0.3387496 -0.7182252 1.888768 
-0.3375143 -0.7748173 1.883894 
-0.3372614 -0.7681155 1.881591 
-0.3420505 -0.7752092 1.885967 
-0.339615 -0.7628379 1.880004 
-0.3413415 -0.7151983 1.884891 
-0.3388254 -0.7589967 1.878627 
-0.3376111 -0.7542473 1.877031 
-0.3354041 -0.7495624 1.875067 
-0.3376848 -0.7121873 1.881159 
-0.3430642 -0.7597886 1.879797 
-0.3398991 -0.7450668 1.873134 
-0.3411324 -0.709213 1.876367 
-0.3365933 -0.7411396 1.870234 
-0.335595 -0.7062399 1.872357 
-0.34029 -0.7372191 1.867008 
-0.3377209 -0.7041007 1.867056 
-0.3360633 -0.7340891 1.863482 
-0.3412462 -0.7063424 1.87158 
-0.3388444 -0.7306597 1.859483 
-0.3368494 -0.7029178 1.861601 
-0.3411008 -0.7273498 1.85541 
-0.3395534 -0.7032736 1.857495 
-0.3375122 -0.7242562 1.85259 
-0.3419755 -0.7045785 1.853053 
-0.3408516 -0.7208866 1.849706 
-0.3371512 -0.7072861 1.85017 
-0.3393557 -0.7167403 1.848205 
-0.3383258 -0.7117465 1.848188 
-0.3416401 -0.7899483 1.904336 
-0.3409245 -0.7852377 1.904965 
-0.3425075 -0.791294 1.902355 
-0.3433969 -0.7802382 1.902865 
-0.3433904 -0.7755329 1.902241 
-0.3432879 -0.7698517 1.901714 
-0.3431797 -0.7635575 1.901539 
-0.3426477 -0.7570059 1.901999 
-0.3413775 -0.7501952 1.902629 
-0.3439904 -0.7877179 1.900453 
-0.3442186 -0.7836418 1.901739 
-0.3417847 -0.7918806 1.899655 
-0.3465187 -0.7460253 1.901014 
-0.3415586 -0.7899378 1.89522 
-0.3468793 -0.7398089 1.900459 
-0.3468112 -0.7341285 1.899379 
-0.3439013 -0.7300145 1.897863 
-0.3441452 -0.7868994 1.896425 
-0.3455998 -0.782242 1.897268 
-0.3460613 -0.7767168 1.898881 
-0.3464275 -0.7710275 1.899364 
-0.3480077 -0.7645964 1.898209 
-0.3480308 -0.7579362 1.899257 
-0.3476451 -0.7514327 1.90016 
-0.3432308 -0.7865036 1.893301 
-0.3480822 -0.7255221 1.893983 
-0.3416899 -0.7845329 1.890642 
-0.3428997 -0.7790912 1.888845 
-0.3428211 -0.7215085 1.891753 
-0.3446327 -0.7825826 1.893039 
-0.3464158 -0.7760416 1.892749 
-0.348705 -0.7690198 1.894681 
-0.3450094 -0.7738211 1.888048 
-0.3454827 -0.7181764 1.887842 
-0.3434751 -0.7696856 1.884791 
-0.3435529 -0.7636739 1.881823 
-0.3477541 -0.7691066 1.889103 
-0.3482747 -0.7213206 1.890486 
-0.3474182 -0.7587057 1.881295 
-0.3465499 -0.7154819 1.884239 
-0.3445638 -0.7548531 1.87846 
-0.3425821 -0.7495496 1.875778 
-0.3443883 -0.7128284 1.881042 
-0.347062 -0.7449605 1.873898 
-0.347654 -0.7110161 1.877541 
-0.3440504 -0.7408832 1.870483 
-0.348295 -0.7370311 1.866683 
-0.3472938 -0.7079328 1.872802 
-0.3431753 -0.7336867 1.863001 
-0.3440452 -0.7053277 1.8686 
-0.3462517 -0.7303761 1.858207 
-0.3439333 -0.7037456 1.863224 
-0.3490494 -0.7336309 1.86222 
-0.3463866 -0.7270169 1.853956 
-0.3475041 -0.703206 1.857002 
-0.3433389 -0.7242545 1.851799 
-0.3474259 -0.7040747 1.852225 
-0.3462578 -0.7213851 1.848801 
-0.3452278 -0.7071449 1.849073 
-0.3445755 -0.7180896 1.847621 
-0.3458008 -0.7132587 1.846737 
-0.3493845 -0.704434 1.8503 
-0.3519078 -0.7127864 1.844657 
-0.3518183 -0.7585123 1.895535 
-0.3524439 -0.7527862 1.896551 
-0.352877 -0.7450227 1.897556 
-0.3529913 -0.7388223 1.898349 
-0.3509229 -0.7355701 1.898837 
-0.3512089 -0.7311561 1.896974 
-0.35117 -0.7627726 1.894037 
-0.3553728 -0.7279914 1.893431 
-0.3535613 -0.7584894 1.891385 
-0.3547169 -0.7545314 1.893014 
-0.3569481 -0.7492359 1.89252 
-0.3563963 -0.7315434 1.895553 
-0.3510436 -0.7633944 1.890136 
-0.3540528 -0.7228789 1.889658 
-0.3487054 -0.7628805 1.885143 
-0.3504164 -0.7195107 1.887962 
-0.3531469 -0.7582177 1.886975 
-0.3563209 -0.7533571 1.888687 
-0.351454 -0.7574356 1.883379 
-0.3496916 -0.7171862 1.88548 
-0.3509727 -0.7537698 1.880574 
-0.3494493 -0.7493641 1.877279 
-0.3515225 -0.7146041 1.881276 
-0.3548137 -0.7535902 1.883957 
-0.3541273 -0.7187144 1.88538 
-0.3537737 -0.7447078 1.875441 
-0.3535184 -0.7110097 1.875697 
-0.351055 -0.7410341 1.871266 
-0.3571309 -0.7139986 1.878386 
-0.3545394 -0.7383482 1.868542 
-0.3532364 -0.7080059 1.871289 
-0.3496466 -0.7056639 1.867751 
-0.3551172 -0.7352036 1.863763 
-0.3518933 -0.7038789 1.86261 
-0.3522984 -0.7320756 1.859229 
-0.3531262 -0.7283933 1.853852 
-0.3543834 -0.7026026 1.85812 
-0.3485628 -0.7245312 1.850713 
-0.3497179 -0.7220216 1.848253 
-0.3535816 -0.7027983 1.852612 
-0.3513272 -0.7182356 1.845953 
-0.3518499 -0.7051589 1.848285 
-0.3532931 -0.7235466 1.84862 
-0.3556508 -0.7142599 1.843462 
-0.3509488 -0.7088554 1.845914 
-0.3566013 -0.709882 1.843682 
-0.3578067 -0.7172001 1.843512 
-0.3552732 -0.7063298 1.845706 
-0.3572694 -0.739409 1.895971 
-0.3556062 -0.7349296 1.896881 
-0.3594987 -0.7429938 1.89286 
-0.3583719 -0.7332414 1.895331 
-0.3603645 -0.7462416 1.889677 
-0.3601457 -0.73127 1.892992 
-0.360375 -0.7391964 1.893762 
-0.3601316 -0.7357458 1.894156 
-0.3591413 -0.7491127 1.888367 
-0.3610598 -0.7266883 1.889163 
-0.3611696 -0.7463125 1.886032 
-0.3638344 -0.7305009 1.889717 
-0.3583934 -0.7496949 1.884844 
-0.3599468 -0.7215413 1.885302 
-0.3557926 -0.74875 1.880199 
-0.3584546 -0.7171977 1.881566 
-0.3602065 -0.7463239 1.882297 
-0.3600392 -0.7434778 1.877921 
-0.3626177 -0.7151283 1.877286 
-0.3573217 -0.7408406 1.872567 
-0.3589096 -0.7123086 1.87559 
-0.3600801 -0.7376471 1.868605 
-0.358207 -0.7097247 1.872347 
-0.3570588 -0.7063476 1.867316 
-0.3623592 -0.7119448 1.873708 
-0.3629815 -0.7347824 1.863068 
-0.3585866 -0.703505 1.861746 
-0.3580275 -0.7324057 1.858383 
-0.3611757 -0.7300388 1.853778 
-0.3603317 -0.7015597 1.856514 
-0.363383 -0.7326295 1.857617 
-0.3644284 -0.6999178 1.853804 
-0.3595031 -0.7259463 1.849296 
-0.3607997 -0.7011839 1.85154 
-0.3581944 -0.7212605 1.84556 
-0.364635 -0.7000383 1.851113 
-0.3630184 -0.718526 1.843158 
-0.3575579 -0.7035372 1.848145 
-0.3612393 -0.7134993 1.842368 
-0.3619216 -0.7090198 1.842862 
-0.360091 -0.7059084 1.844887 
-0.3629641 -0.7385757 1.890662 
-0.363678 -0.7339991 1.890694 
-0.3626108 -0.7427992 1.888082 
-0.3666434 -0.7322447 1.886908 
-0.3658209 -0.7287017 1.886839 
-0.3654162 -0.7391121 1.885527 
-0.3659279 -0.7358096 1.887424 
-0.3633125 -0.7427166 1.882837 
-0.3662885 -0.7247544 1.88371 
-0.3644369 -0.7195926 1.880834 
-0.3661609 -0.7391801 1.881205 
-0.3686417 -0.7348375 1.881773 
-0.3642643 -0.7407065 1.878567 
-0.3678196 -0.7176242 1.876931 
-0.3628348 -0.7396039 1.874049 
-0.3668395 -0.7377363 1.876825 
-0.3664461 -0.7363138 1.870113 
-0.3677058 -0.7136279 1.872781 
-0.3633437 -0.7093365 1.869763 
-0.3636626 -0.7057834 1.864715 
-0.3685583 -0.7344149 1.864744 
-0.3636529 -0.702969 1.860427 
-0.3664967 -0.7013317 1.857039 
-0.3683528 -0.704773 1.861283 
-0.3682503 -0.7329592 1.859259 
-0.3672329 -0.6997032 1.854187 
-0.3661281 -0.731191 1.854841 
-0.3692041 -0.7008495 1.854936 
-0.3667625 -0.7277511 1.850474 
-0.3664951 -0.6993812 1.85239 
-0.3645722 -0.7231342 1.845848 
-0.3668642 -0.7003345 1.85053 
-0.3686846 -0.700274 1.852453 
-0.3687086 -0.7199335 1.843441 
-0.3642153 -0.7025472 1.847916 
-0.3673549 -0.7154812 1.842164 
-0.3664368 -0.7107126 1.842478 
-0.3652675 -0.7064226 1.844176 
-0.3693892 -0.7296126 1.882807 
-0.3711817 -0.7316169 1.880337 
-0.3710468 -0.7258519 1.879961 
-0.3717838 -0.7325159 1.877838 
-0.369875 -0.7216763 1.878708 
-0.3729693 -0.729119 1.87765 
-0.3702089 -0.7346547 1.8749 
-0.372789 -0.7183743 1.873695 
-0.3734717 -0.7315795 1.873207 
-0.3759671 -0.7278632 1.871973 
-0.3744397 -0.7240242 1.875109 
-0.3714714 -0.733631 1.86883 
-0.3729523 -0.7141325 1.869776 
-0.3697219 -0.709542 1.866569 
-0.375534 -0.7303127 1.866828 
-0.3723235 -0.7325962 1.862973 
-0.3738445 -0.708023 1.860503 
-0.3709046 -0.7033715 1.857233 
-0.3755677 -0.7301159 1.860318 
-0.3725111 -0.731639 1.858416 
-0.3714313 -0.7026253 1.853383 
-0.3705241 -0.7304896 1.854706 
-0.3743659 -0.7296535 1.855889 
-0.3739883 -0.7056549 1.855506 
-0.3737169 -0.72698 1.851326 
-0.3696007 -0.7026596 1.849505 
-0.3707761 -0.7238514 1.846569 
-0.3741601 -0.7063342 1.850855 
-0.3735657 -0.7203549 1.844349 
-0.3683581 -0.704625 1.846115 
-0.3717076 -0.7172194 1.842721 
-0.372007 -0.7130432 1.843221 
-0.3700083 -0.7080712 1.844306 
-0.3746431 -0.7098395 1.846447 
-0.3716951 -0.7058539 1.847015 
-0.3779691 -0.7240847 1.869927 
-0.3767759 -0.7207935 1.871299 
-0.3781137 -0.7268996 1.867404 
-0.3766053 -0.7170246 1.868868 
-0.3755239 -0.7126938 1.865378 
-0.3797028 -0.7238143 1.864777 
-0.3790821 -0.7203293 1.867052 
-0.3783739 -0.7272088 1.862436 
-0.377709 -0.7122822 1.860898 
-0.3801465 -0.7234687 1.859013 
-0.3804613 -0.7198025 1.861648 
-0.3788864 -0.7161763 1.863954 
-0.3776405 -0.7267292 1.856006 
-0.3772309 -0.710161 1.855451 
-0.3798507 -0.722621 1.853428 
-0.3807287 -0.719282 1.855863 
-0.3798074 -0.7153389 1.858366 
-0.3776778 -0.7244646 1.851043 
-0.3772787 -0.7105914 1.850226 
-0.3756965 -0.723096 1.847464 
-0.3778253 -0.7130918 1.84781 
-0.3787357 -0.7212493 1.84894 
-0.3801574 -0.7191113 1.851219 
-0.3794832 -0.7148592 1.852088 
-0.3768808 -0.7199066 1.845845 
-0.3761738 -0.7138904 1.845193 
-0.3752751 -0.7169548 1.844111 
-0.3784253 -0.7170387 1.847383 
3 0 4 8 
3 4 0 9 
3 1 0 8 
3 14 1 8 
3 10 9 0 
3 10 0 2 
3 2 0 1 
3 10 2 15 
3 1 14 16 
3 2 1 16 
3 17 2 16 
3 15 2 17 
3 3 25 29 
3 25 3 30 
3 5 31 36 
3 29 31 5 
3 29 5 3 
3 3 5 6 
3 32 30 3 
3 32 3 7 
3 7 3 6 
3 32 7 37 
3 5 36 38 
3 38 43 11 
3 38 11 5 
3 5 11 6 
3 4 11 8 
3 4 7 11 
3 7 6 11 
3 9 12 39 
3 4 9 39 
3 4 39 37 
3 4 37 7 
3 12 13 40 
3 39 12 40 
3 40 13 44 
3 18 11 43 
3 47 18 43 
3 8 18 14 
3 11 18 8 
3 9 10 12 
3 15 12 10 
3 15 19 12 
3 19 13 12 
3 48 44 13 
3 19 48 13 
3 18 47 49 
3 14 18 49 
3 14 49 16 
3 16 49 50 
3 20 50 53 
3 20 17 50 
3 17 16 50 
3 17 20 54 
3 15 17 54 
3 15 54 51 
3 15 51 19 
3 48 19 51 
3 20 53 55 
3 54 20 55 
3 21 58 61 
3 58 21 62 
3 22 63 69 
3 61 63 22 
3 61 22 21 
3 21 22 23 
3 64 62 21 
3 64 21 24 
3 24 21 23 
3 64 24 70 
3 26 22 69 
3 73 26 69 
3 23 22 27 
3 27 22 26 
3 24 23 28 
3 28 23 27 
3 74 70 24 
3 28 74 24 
3 26 73 75 
3 75 80 33 
3 75 33 26 
3 26 33 27 
3 25 33 29 
3 25 28 33 
3 28 27 33 
3 30 34 76 
3 25 30 76 
3 25 76 74 
3 25 74 28 
3 34 35 77 
3 76 34 77 
3 77 35 81 
3 31 33 80 
3 31 80 36 
3 36 80 84 
3 29 33 31 
3 30 32 34 
3 37 34 32 
3 37 41 34 
3 41 35 34 
3 82 81 35 
3 82 35 42 
3 42 35 41 
3 82 42 85 
3 45 38 36 
3 45 36 88 
3 88 36 84 
3 38 45 43 
3 37 39 41 
3 40 41 39 
3 42 41 40 
3 44 46 86 
3 40 44 86 
3 40 86 85 
3 40 85 42 
3 86 46 89 
3 45 88 90 
3 90 43 45 
3 90 93 43 
3 93 47 43 
3 46 48 52 
3 44 48 46 
3 94 89 46 
3 52 94 46 
3 47 93 95 
3 49 47 95 
3 56 95 98 
3 56 50 95 
3 50 49 95 
3 50 56 53 
3 51 54 57 
3 51 57 99 
3 48 51 99 
3 48 99 96 
3 48 96 52 
3 94 52 96 
3 56 98 100 
3 53 56 100 
3 53 100 55 
3 55 100 101 
3 57 54 55 
3 57 55 102 
3 102 55 101 
3 99 57 102 
3 59 104 107 
3 59 60 105 
3 104 59 105 
3 105 60 108 
3 65 109 119 
3 65 66 110 
3 109 65 110 
3 107 110 66 
3 107 66 59 
3 59 66 67 
3 58 67 61 
3 58 60 67 
3 60 59 67 
3 62 68 111 
3 58 62 111 
3 58 111 108 
3 58 108 60 
3 111 68 120 
3 65 119 121 
3 121 126 71 
3 121 71 65 
3 65 71 66 
3 63 71 69 
3 63 67 71 
3 67 66 71 
3 61 67 63 
3 62 64 68 
3 70 72 122 
3 64 70 122 
3 64 122 120 
3 64 120 68 
3 122 72 127 
3 71 126 128 
3 128 69 71 
3 128 132 69 
3 132 73 69 
3 72 74 78 
3 70 74 72 
3 129 127 72 
3 129 72 79 
3 79 72 78 
3 129 79 133 
3 73 132 134 
3 75 73 134 
3 134 80 75 
3 137 80 134 
3 74 76 78 
3 77 78 76 
3 79 78 77 
3 81 83 135 
3 77 81 135 
3 77 135 133 
3 77 133 79 
3 135 83 138 
3 80 137 84 
3 137 141 84 
3 81 82 83 
3 85 87 139 
3 82 85 139 
3 82 139 138 
3 82 138 83 
3 139 87 142 
3 143 91 88 
3 143 88 141 
3 141 88 84 
3 143 146 91 
3 85 86 87 
3 89 92 144 
3 86 89 144 
3 86 144 142 
3 86 142 87 
3 144 92 147 
3 88 91 90 
3 93 148 97 
3 90 148 93 
3 90 146 148 
3 90 91 146 
3 148 151 97 
3 92 152 149 
3 92 89 152 
3 89 94 152 
3 147 92 149 
3 93 97 95 
3 98 153 103 
3 95 153 98 
3 95 151 153 
3 95 97 151 
3 153 156 103 
3 96 157 154 
3 99 157 96 
3 152 94 96 
3 154 152 96 
3 98 103 100 
3 103 156 158 
3 103 158 100 
3 100 158 101 
3 102 101 159 
3 101 158 159 
3 157 99 102 
3 159 157 102 
3 106 161 165 
3 161 106 166 
3 112 167 183 
3 165 167 112 
3 165 112 106 
3 106 112 113 
3 168 166 106 
3 168 106 114 
3 114 106 113 
3 114 115 169 
3 168 114 169 
3 115 116 170 
3 169 115 170 
3 116 117 171 
3 170 116 171 
3 117 107 104 
3 117 104 171 
3 171 104 172 
3 105 173 104 
3 104 173 172 
3 108 118 174 
3 108 174 105 
3 105 174 173 
3 174 118 184 
3 112 183 185 
3 113 112 185 
3 186 113 185 
3 186 189 123 
3 186 123 113 
3 113 123 114 
3 115 114 124 
3 124 114 123 
3 109 124 119 
3 109 116 124 
3 116 115 124 
3 110 116 109 
3 117 116 110 
3 107 117 110 
3 108 111 118 
3 120 125 187 
3 111 120 187 
3 111 187 184 
3 111 184 118 
3 187 125 190 
3 123 189 191 
3 124 123 191 
3 192 124 191 
3 130 192 196 
3 121 192 130 
3 121 124 192 
3 121 119 124 
3 121 130 126 
3 120 122 125 
3 127 131 193 
3 122 127 193 
3 122 193 190 
3 122 190 125 
3 193 131 197 
3 130 196 198 
3 126 130 198 
3 126 198 128 
3 128 198 199 
3 199 132 128 
3 201 132 199 
3 127 129 131 
3 133 136 200 
3 129 133 200 
3 129 200 197 
3 129 197 131 
3 200 136 202 
3 132 201 203 
3 134 132 203 
3 203 137 134 
3 206 137 203 
3 133 135 136 
3 138 140 204 
3 135 138 204 
3 135 204 202 
3 135 202 136 
3 204 140 207 
3 208 145 141 
3 208 141 206 
3 206 141 137 
3 208 210 145 
3 138 139 140 
3 140 139 142 
3 140 142 207 
3 207 142 211 
3 141 145 143 
3 146 212 150 
3 143 212 146 
3 143 210 212 
3 143 145 210 
3 212 215 150 
3 142 213 211 
3 144 213 142 
3 213 144 147 
3 216 213 147 
3 146 150 148 
3 151 217 155 
3 148 217 151 
3 148 215 217 
3 148 150 215 
3 217 220 155 
3 149 221 218 
3 152 221 149 
3 216 147 149 
3 218 216 149 
3 151 155 153 
3 156 222 160 
3 153 222 156 
3 153 220 222 
3 153 155 220 
3 222 224 160 
3 154 225 223 
3 157 225 154 
3 221 152 154 
3 223 221 154 
3 156 160 158 
3 160 224 226 
3 160 226 158 
3 158 226 159 
3 225 157 159 
3 226 225 159 
3 162 228 233 
3 162 163 229 
3 228 162 229 
3 163 164 230 
3 229 163 230 
3 230 164 234 
3 162 233 235 
3 235 244 175 
3 235 175 162 
3 162 175 163 
3 164 163 176 
3 176 163 175 
3 165 161 236 
3 165 236 164 
3 165 164 176 
3 234 164 236 
3 166 177 237 
3 166 237 161 
3 161 237 236 
3 177 178 238 
3 237 177 238 
3 178 179 239 
3 238 178 239 
3 179 180 240 
3 239 179 240 
3 180 181 241 
3 240 180 241 
3 181 182 242 
3 241 181 242 
3 242 182 245 
3 175 244 246 
3 167 249 183 
3 167 175 249 
3 167 176 175 
3 175 246 249 
3 165 176 167 
3 166 168 177 
3 169 177 168 
3 178 177 169 
3 170 178 169 
3 179 178 170 
3 171 179 170 
3 180 179 171 
3 172 180 171 
3 181 180 172 
3 173 181 172 
3 182 181 173 
3 182 247 245 
3 182 173 247 
3 173 174 247 
3 184 188 248 
3 184 248 174 
3 174 248 247 
3 248 188 250 
3 183 249 251 
3 185 183 251 
3 194 251 253 
3 194 186 251 
3 186 185 251 
3 186 194 189 
3 184 187 188 
3 190 195 252 
3 187 190 252 
3 187 252 250 
3 187 250 188 
3 252 195 254 
3 194 253 255 
3 189 194 255 
3 189 255 191 
3 191 255 256 
3 192 191 257 
3 191 256 257 
3 257 196 192 
3 258 196 257 
3 190 193 195 
3 195 193 197 
3 195 197 254 
3 254 197 259 
3 196 258 260 
3 198 196 260 
3 199 198 261 
3 198 260 261 
3 201 262 205 
3 201 199 262 
3 199 261 262 
3 262 264 205 
3 197 263 259 
3 200 263 197 
3 263 200 202 
3 265 263 202 
3 201 205 203 
3 206 266 209 
3 203 266 206 
3 203 264 266 
3 203 205 264 
3 266 268 209 
3 202 267 265 
3 204 267 202 
3 267 204 207 
3 269 267 207 
3 206 209 208 
3 210 270 214 
3 208 270 210 
3 208 268 270 
3 208 209 268 
3 270 271 214 
3 207 211 269 
3 269 211 272 
3 210 214 212 
3 214 215 212 
3 214 271 215 
3 271 273 215 
3 219 211 213 
3 219 274 211 
3 274 272 211 
3 213 216 219 
3 215 273 275 
3 217 215 275 
3 275 220 217 
3 276 220 275 
3 218 274 219 
3 218 221 274 
3 221 277 274 
3 216 218 219 
3 220 276 278 
3 222 220 278 
3 224 279 227 
3 224 222 279 
3 222 278 279 
3 227 223 225 
3 227 279 223 
3 279 280 223 
3 277 221 223 
3 280 277 223 
3 224 227 226 
3 225 226 227 
3 231 282 284 
3 231 232 283 
3 282 231 283 
3 283 232 285 
3 228 231 284 
3 228 284 233 
3 233 284 289 
3 229 231 228 
3 232 231 229 
3 232 286 285 
3 232 229 286 
3 229 230 286 
3 234 243 287 
3 234 287 230 
3 230 287 286 
3 287 243 290 
3 233 289 291 
3 235 233 291 
3 291 244 235 
3 298 244 291 
3 234 236 243 
3 243 292 290 
3 243 236 292 
3 236 237 292 
3 238 293 237 
3 237 293 292 
3 239 294 238 
3 238 294 293 
3 240 295 239 
3 239 295 294 
3 241 296 240 
3 240 296 295 
3 242 297 241 
3 241 297 296 
3 297 242 245 
3 299 297 245 
3 244 298 300 
3 246 244 300 
3 300 249 246 
3 303 249 300 
3 245 301 299 
3 247 301 245 
3 248 302 247 
3 247 302 301 
3 302 248 250 
3 304 302 250 
3 249 303 305 
3 251 249 305 
3 305 253 251 
3 307 253 305 
3 250 306 304 
3 252 306 250 
3 306 252 254 
3 308 306 254 
3 253 307 309 
3 255 253 309 
3 256 255 310 
3 255 309 310 
3 257 256 311 
3 256 310 311 
3 311 258 257 
3 313 258 311 
3 254 259 308 
3 308 259 314 
3 258 313 315 
3 260 258 315 
3 261 260 316 
3 260 315 316 
3 262 261 317 
3 261 316 317 
3 317 264 262 
3 319 264 317 
3 259 318 314 
3 263 318 259 
3 318 263 265 
3 320 318 265 
3 264 319 321 
3 266 264 321 
3 321 268 266 
3 323 268 321 
3 265 322 320 
3 267 322 265 
3 322 267 269 
3 324 322 269 
3 268 323 325 
3 270 268 325 
3 325 271 270 
3 326 271 325 
3 269 272 324 
3 324 272 327 
3 271 326 273 
3 326 328 273 
3 272 274 327 
3 327 274 329 
3 273 328 330 
3 275 273 330 
3 330 276 275 
3 332 276 330 
3 281 333 331 
3 281 331 329 
3 281 329 277 
3 277 329 274 
3 276 332 334 
3 278 276 334 
3 279 278 335 
3 278 334 335 
3 333 281 280 
3 333 280 335 
3 335 280 279 
3 277 280 281 
3 282 288 284 
3 337 288 282 
3 337 282 336 
3 336 282 283 
3 336 283 285 
3 338 336 285 
3 288 339 343 
3 288 343 284 
3 284 343 289 
3 337 339 288 
3 285 340 338 
3 286 340 285 
3 287 341 286 
3 286 341 340 
3 341 287 290 
3 344 341 290 
3 289 343 345 
3 291 289 345 
3 345 298 291 
3 354 298 345 
3 290 346 344 
3 292 346 290 
3 293 347 292 
3 292 347 346 
3 294 348 293 
3 293 348 347 
3 295 349 294 
3 294 349 348 
3 296 350 295 
3 295 350 349 
3 297 351 296 
3 296 351 350 
3 351 297 299 
3 355 351 299 
3 298 354 356 
3 300 298 356 
3 356 303 300 
3 361 303 356 
3 299 357 355 
3 301 357 299 
3 302 358 301 
3 301 358 357 
3 358 302 304 
3 362 358 304 
3 303 361 363 
3 305 303 363 
3 307 364 312 
3 307 305 364 
3 305 363 364 
3 364 367 312 
3 304 365 362 
3 306 365 304 
3 365 306 308 
3 368 365 308 
3 307 312 309 
3 312 367 369 
3 312 369 309 
3 309 369 310 
3 311 310 370 
3 310 369 370 
3 370 313 311 
3 372 313 370 
3 308 314 368 
3 368 314 373 
3 313 372 374 
3 315 313 374 
3 316 315 375 
3 315 374 375 
3 317 316 376 
3 316 375 376 
3 376 319 317 
3 379 319 376 
3 314 377 373 
3 318 377 314 
3 377 318 320 
3 380 377 320 
3 319 379 381 
3 321 319 381 
3 381 323 321 
3 383 323 381 
3 320 382 380 
3 322 382 320 
3 382 322 324 
3 384 382 324 
3 323 383 385 
3 325 323 385 
3 385 326 325 
3 387 326 385 
3 324 327 384 
3 384 327 388 
3 326 387 328 
3 387 389 328 
3 327 329 388 
3 388 329 390 
3 328 389 391 
3 330 328 391 
3 391 332 330 
3 393 332 391 
3 331 394 392 
3 333 394 331 
3 390 329 331 
3 392 390 331 
3 332 393 395 
3 334 332 395 
3 335 334 396 
3 334 395 396 
3 394 333 335 
3 396 394 335 
3 336 342 337 
3 336 338 342 
3 339 352 343 
3 339 337 342 
3 339 342 352 
3 352 342 353 
3 338 353 342 
3 338 397 353 
3 338 340 397 
3 397 399 353 
3 341 398 340 
3 340 398 397 
3 398 341 344 
3 400 398 344 
3 343 352 345 
3 354 345 352 
3 354 352 359 
3 359 352 353 
3 408 353 399 
3 359 353 408 
3 344 401 400 
3 346 401 344 
3 347 402 346 
3 346 402 401 
3 348 403 347 
3 347 403 402 
3 349 404 348 
3 348 404 403 
3 350 405 349 
3 349 405 404 
3 360 409 405 
3 360 405 351 
3 351 405 350 
3 351 355 360 
3 354 359 356 
3 361 410 366 
3 356 410 361 
3 356 408 410 
3 356 359 408 
3 410 421 366 
3 360 411 409 
3 355 411 360 
3 355 357 411 
3 357 412 411 
3 358 413 357 
3 357 413 412 
3 413 358 362 
3 422 413 362 
3 361 366 363 
3 366 421 423 
3 366 423 363 
3 363 423 364 
3 367 424 371 
3 367 364 424 
3 364 423 424 
3 424 429 371 
3 362 425 422 
3 365 425 362 
3 425 365 368 
3 430 425 368 
3 367 371 369 
3 371 429 431 
3 371 431 369 
3 369 431 370 
3 372 432 378 
3 372 370 432 
3 370 431 432 
3 432 435 378 
3 368 373 430 
3 430 373 436 
3 372 378 374 
3 378 435 437 
3 378 437 374 
3 374 437 375 
3 376 375 438 
3 375 437 438 
3 438 379 376 
3 440 379 438 
3 373 439 436 
3 377 439 373 
3 439 377 380 
3 441 439 380 
3 379 440 442 
3 381 379 442 
3 442 383 381 
3 443 383 442 
3 386 380 382 
3 386 444 380 
3 444 441 380 
3 382 384 386 
3 383 443 445 
3 385 383 445 
3 445 387 385 
3 447 387 445 
3 386 446 444 
3 446 386 384 
3 446 384 448 
3 448 384 388 
3 387 447 389 
3 447 450 389 
3 388 390 448 
3 448 390 451 
3 389 450 452 
3 391 389 452 
3 452 393 391 
3 454 393 452 
3 392 455 453 
3 394 455 392 
3 451 390 392 
3 453 451 392 
3 393 454 456 
3 395 393 456 
3 396 395 457 
3 395 456 457 
3 455 394 396 
3 457 455 396 
3 397 406 399 
3 397 398 407 
3 406 397 407 
3 398 400 407 
3 406 414 408 
3 399 406 408 
3 407 415 406 
3 415 414 406 
3 400 401 416 
3 400 416 407 
3 407 416 415 
3 401 402 417 
3 416 401 417 
3 402 403 418 
3 417 402 418 
3 403 404 419 
3 418 403 419 
3 404 405 420 
3 419 404 420 
3 405 409 420 
3 408 414 410 
3 421 410 414 
3 421 414 426 
3 426 414 415 
3 416 427 415 
3 427 426 415 
3 417 428 416 
3 428 427 416 
3 466 418 460 
3 466 428 418 
3 428 417 418 
3 419 460 418 
3 461 460 419 
3 420 461 419 
3 462 461 420 
3 409 462 420 
3 409 411 462 
3 411 463 462 
3 412 464 411 
3 411 464 463 
3 413 465 412 
3 412 465 464 
3 465 413 422 
3 467 465 422 
3 421 426 423 
3 424 423 426 
3 427 424 426 
3 429 424 427 
3 429 427 433 
3 433 427 428 
3 472 428 466 
3 433 428 472 
3 434 422 425 
3 434 473 422 
3 473 467 422 
3 425 430 434 
3 429 433 431 
3 433 472 474 
3 433 474 431 
3 431 474 432 
3 474 435 432 
3 478 435 474 
3 434 475 473 
3 475 434 430 
3 475 430 479 
3 479 430 436 
3 435 478 480 
3 437 435 480 
3 438 437 481 
3 437 480 481 
3 481 440 438 
3 485 440 481 
3 436 482 479 
3 439 482 436 
3 482 439 441 
3 486 482 441 
3 440 485 487 
3 442 440 487 
3 487 443 442 
3 489 443 487 
3 441 444 486 
3 486 444 490 
3 449 445 443 
3 449 443 492 
3 492 443 489 
3 445 449 447 
3 444 491 490 
3 446 491 444 
3 491 446 448 
3 493 491 448 
3 449 492 494 
3 494 447 449 
3 494 495 447 
3 495 450 447 
3 448 451 493 
3 493 451 496 
3 450 495 497 
3 452 450 497 
3 497 454 452 
3 498 454 497 
3 453 455 458 
3 453 458 499 
3 453 499 451 
3 451 499 496 
3 454 498 500 
3 456 454 500 
3 459 500 503 
3 459 457 500 
3 457 456 500 
3 457 459 504 
3 455 457 504 
3 455 504 501 
3 455 501 458 
3 499 458 501 
3 459 503 505 
3 504 459 505 
3 460 468 466 
3 460 461 469 
3 468 460 469 
3 461 462 470 
3 469 461 470 
3 510 470 462 
3 510 462 508 
3 508 462 463 
3 464 509 463 
3 463 509 508 
3 471 511 509 
3 471 509 465 
3 465 509 464 
3 465 467 471 
3 468 476 472 
3 466 468 472 
3 469 477 468 
3 477 476 468 
3 516 470 512 
3 516 477 470 
3 477 469 470 
3 510 512 470 
3 471 513 511 
3 513 471 467 
3 513 467 517 
3 517 467 473 
3 472 476 474 
3 478 474 476 
3 478 476 483 
3 483 476 477 
3 520 477 516 
3 483 477 520 
3 484 473 475 
3 484 521 473 
3 521 517 473 
3 475 479 484 
3 478 483 480 
3 483 520 522 
3 483 522 480 
3 480 522 481 
3 522 485 481 
3 525 485 522 
3 484 523 521 
3 488 526 523 
3 482 488 523 
3 482 523 484 
3 482 484 479 
3 482 486 488 
3 485 525 527 
3 487 485 527 
3 527 489 487 
3 529 489 527 
3 488 528 526 
3 528 488 486 
3 528 486 530 
3 530 486 490 
3 489 529 492 
3 529 533 492 
3 490 531 530 
3 491 531 490 
3 531 491 493 
3 534 531 493 
3 492 533 535 
3 494 492 535 
3 535 495 494 
3 536 495 535 
3 493 496 534 
3 534 496 537 
3 502 497 495 
3 502 495 540 
3 540 495 536 
3 497 502 498 
3 496 499 537 
3 537 499 541 
3 502 540 542 
3 506 542 544 
3 500 542 506 
3 500 502 542 
3 500 498 502 
3 500 506 503 
3 501 504 507 
3 501 507 545 
3 501 545 499 
3 499 545 541 
3 506 544 546 
3 503 506 546 
3 503 546 505 
3 505 546 547 
3 507 504 505 
3 507 505 548 
3 548 505 547 
3 545 507 548 
3 508 514 510 
3 508 509 515 
3 514 508 515 
3 509 511 515 
3 512 518 516 
3 512 551 518 
3 510 551 512 
3 510 549 551 
3 510 514 549 
3 515 549 514 
3 550 549 515 
3 519 552 550 
3 513 519 550 
3 513 550 515 
3 513 515 511 
3 513 517 519 
3 518 524 520 
3 516 518 520 
3 556 518 551 
3 524 518 556 
3 519 553 552 
3 553 519 517 
3 553 517 557 
3 557 517 521 
3 520 524 522 
3 524 525 522 
3 524 556 525 
3 556 561 525 
3 521 558 557 
3 523 558 521 
3 558 523 526 
3 562 558 526 
3 525 561 563 
3 527 525 563 
3 563 529 527 
3 565 529 563 
3 532 526 528 
3 532 566 526 
3 566 562 526 
3 528 530 532 
3 529 565 533 
3 565 569 533 
3 532 567 566 
3 530 567 532 
3 530 531 567 
3 531 568 567 
3 568 531 534 
3 570 568 534 
3 538 535 533 
3 538 533 573 
3 573 533 569 
3 535 538 536 
3 571 537 539 
3 571 570 537 
3 570 534 537 
3 571 539 574 
3 538 573 575 
3 575 536 538 
3 575 577 536 
3 577 540 536 
3 539 541 543 
3 537 541 539 
3 578 574 539 
3 543 578 539 
3 540 577 579 
3 542 540 579 
3 579 544 542 
3 582 544 579 
3 543 583 580 
3 543 541 583 
3 541 545 583 
3 578 543 580 
3 544 582 584 
3 546 544 584 
3 547 546 585 
3 546 584 585 
3 548 547 586 
3 547 585 586 
3 583 545 548 
3 586 583 548 
3 549 554 551 
3 549 550 555 
3 554 549 555 
3 550 552 555 
3 554 559 556 
3 551 554 556 
3 555 560 554 
3 560 559 554 
3 552 560 555 
3 552 587 560 
3 552 553 587 
3 587 588 560 
3 587 553 557 
3 589 587 557 
3 559 564 561 
3 556 559 561 
3 593 560 590 
3 593 564 560 
3 564 559 560 
3 588 590 560 
3 557 591 589 
3 558 591 557 
3 591 558 562 
3 594 591 562 
3 561 564 563 
3 564 565 563 
3 564 593 565 
3 593 598 565 
3 562 566 594 
3 594 566 599 
3 565 598 569 
3 598 602 569 
3 566 600 599 
3 567 600 566 
3 572 603 600 
3 572 600 568 
3 568 600 567 
3 568 570 572 
3 569 602 573 
3 602 606 573 
3 572 604 603 
3 576 607 604 
3 571 576 604 
3 571 604 572 
3 571 572 570 
3 571 574 576 
3 573 606 608 
3 575 573 608 
3 608 577 575 
3 611 577 608 
3 581 607 576 
3 612 607 581 
3 574 578 581 
3 576 574 581 
3 577 611 613 
3 579 577 613 
3 613 582 579 
3 615 582 613 
3 580 612 581 
3 580 583 612 
3 583 616 612 
3 578 580 581 
3 582 615 617 
3 584 582 617 
3 585 584 618 
3 584 617 618 
3 586 585 619 
3 585 618 619 
3 616 583 586 
3 619 616 586 
3 587 592 588 
3 587 589 592 
3 590 595 593 
3 590 588 592 
3 590 592 595 
3 595 592 596 
3 589 591 597 
3 589 597 592 
3 592 597 596 
3 591 594 597 
3 595 601 598 
3 593 595 598 
3 624 596 622 
3 624 601 596 
3 601 595 596 
3 597 622 596 
3 623 622 597 
3 623 597 594 
3 623 594 625 
3 625 594 599 
3 601 605 602 
3 598 601 602 
3 629 601 624 
3 605 601 629 
3 599 626 625 
3 600 626 599 
3 626 600 603 
3 630 626 603 
3 605 609 606 
3 602 605 606 
3 634 605 629 
3 609 605 634 
3 610 603 604 
3 610 635 603 
3 635 630 603 
3 604 607 610 
3 606 609 608 
3 609 611 608 
3 609 634 611 
3 634 639 611 
3 614 635 610 
3 640 635 614 
3 607 612 614 
3 610 607 614 
3 611 639 641 
3 613 611 641 
3 641 615 613 
3 646 615 641 
3 620 647 642 
3 640 620 642 
3 640 614 620 
3 614 621 620 
3 612 616 621 
3 614 612 621 
3 615 646 648 
3 617 615 648 
3 647 620 618 
3 647 618 648 
3 648 618 617 
3 619 618 620 
3 621 619 620 
3 616 619 621 
3 622 627 624 
3 622 623 628 
3 627 622 628 
3 623 625 628 
3 627 631 629 
3 624 627 629 
3 628 632 627 
3 632 631 627 
3 625 626 633 
3 625 633 628 
3 628 633 632 
3 626 630 633 
3 631 636 634 
3 629 631 634 
3 632 637 631 
3 637 636 631 
3 633 638 632 
3 638 637 632 
3 630 635 638 
3 633 630 638 
3 636 643 639 
3 634 636 639 
3 637 644 636 
3 644 643 636 
3 638 645 637 
3 645 644 637 
3 635 640 645 
3 638 635 645 
3 639 643 641 
3 646 641 643 
3 646 643 649 
3 649 643 644 
3 642 647 649 
3 642 649 645 
3 645 649 644 
3 640 642 645 
3 646 649 648 
3 647 648 649 
