ply
format ascii 1.0
comment VCGLIB generated
element vertex 694
property float x
property float y
property float z
element face 1384
property list uchar int vertex_indices
end_header
1.585269 1.554727 0.8025554 
1.586562 1.554896 0.8025318 
1.584046 1.55412 0.8034847 
1.586541 1.554054 0.8032523 
1.584045 1.555215 0.8027844 
1.588455 1.554707 0.8033246 
1.585505 1.555575 0.8025755 
1.58718 1.555558 0.802789 
1.579866 1.555518 0.8047136 
1.582195 1.555299 0.8036153 
1.589967 1.554225 0.8040828 
1.579171 1.556635 0.8052255 
1.581069 1.556635 0.8044008 
1.583847 1.556479 0.803561 
1.58662 1.556546 0.8035087 
1.578733 1.554696 0.8062781 
1.581488 1.553974 0.8049094 
1.583586 1.553236 0.8046688 
1.585925 1.552879 0.8049574 
1.589087 1.553425 0.8046449 
1.588856 1.552012 0.8068676 
1.59206 1.552774 0.8068492 
1.594621 1.552988 0.8078454 
1.596019 1.553629 0.8084331 
1.578228 1.555982 0.8059483 
1.591239 1.553966 0.8050783 
1.590704 1.554995 0.8044662 
1.593686 1.554691 0.8066705 
1.578189 1.557149 0.8068177 
1.588886 1.555985 0.8038264 
1.58012 1.557736 0.8060081 
1.582785 1.557918 0.8054283 
1.585846 1.55785 0.8051562 
1.588852 1.557405 0.8052483 
1.591375 1.556385 0.8055789 
1.593641 1.556661 0.8072111 
1.587907 1.550838 0.8095669 
1.591462 1.551266 0.8091624 
1.594216 1.551874 0.8090722 
1.595851 1.552525 0.8091228 
1.586158 1.551739 0.8071293 
1.596964 1.553033 0.8101837 
1.57768 1.553987 0.8082516 
1.580023 1.553101 0.807296 
1.583304 1.552423 0.8064675 
1.597105 1.554195 0.8095374 
1.576214 1.55262 0.8117725 
1.578354 1.552457 0.8100998 
1.581859 1.55165 0.8092178 
1.584757 1.551277 0.8086533 
1.576865 1.555904 0.8083822 
1.596162 1.55481 0.8083444 
1.575914 1.554084 0.8104838 
1.597076 1.555458 0.8097664 
1.577492 1.557758 0.8089622 
1.595562 1.556079 0.8082807 
1.579315 1.558546 0.8083081 
1.581981 1.559019 0.8078161 
1.585146 1.559123 0.807536 
1.588512 1.558825 0.8074865 
1.59191 1.558026 0.8076594 
1.594862 1.557539 0.8089593 
1.596542 1.556809 0.8098927 
1.575623 1.552158 0.8137912 
1.577711 1.551486 0.8128221 
1.580746 1.550923 0.8121523 
1.584704 1.550441 0.8115709 
1.58806 1.549968 0.8123916 
1.59086 1.550218 0.8118984 
1.593827 1.55085 0.8114274 
1.595956 1.551804 0.8108597 
1.574956 1.553336 0.8125434 
1.59718 1.552449 0.8122254 
1.574432 1.554764 0.8128407 
1.597747 1.55424 0.8117859 
1.575237 1.55583 0.8110858 
1.576232 1.55767 0.8115115 
1.597592 1.556347 0.811728 
1.578562 1.559101 0.8111585 
1.581354 1.559815 0.8107098 
1.584563 1.560091 0.8104335 
1.588018 1.559963 0.8103188 
1.591467 1.559406 0.8103196 
1.594036 1.558664 0.8102549 
1.596336 1.557955 0.8114902 
1.59775 1.557343 0.8132337 
1.575155 1.551776 0.8163226 
1.577181 1.550904 0.8153618 
1.579536 1.550449 0.8145069 
1.583138 1.549676 0.8152927 
1.586603 1.549593 0.8141949 
1.589826 1.549395 0.8148718 
1.593127 1.54992 0.8142344 
1.595893 1.551053 0.8137878 
1.584647 1.548868 0.8179142 
1.592267 1.549108 0.8169556 
1.594804 1.549822 0.8165475 
1.596626 1.550879 0.8165766 
1.574298 1.553365 0.8147571 
1.597717 1.552726 0.8150032 
1.573797 1.555395 0.8159776 
1.598312 1.555654 0.8148853 
1.574575 1.556626 0.8134263 
1.597958 1.557616 0.814827 
1.575487 1.558236 0.8144578 
1.597063 1.558351 0.8136104 
1.577799 1.559599 0.8147348 
1.580883 1.560407 0.81398 
1.584113 1.560758 0.8136479 
1.58754 1.560738 0.813489 
1.591062 1.560304 0.8134595 
1.594814 1.559288 0.8135047 
1.57445 1.557454 0.8159273 
1.597106 1.55854 0.8152847 
1.584038 1.548395 0.8201547 
1.591144 1.548442 0.8196284 
1.593727 1.549019 0.8188133 
1.595714 1.549853 0.818929 
1.58247 1.549051 0.8180446 
1.5865 1.548476 0.8190826 
1.589906 1.54879 0.8174872 
1.597555 1.55163 0.8187343 
1.57497 1.551296 0.8186395 
1.576728 1.550424 0.8179727 
1.579689 1.549728 0.8172327 
1.587087 1.548972 0.8168559 
1.576102 1.550177 0.8204741 
1.578605 1.549313 0.8200265 
1.581103 1.548878 0.8195568 
1.5886 1.548458 0.8189259 
1.596377 1.550067 0.8209994 
1.573874 1.553072 0.8179709 
1.598451 1.553755 0.8174647 
1.573369 1.555007 0.8190125 
1.598645 1.555348 0.818203 
1.574081 1.557264 0.8190029 
1.598033 1.55738 0.8173502 
1.576009 1.559187 0.8176165 
1.57847 1.560531 0.8181057 
1.580748 1.56095 0.8173441 
1.583813 1.56123 0.8169549 
1.587133 1.561226 0.8167612 
1.59043 1.560917 0.8166151 
1.593595 1.560222 0.8167637 
1.596286 1.559107 0.8172721 
1.575519 1.550178 0.8228829 
1.577773 1.549029 0.8226435 
1.581147 1.548261 0.8222308 
1.584571 1.547689 0.82267 
1.587923 1.547901 0.8213506 
1.590915 1.547948 0.8217114 
1.593686 1.548517 0.8219047 
1.594347 1.548045 0.8246717 
1.574382 1.551567 0.8206929 
1.596154 1.549646 0.8238238 
1.597524 1.551279 0.821634 
1.573434 1.553478 0.8210151 
1.598399 1.553538 0.8207169 
1.573359 1.5557 0.8215956 
1.598404 1.556202 0.8207604 
1.574143 1.557878 0.822505 
1.597378 1.558306 0.8203478 
1.575672 1.559386 0.8212373 
1.578026 1.560639 0.8207594 
1.580759 1.561339 0.8205068 
1.583644 1.561575 0.8201117 
1.586794 1.561537 0.8199566 
1.590065 1.561234 0.819783 
1.592654 1.560743 0.8192531 
1.595269 1.559872 0.8203368 
1.596756 1.559067 0.8226642 
1.593209 1.547096 0.826448 
1.592751 1.547405 0.8245884 
1.595054 1.548203 0.8265713 
1.575312 1.550206 0.8253402 
1.57684 1.54907 0.8246892 
1.57943 1.547938 0.8253645 
1.583093 1.547213 0.8249672 
1.586687 1.54702 0.8244829 
1.590403 1.547296 0.8238414 
1.581783 1.546715 0.8276466 
1.5852 1.546257 0.8272339 
1.588746 1.546306 0.8266959 
1.591373 1.546705 0.8260254 
1.574095 1.551806 0.8232893 
1.596763 1.5502 0.8270477 
1.597775 1.551955 0.8239958 
1.573422 1.553902 0.8237991 
1.598323 1.554741 0.8244112 
1.597946 1.55261 0.8264779 
1.573582 1.556263 0.8246557 
1.597814 1.557494 0.8236043 
1.596519 1.559185 0.8255694 
1.574324 1.557475 0.8267478 
1.574317 1.558204 0.8248177 
1.595498 1.559954 0.8232561 
1.57552 1.559458 0.8242231 
1.577745 1.560667 0.8238924 
1.580638 1.561477 0.8236263 
1.583757 1.561781 0.82323 
1.586303 1.561746 0.8225257 
1.589686 1.561471 0.8232253 
1.593108 1.560772 0.8224076 
1.575258 1.558997 0.8263006 
1.592684 1.561071 0.8254086 
1.594698 1.56039 0.8249614 
1.580618 1.546428 0.8305306 
1.583689 1.545776 0.8295227 
1.58725 1.545226 0.8300287 
1.591178 1.546066 0.8285215 
1.59366 1.54697 0.8283035 
1.588342 1.544346 0.8322829 
1.579148 1.547464 0.828124 
1.595118 1.547998 0.8291497 
1.57551 1.550206 0.8280039 
1.577109 1.548712 0.8269616 
1.577484 1.54826 0.8299173 
1.574152 1.552043 0.8259215 
1.596335 1.549506 0.8299992 
1.574459 1.552414 0.8285076 
1.573645 1.554157 0.8263914 
1.597516 1.551976 0.8294249 
1.573781 1.555785 0.8270192 
1.598168 1.554219 0.8276494 
1.574045 1.55445 0.8284022 
1.574554 1.556145 0.8289832 
1.597845 1.556942 0.8278345 
1.592408 1.561312 0.8274167 
1.594684 1.560581 0.8277948 
1.596663 1.559247 0.8286252 
1.575861 1.558508 0.8290097 
1.590668 1.561531 0.8260868 
1.577345 1.560282 0.8270637 
1.580339 1.561419 0.8268312 
1.583889 1.561866 0.8266555 
1.587576 1.561816 0.8257371 
1.594363 1.561114 0.8302102 
1.595842 1.560307 0.8305117 
1.587695 1.543834 0.8343446 
1.586493 1.544314 0.8325568 
1.589709 1.54424 0.8332587 
1.578418 1.547232 0.8325846 
1.580791 1.545652 0.8336642 
1.583828 1.544962 0.8321776 
1.590269 1.544988 0.8313314 
1.592985 1.546185 0.8308247 
1.58304 1.544417 0.8349966 
1.58528 1.544052 0.8340912 
1.591567 1.544873 0.8331075 
1.593227 1.545823 0.8331634 
1.576977 1.548492 0.831853 
1.594895 1.547622 0.8321598 
1.57583 1.550317 0.8310627 
1.596505 1.550081 0.8322665 
1.574971 1.553604 0.8310721 
1.597483 1.552613 0.8324615 
1.598029 1.554626 0.8302601 
1.575668 1.556475 0.8317966 
1.597982 1.556605 0.8313243 
1.592851 1.561414 0.8292083 
1.577137 1.558769 0.8322629 
1.590542 1.561702 0.8281565 
1.593068 1.561579 0.8310171 
1.597279 1.55871 0.8313628 
1.578084 1.560208 0.8303284 
1.579795 1.561183 0.8293235 
1.583327 1.561842 0.8306125 
1.587991 1.561968 0.8297426 
1.594548 1.561226 0.832313 
1.596254 1.560279 0.8326674 
1.578752 1.560185 0.8326941 
1.584542 1.562019 0.8336645 
1.591303 1.561792 0.8302583 
1.582487 1.544161 0.8376385 
1.58544 1.543613 0.8365745 
1.588086 1.543495 0.8365668 
1.590203 1.544082 0.8352864 
1.592248 1.544988 0.834749 
1.580889 1.545096 0.8360471 
1.593723 1.546245 0.8349044 
1.57871 1.546757 0.8357255 
1.576935 1.54873 0.8336965 
1.595319 1.548315 0.8347709 
1.575915 1.551236 0.8341077 
1.596561 1.550704 0.8348492 
1.596453 1.551241 0.8374477 
1.575832 1.554209 0.8345972 
1.597373 1.553122 0.8350567 
1.59791 1.554978 0.8330819 
1.597723 1.555129 0.8353506 
1.576828 1.557082 0.8350825 
1.59772 1.557201 0.8342528 
1.578619 1.559281 0.8350722 
1.583518 1.561678 0.8352306 
1.577808 1.558145 0.836463 
1.580106 1.56066 0.8341393 
1.582602 1.561749 0.8331369 
1.58606 1.562051 0.8357487 
1.596963 1.559466 0.8344214 
1.580494 1.561186 0.8320212 
1.58752 1.562131 0.8335483 
1.591631 1.561884 0.8328542 
1.593933 1.561588 0.8340293 
1.595489 1.560948 0.8347039 
1.581577 1.561314 0.8342579 
1.596418 1.560182 0.8363796 
1.581709 1.544181 0.8403934 
1.584341 1.543395 0.8396783 
1.587265 1.543268 0.8389624 
1.589539 1.543677 0.837778 
1.591845 1.544821 0.8372197 
1.58009 1.545334 0.8383418 
1.593989 1.546795 0.8372592 
1.578153 1.5472 0.839062 
1.592553 1.54551 0.8395961 
1.576938 1.549122 0.8366844 
1.595471 1.548972 0.8371375 
1.595563 1.549493 0.8386388 
1.594332 1.547725 0.8398091 
1.576243 1.55186 0.8374262 
1.595649 1.550315 0.8401276 
1.596602 1.552392 0.8390489 
1.597231 1.553775 0.8372871 
1.596244 1.552247 0.8406897 
1.576589 1.554921 0.8381821 
1.597488 1.556075 0.8372069 
1.57741 1.557184 0.837575 
1.579041 1.558645 0.8383722 
1.597121 1.558494 0.8371792 
1.58169 1.560599 0.8369483 
1.585126 1.561586 0.8376571 
1.595862 1.560081 0.8386434 
1.587315 1.56201 0.8376867 
1.595368 1.561011 0.8368441 
1.588596 1.562187 0.8365002 
1.590505 1.562119 0.8354303 
1.593367 1.561713 0.836106 
1.589034 1.562049 0.8383799 
1.594515 1.561221 0.8381722 
1.581219 1.544267 0.8432912 
1.583302 1.543386 0.84225 
1.586124 1.542925 0.8424172 
1.589854 1.543741 0.8408738 
1.588335 1.542662 0.8442963 
1.590273 1.543429 0.8439349 
1.579546 1.545587 0.8412859 
1.592209 1.545355 0.8427317 
1.577918 1.54759 0.8422989 
1.576918 1.54961 0.8399937 
1.594224 1.548505 0.8430551 
1.595519 1.551008 0.8421175 
1.576569 1.552355 0.8409584 
1.596037 1.553231 0.8424031 
1.5969 1.554347 0.839672 
1.576986 1.554826 0.8417547 
1.597058 1.556824 0.839516 
1.577696 1.556751 0.8400413 
1.577868 1.55644 0.8425096 
1.596602 1.555494 0.8414523 
1.579432 1.558119 0.8420822 
1.596613 1.558521 0.8397366 
1.581713 1.559756 0.8407905 
1.584659 1.560892 0.8403195 
1.587837 1.561582 0.8398776 
1.593799 1.560761 0.8404167 
1.595455 1.559128 0.8414364 
1.596344 1.5573 0.8416809 
1.590222 1.561797 0.8396363 
1.593104 1.561633 0.8385347 
1.591059 1.562018 0.837841 
1.591943 1.561605 0.8397557 
1.587636 1.542206 0.847235 
1.589462 1.542729 0.8458699 
1.586223 1.542403 0.8453827 
1.590969 1.543867 0.8458287 
1.580826 1.544498 0.8459548 
1.583503 1.543113 0.8455423 
1.585421 1.542284 0.8473794 
1.579263 1.545844 0.84434 
1.592522 1.546083 0.8459125 
1.577901 1.547909 0.8455578 
1.577021 1.550062 0.8434348 
1.593708 1.548898 0.8463513 
1.594982 1.551002 0.8442148 
1.577022 1.553016 0.8449037 
1.595355 1.553078 0.8446775 
1.577475 1.555314 0.843987 
1.578755 1.556906 0.8448002 
1.595792 1.55539 0.8437936 
1.57782 1.555173 0.8459778 
1.580302 1.558399 0.8445669 
1.595252 1.55771 0.8438111 
1.581754 1.559349 0.8437253 
1.584311 1.560289 0.8434485 
1.587524 1.560824 0.8431466 
1.590868 1.56101 0.8419331 
1.59349 1.559435 0.8439017 
1.594318 1.55792 0.8457017 
1.585871 1.542179 0.8499995 
1.58811 1.542216 0.8495969 
1.589568 1.542779 0.8479476 
1.583892 1.542687 0.8486385 
1.591071 1.544284 0.8484506 
1.581576 1.544044 0.8489619 
1.579327 1.546016 0.8475655 
1.592303 1.546735 0.8489529 
1.578024 1.548241 0.8487644 
1.577194 1.550248 0.8467339 
1.593194 1.550107 0.8493468 
1.594461 1.551648 0.8465415 
1.577173 1.552042 0.8479575 
1.594905 1.554118 0.8462509 
1.59403 1.552901 0.8482656 
1.57777 1.55409 0.8482479 
1.594904 1.556319 0.8458943 
1.579093 1.556325 0.8479054 
1.594043 1.557015 0.8473235 
1.578606 1.555257 0.8494831 
1.594118 1.555148 0.8480728 
1.580548 1.558089 0.8466761 
1.592993 1.558418 0.847177 
1.581689 1.559077 0.8456822 
1.583646 1.559832 0.8459308 
1.586756 1.560346 0.846806 
1.590467 1.559979 0.8462967 
1.582628 1.559199 0.847645 
1.584905 1.560014 0.8483962 
1.586863 1.560363 0.8496411 
1.585026 1.542417 0.8536023 
1.587556 1.542303 0.8520857 
1.589501 1.542978 0.8505224 
1.583359 1.54288 0.8511797 
1.590849 1.544703 0.8513982 
1.581508 1.544011 0.8520175 
1.58271 1.543196 0.8535997 
1.579526 1.546288 0.8516441 
1.591858 1.547383 0.8521985 
1.578076 1.548961 0.8512964 
1.591321 1.546955 0.8547687 
1.577431 1.550461 0.8495284 
1.592435 1.550231 0.8521085 
1.577873 1.551031 0.8519675 
1.591773 1.54892 0.8541915 
1.577583 1.552411 0.8501688 
1.592963 1.553413 0.8510019 
1.578481 1.554186 0.8511417 
1.577994 1.552613 0.8519275 
1.592051 1.551514 0.8539456 
1.579738 1.556227 0.850561 
1.593089 1.556632 0.8494463 
1.581517 1.558083 0.8495819 
1.58373 1.559442 0.8497582 
1.585618 1.560108 0.8507552 
1.581406 1.557443 0.8520907 
1.5874 1.560462 0.8515921 
1.591592 1.558575 0.8500341 
1.589171 1.560091 0.850796 
1.586428 1.560297 0.8528103 
1.583076 1.54319 0.8564399 
1.58542 1.542436 0.8564427 
1.587219 1.542455 0.8550537 
1.589178 1.543201 0.8534216 
1.581032 1.544503 0.8545097 
1.590491 1.544997 0.8547159 
1.59076 1.546246 0.8568268 
1.57955 1.546382 0.855404 
1.59126 1.54791 0.8560522 
1.578566 1.549066 0.8543736 
1.591338 1.549922 0.8563468 
1.578765 1.552794 0.8542945 
1.591443 1.552536 0.8563104 
1.580052 1.555695 0.8531629 
1.592064 1.553895 0.8539958 
1.582052 1.557613 0.8546788 
1.592039 1.556416 0.8528778 
1.583944 1.559203 0.8526007 
1.586336 1.560315 0.8552201 
1.590953 1.558841 0.8535043 
1.588313 1.560573 0.8541697 
1.589948 1.560073 0.8544434 
1.582368 1.543625 0.859944 
1.584762 1.542744 0.8588744 
1.586892 1.542653 0.8578812 
1.588783 1.543334 0.8564819 
1.58065 1.544943 0.8577327 
1.589844 1.544604 0.8578453 
1.590233 1.545957 0.8593377 
1.578839 1.547724 0.858678 
1.590731 1.547969 0.8583586 
1.578405 1.546922 0.8615336 
1.578614 1.550736 0.8572279 
1.590491 1.550768 0.8595712 
1.589585 1.549937 0.8623155 
1.579265 1.553411 0.8582563 
1.590967 1.553558 0.858309 
1.580453 1.555627 0.8562794 
1.591538 1.555053 0.8560392 
1.582347 1.557873 0.8578861 
1.591331 1.557363 0.8562124 
1.584257 1.559336 0.8563268 
1.586306 1.560555 0.8583175 
1.590753 1.559259 0.8567593 
1.588152 1.560877 0.8575177 
1.589716 1.560457 0.8571711 
1.5819 1.543806 0.8632765 
1.584411 1.543141 0.861813 
1.586334 1.542921 0.8603243 
1.588329 1.543607 0.859673 
1.579878 1.545247 0.8613065 
1.589608 1.544745 0.8599313 
1.578438 1.546194 0.8635483 
1.589818 1.54562 0.8608517 
1.589009 1.544933 0.8618597 
1.577845 1.547661 0.8630243 
1.589798 1.54751 0.8622598 
1.578053 1.548461 0.8614005 
1.588996 1.549555 0.8644029 
1.589621 1.548539 0.8651502 
1.578423 1.550909 0.8606442 
1.588987 1.550614 0.8634881 
1.58963 1.551297 0.8619694 
1.579349 1.554272 0.8617291 
1.590193 1.553212 0.861088 
1.580695 1.556123 0.8596098 
1.591004 1.555596 0.8587927 
1.582395 1.558322 0.8611122 
1.590989 1.557751 0.8594745 
1.584337 1.559651 0.8596759 
1.586353 1.560851 0.8614936 
1.590572 1.559614 0.8599335 
1.587876 1.561127 0.8601305 
1.589494 1.56087 0.8604808 
1.590511 1.560048 0.8624128 
1.581435 1.543954 0.866823 
1.58417 1.543503 0.8650895 
1.586876 1.543736 0.8630421 
1.579712 1.544769 0.864564 
1.588685 1.54555 0.8652448 
1.578436 1.545794 0.8656729 
1.589701 1.547333 0.8655658 
1.579317 1.544902 0.8669354 
1.577688 1.547757 0.8655788 
1.589921 1.54871 0.8671207 
1.577751 1.549584 0.8634657 
1.587938 1.550079 0.8659351 
1.589099 1.550037 0.8662876 
1.586663 1.550106 0.8667282 
1.57824 1.552487 0.8641607 
1.587969 1.550523 0.8652166 
1.589023 1.551746 0.8635211 
1.589197 1.552154 0.8661131 
1.579408 1.555641 0.8653442 
1.589577 1.553226 0.8637853 
1.580764 1.556897 0.8627493 
1.590572 1.555561 0.8618417 
1.590284 1.554837 0.864493 
1.582181 1.558642 0.8637885 
1.590846 1.557777 0.8634231 
1.584217 1.56001 0.8633534 
1.590665 1.559821 0.8649078 
1.581012 1.557796 0.8653064 
1.586532 1.56113 0.8647016 
1.589963 1.560847 0.863315 
1.588449 1.561264 0.86314 
1.579851 1.544847 0.8697212 
1.581994 1.543927 0.8696533 
1.58394 1.543757 0.8683789 
1.586431 1.544185 0.8669127 
1.578213 1.546304 0.8680333 
1.588185 1.545479 0.8688574 
1.58611 1.549966 0.8671708 
1.589553 1.547027 0.8679298 
1.577341 1.548977 0.8693386 
1.586073 1.549961 0.8671629 
1.586409 1.550078 0.8670517 
1.590136 1.548811 0.8692486 
1.577495 1.550687 0.8665084 
1.586239 1.550055 0.8670155 
1.58745 1.550483 0.8666159 
1.586372 1.550135 0.8670233 
1.578039 1.553796 0.8677254 
1.586884 1.550409 0.8664665 
1.587877 1.551136 0.8662887 
1.590241 1.551164 0.8682491 
1.588137 1.551394 0.8654938 
1.57726 1.551741 0.8692621 
1.587166 1.550652 0.8665081 
1.578977 1.55591 0.8679628 
1.590679 1.554901 0.8671005 
1.580375 1.557621 0.868215 
1.591005 1.55808 0.8670278 
1.582771 1.55939 0.8666807 
1.58499 1.56065 0.8663613 
1.590613 1.559826 0.8673976 
1.586641 1.56114 0.8675835 
1.58976 1.560854 0.8656267 
1.588267 1.561267 0.8663706 
1.579539 1.545502 0.8731359 
1.581648 1.544489 0.8721112 
1.583558 1.544076 0.8709404 
1.586042 1.544607 0.8704573 
1.578135 1.546714 0.8712003 
1.587898 1.545589 0.8709382 
1.589256 1.547298 0.8711691 
1.587245 1.545987 0.8728135 
1.577318 1.548712 0.8726061 
1.59038 1.550511 0.8713577 
1.589807 1.548906 0.8732334 
1.57711 1.551592 0.8725049 
1.590834 1.553359 0.8699328 
1.57752 1.553575 0.8705229 
1.578712 1.555973 0.8707505 
1.590913 1.556361 0.8699013 
1.577614 1.554257 0.8725423 
1.590497 1.556316 0.8722025 
1.580404 1.558041 0.8712651 
1.590867 1.558691 0.8689268 
1.582196 1.559149 0.8703415 
1.58484 1.560266 0.8695132 
1.590495 1.55962 0.8689815 
1.590058 1.558618 0.8707446 
1.586972 1.560736 0.8697599 
1.589549 1.560456 0.8683996 
1.588058 1.561041 0.8685869 
1.588433 1.560157 0.870466 
1.579354 1.546169 0.8759307 
1.58133 1.54533 0.8750159 
1.584202 1.545141 0.8736125 
1.578056 1.547184 0.874302 
1.586242 1.547202 0.8757551 
1.588662 1.547699 0.8740348 
1.577289 1.549694 0.8755753 
1.589445 1.548987 0.8744942 
1.589726 1.550926 0.8742849 
1.577505 1.550284 0.8777575 
1.58836 1.549178 0.8756537 
1.577075 1.551823 0.8750917 
1.590564 1.553854 0.8724653 
1.590208 1.55537 0.8734805 
1.589291 1.554176 0.8749286 
1.577529 1.553723 0.8750335 
1.589362 1.556962 0.8735656 
1.578331 1.555619 0.8738381 
1.587606 1.556325 0.8758342 
1.57989 1.557352 0.8739519 
1.5886 1.558918 0.8723722 
1.581518 1.558704 0.8728877 
1.583775 1.559158 0.8732355 
1.586658 1.559627 0.8722355 
1.585828 1.558125 0.8752898 
1.587742 1.558185 0.8740492 
1.57937 1.547001 0.8780482 
1.580736 1.546165 0.8772407 
1.583045 1.546472 0.8770529 
1.578152 1.547614 0.8768409 
1.58465 1.548084 0.8780006 
1.577718 1.548911 0.8777232 
1.578408 1.548063 0.878445 
1.58298 1.548059 0.8789727 
1.578327 1.549633 0.8790417 
1.586406 1.549687 0.8775021 
1.577907 1.551371 0.878573 
1.58813 1.551707 0.87649 
1.584071 1.550212 0.8792217 
1.577393 1.552068 0.8769456 
1.587661 1.554054 0.8768539 
1.586378 1.555207 0.8774985 
1.578172 1.553108 0.8783983 
1.583807 1.552902 0.879425 
1.585943 1.552763 0.87819 
1.57788 1.553982 0.877146 
1.585874 1.556714 0.8770132 
1.578903 1.555599 0.8765898 
1.584953 1.557334 0.8769448 
1.578419 1.554463 0.877951 
1.584165 1.555701 0.8782159 
1.580541 1.55719 0.8764579 
1.583771 1.557884 0.8762724 
1.581848 1.558224 0.8752018 
1.582092 1.557101 0.8774413 
1.581064 1.547455 0.8789862 
1.579386 1.54823 0.8793959 
1.581891 1.549297 0.8799708 
1.580415 1.54886 0.8800753 
1.579459 1.549672 0.880006 
1.58224 1.551642 0.8801256 
1.580584 1.550601 0.8803124 
1.5791 1.551676 0.8796039 
1.582306 1.554089 0.8796799 
1.580709 1.552931 0.8799976 
1.579417 1.554287 0.878853 
1.581979 1.555791 0.8788838 
1.58055 1.556076 0.8781894 
1.580933 1.554833 0.8794268 
3 0 2 4 
3 0 1 3 
3 2 0 3 
3 3 1 5 
3 0 4 6 
3 1 0 6 
3 7 1 6 
3 5 1 7 
3 8 15 24 
3 8 9 16 
3 15 8 16 
3 9 4 2 
3 9 2 16 
3 16 2 17 
3 3 18 2 
3 2 18 17 
3 5 10 19 
3 5 19 3 
3 3 19 18 
3 19 10 25 
3 11 8 24 
3 28 11 24 
3 9 8 12 
3 12 8 11 
3 4 13 6 
3 4 9 13 
3 9 12 13 
3 6 14 7 
3 13 14 6 
3 7 14 29 
3 5 7 29 
3 5 29 26 
3 5 26 10 
3 25 10 26 
3 11 28 30 
3 12 11 30 
3 31 12 30 
3 13 12 31 
3 32 13 31 
3 14 13 32 
3 33 14 32 
3 29 14 33 
3 20 36 40 
3 20 21 37 
3 36 20 37 
3 21 22 38 
3 37 21 38 
3 22 23 39 
3 38 22 39 
3 39 23 41 
3 15 42 50 
3 24 15 50 
3 16 43 15 
3 15 43 42 
3 17 44 16 
3 16 44 43 
3 40 18 20 
3 40 44 18 
3 44 17 18 
3 19 20 18 
3 21 20 19 
3 25 21 19 
3 25 27 21 
3 27 22 21 
3 51 45 23 
3 51 23 27 
3 27 23 22 
3 41 23 45 
3 24 50 28 
3 50 54 28 
3 26 29 34 
3 26 27 25 
3 26 34 27 
3 34 35 27 
3 55 51 27 
3 35 55 27 
3 28 54 56 
3 30 28 56 
3 31 30 57 
3 30 56 57 
3 32 31 58 
3 31 57 58 
3 33 32 59 
3 32 58 59 
3 34 29 33 
3 34 33 60 
3 60 33 59 
3 35 34 60 
3 61 35 60 
3 55 35 61 
3 46 63 71 
3 46 47 64 
3 63 46 64 
3 47 48 65 
3 64 47 65 
3 48 49 66 
3 65 48 66 
3 49 40 36 
3 49 36 66 
3 66 36 67 
3 37 68 36 
3 36 68 67 
3 38 69 37 
3 37 69 68 
3 39 70 38 
3 38 70 69 
3 70 39 41 
3 72 70 41 
3 52 46 71 
3 73 52 71 
3 42 52 50 
3 42 47 52 
3 47 46 52 
3 43 47 42 
3 48 47 43 
3 44 48 43 
3 49 48 44 
3 40 49 44 
3 45 51 53 
3 45 53 74 
3 45 74 41 
3 41 74 72 
3 52 73 75 
3 75 50 52 
3 75 76 50 
3 76 54 50 
3 53 55 62 
3 51 55 53 
3 77 74 53 
3 62 77 53 
3 54 76 78 
3 56 54 78 
3 57 56 79 
3 56 78 79 
3 58 57 80 
3 57 79 80 
3 59 58 81 
3 58 80 81 
3 60 59 82 
3 59 81 82 
3 61 60 83 
3 60 82 83 
3 62 55 61 
3 62 61 84 
3 84 61 83 
3 77 62 84 
3 63 86 98 
3 71 63 98 
3 64 87 63 
3 63 87 86 
3 65 88 64 
3 64 88 87 
3 66 89 65 
3 65 89 88 
3 67 90 66 
3 66 90 89 
3 68 91 67 
3 67 91 90 
3 69 92 68 
3 68 92 91 
3 70 93 69 
3 69 93 92 
3 93 70 72 
3 99 93 72 
3 71 98 73 
3 98 100 73 
3 72 74 99 
3 99 74 101 
3 73 100 102 
3 75 73 102 
3 102 76 75 
3 104 76 102 
3 85 105 103 
3 85 103 101 
3 85 101 77 
3 77 101 74 
3 76 104 106 
3 78 76 106 
3 79 78 107 
3 78 106 107 
3 80 79 108 
3 79 107 108 
3 81 80 109 
3 80 108 109 
3 82 81 110 
3 81 109 110 
3 83 82 111 
3 82 110 111 
3 105 85 84 
3 105 84 111 
3 111 84 83 
3 77 84 85 
3 94 114 118 
3 114 94 119 
3 95 115 120 
3 95 96 116 
3 115 95 116 
3 96 97 117 
3 116 96 117 
3 117 97 121 
3 86 122 131 
3 98 86 131 
3 87 123 86 
3 86 123 122 
3 88 124 87 
3 87 124 123 
3 118 89 94 
3 118 124 89 
3 124 88 89 
3 94 125 119 
3 94 89 125 
3 89 90 125 
3 120 91 95 
3 120 125 91 
3 125 90 91 
3 92 95 91 
3 96 95 92 
3 93 96 92 
3 97 96 93 
3 97 93 99 
3 97 99 121 
3 121 99 132 
3 98 131 100 
3 131 133 100 
3 99 101 132 
3 132 101 134 
3 112 102 100 
3 112 100 135 
3 135 100 133 
3 102 112 104 
3 103 105 113 
3 103 113 136 
3 103 136 101 
3 101 136 134 
3 112 135 137 
3 104 112 137 
3 104 137 106 
3 106 137 138 
3 107 106 139 
3 106 138 139 
3 108 107 140 
3 107 139 140 
3 109 108 141 
3 108 140 141 
3 110 109 142 
3 109 141 142 
3 111 110 143 
3 110 142 143 
3 113 105 111 
3 113 111 144 
3 144 111 143 
3 136 113 144 
3 126 145 153 
3 126 127 146 
3 145 126 146 
3 127 128 147 
3 146 127 147 
3 128 118 114 
3 128 114 147 
3 147 114 148 
3 119 129 149 
3 119 149 114 
3 114 149 148 
3 129 120 115 
3 129 115 149 
3 149 115 150 
3 116 151 115 
3 115 151 150 
3 130 154 151 
3 130 151 117 
3 117 151 116 
3 117 121 130 
3 122 126 153 
3 122 153 131 
3 131 153 156 
3 123 126 122 
3 127 126 123 
3 124 127 123 
3 128 127 124 
3 118 128 124 
3 119 125 129 
3 120 129 125 
3 130 155 154 
3 155 130 121 
3 155 121 157 
3 157 121 132 
3 131 156 133 
3 156 158 133 
3 132 134 157 
3 157 134 159 
3 133 158 135 
3 158 160 135 
3 134 136 159 
3 159 136 161 
3 135 160 162 
3 137 135 162 
3 138 137 163 
3 137 162 163 
3 139 138 164 
3 138 163 164 
3 140 139 165 
3 139 164 165 
3 141 140 166 
3 140 165 166 
3 142 141 167 
3 141 166 167 
3 143 142 168 
3 142 167 168 
3 144 143 169 
3 143 168 169 
3 161 136 144 
3 169 161 144 
3 152 171 172 
3 171 152 173 
3 145 174 184 
3 153 145 184 
3 146 175 145 
3 145 175 174 
3 147 176 146 
3 146 176 175 
3 148 177 147 
3 147 177 176 
3 149 178 148 
3 148 178 177 
3 150 179 149 
3 149 179 178 
3 172 151 152 
3 172 179 151 
3 179 150 151 
3 152 151 154 
3 152 154 173 
3 173 154 185 
3 153 184 156 
3 184 187 156 
3 154 186 185 
3 155 186 154 
3 186 155 157 
3 188 186 157 
3 156 187 158 
3 187 190 158 
3 157 159 188 
3 188 159 191 
3 158 190 160 
3 190 194 160 
3 170 195 192 
3 170 192 191 
3 170 191 161 
3 161 191 159 
3 160 194 196 
3 162 160 196 
3 163 162 197 
3 162 196 197 
3 164 163 198 
3 163 197 198 
3 165 164 199 
3 164 198 199 
3 166 165 200 
3 165 199 200 
3 167 166 201 
3 166 200 201 
3 168 167 202 
3 167 201 202 
3 195 170 169 
3 195 169 202 
3 202 169 168 
3 161 169 170 
3 180 206 212 
3 180 181 207 
3 206 180 207 
3 181 182 208 
3 207 181 208 
3 182 183 209 
3 208 182 209 
3 183 172 171 
3 183 171 209 
3 209 171 210 
3 210 171 173 
3 213 210 173 
3 174 214 217 
3 184 174 217 
3 175 215 174 
3 174 215 214 
3 212 176 180 
3 212 215 176 
3 215 175 176 
3 177 180 176 
3 181 180 177 
3 178 181 177 
3 182 181 178 
3 179 182 178 
3 183 182 179 
3 172 183 179 
3 173 185 213 
3 213 185 218 
3 184 217 187 
3 217 220 187 
3 189 185 186 
3 189 221 185 
3 221 218 185 
3 186 188 189 
3 222 193 190 
3 222 190 220 
3 220 190 187 
3 222 225 193 
3 189 223 221 
3 223 189 188 
3 223 188 226 
3 226 188 191 
3 193 203 194 
3 190 193 194 
3 230 193 225 
3 203 193 230 
3 204 231 227 
3 204 228 205 
3 227 228 204 
3 205 192 195 
3 205 228 192 
3 228 229 192 
3 226 191 192 
3 229 226 192 
3 194 203 196 
3 203 230 232 
3 203 232 196 
3 196 232 197 
3 198 197 233 
3 197 232 233 
3 199 198 234 
3 198 233 234 
3 200 199 235 
3 199 234 235 
3 231 204 201 
3 231 201 235 
3 235 201 200 
3 202 201 204 
3 205 202 204 
3 195 202 205 
3 211 238 239 
3 238 211 240 
3 216 241 250 
3 216 212 206 
3 216 206 241 
3 241 206 242 
3 207 243 206 
3 206 243 242 
3 239 208 211 
3 239 243 208 
3 243 207 208 
3 211 244 240 
3 211 208 244 
3 208 209 244 
3 210 245 209 
3 209 245 244 
3 245 210 213 
3 251 245 213 
3 214 219 217 
3 216 250 252 
3 216 252 214 
3 216 214 215 
3 219 214 252 
3 212 216 215 
3 213 218 251 
3 251 218 253 
3 219 224 220 
3 217 219 220 
3 254 219 252 
3 224 219 254 
3 218 221 253 
3 253 221 255 
3 220 224 222 
3 224 225 222 
3 224 254 225 
3 254 257 225 
3 221 256 255 
3 223 256 221 
3 256 223 226 
3 258 256 226 
3 225 257 230 
3 257 260 230 
3 227 261 259 
3 231 261 227 
3 236 259 262 
3 236 228 259 
3 228 227 259 
3 228 237 229 
3 236 237 228 
3 229 237 263 
3 229 263 226 
3 226 263 258 
3 230 260 264 
3 232 230 264 
3 233 232 265 
3 232 264 265 
3 234 233 266 
3 233 265 266 
3 235 234 267 
3 234 266 267 
3 261 231 235 
3 267 261 235 
3 236 262 268 
3 237 236 268 
3 269 237 268 
3 263 237 269 
3 246 273 278 
3 246 247 274 
3 273 246 274 
3 247 239 238 
3 247 238 274 
3 274 238 275 
3 240 248 276 
3 240 276 238 
3 238 276 275 
3 248 249 277 
3 276 248 277 
3 277 249 279 
3 241 280 281 
3 250 241 281 
3 278 242 246 
3 278 280 242 
3 280 241 242 
3 243 246 242 
3 247 246 243 
3 239 247 243 
3 240 244 248 
3 245 248 244 
3 249 248 245 
3 249 245 251 
3 249 251 279 
3 279 251 282 
3 250 281 252 
3 281 283 252 
3 251 253 282 
3 282 253 284 
3 252 283 254 
3 283 286 254 
3 253 255 284 
3 284 255 287 
3 254 286 257 
3 286 290 257 
3 255 288 287 
3 256 288 255 
3 288 256 258 
3 291 288 258 
3 292 270 260 
3 292 260 290 
3 290 260 257 
3 292 295 270 
3 271 296 293 
3 293 297 271 
3 259 261 272 
3 259 272 262 
3 258 263 291 
3 291 263 298 
3 260 270 264 
3 270 295 299 
3 270 299 264 
3 264 299 265 
3 296 271 266 
3 296 266 299 
3 299 266 265 
3 271 297 300 
3 271 300 266 
3 266 300 267 
3 272 261 267 
3 272 267 301 
3 301 267 300 
3 262 272 301 
3 262 301 268 
3 268 301 302 
3 269 268 303 
3 268 302 303 
3 298 263 269 
3 303 298 269 
3 273 306 311 
3 278 273 311 
3 274 307 273 
3 273 307 306 
3 275 308 274 
3 274 308 307 
3 276 309 275 
3 275 309 308 
3 277 310 276 
3 276 310 309 
3 310 277 279 
3 312 310 279 
3 280 313 315 
3 281 280 315 
3 311 280 278 
3 313 280 311 
3 279 282 312 
3 312 282 316 
3 281 315 283 
3 315 319 283 
3 285 320 317 
3 285 317 316 
3 285 316 284 
3 284 316 282 
3 283 319 286 
3 319 324 286 
3 285 321 320 
3 285 284 287 
3 285 287 322 
3 285 322 321 
3 289 322 287 
3 322 289 325 
3 326 294 290 
3 326 290 324 
3 324 290 286 
3 326 327 294 
3 287 288 289 
3 289 288 291 
3 289 291 325 
3 325 291 328 
3 290 294 292 
3 295 329 304 
3 292 329 295 
3 292 327 329 
3 292 294 327 
3 304 293 296 
3 304 329 293 
3 329 330 293 
3 330 297 293 
3 332 297 330 
3 305 333 331 
3 305 331 328 
3 305 328 298 
3 298 328 291 
3 295 304 299 
3 296 299 304 
3 297 332 334 
3 300 297 334 
3 301 300 335 
3 300 334 335 
3 302 301 336 
3 301 335 336 
3 333 305 303 
3 333 303 336 
3 336 303 302 
3 298 303 305 
3 306 339 345 
3 311 306 345 
3 307 340 306 
3 306 340 339 
3 308 341 307 
3 307 341 340 
3 309 342 308 
3 308 342 341 
3 314 346 342 
3 314 342 310 
3 310 342 309 
3 310 312 314 
3 313 347 348 
3 315 313 348 
3 345 313 311 
3 347 313 345 
3 318 346 314 
3 349 346 318 
3 312 316 318 
3 314 312 318 
3 315 348 319 
3 348 351 319 
3 350 320 323 
3 350 349 320 
3 317 320 318 
3 318 320 349 
3 317 318 316 
3 323 352 350 
3 319 351 324 
3 351 354 324 
3 320 321 323 
3 323 353 352 
3 323 321 353 
3 321 322 353 
3 353 322 325 
3 355 353 325 
3 324 354 356 
3 326 324 356 
3 356 327 326 
3 359 327 356 
3 325 328 355 
3 355 328 360 
3 327 359 361 
3 329 327 361 
3 330 329 362 
3 329 361 362 
3 332 363 337 
3 332 330 363 
3 330 362 363 
3 363 367 337 
3 338 368 364 
3 338 331 333 
3 338 364 331 
3 364 365 331 
3 360 328 331 
3 365 360 331 
3 332 337 334 
3 337 367 369 
3 337 369 334 
3 334 369 335 
3 368 338 336 
3 368 336 369 
3 369 336 335 
3 333 336 338 
3 343 371 373 
3 343 344 372 
3 371 343 372 
3 372 344 374 
3 339 375 378 
3 345 339 378 
3 340 376 339 
3 339 376 375 
3 373 341 343 
3 373 376 341 
3 376 340 341 
3 342 343 341 
3 344 343 342 
3 344 342 346 
3 344 346 374 
3 374 346 379 
3 347 380 381 
3 348 347 381 
3 378 347 345 
3 380 347 378 
3 346 349 379 
3 379 349 382 
3 348 381 351 
3 381 384 351 
3 349 383 382 
3 350 383 349 
3 383 350 352 
3 385 383 352 
3 386 357 354 
3 386 354 384 
3 384 354 351 
3 386 387 357 
3 358 352 353 
3 358 388 352 
3 388 385 352 
3 353 355 358 
3 354 357 356 
3 357 359 356 
3 357 387 359 
3 387 390 359 
3 366 388 358 
3 391 388 366 
3 355 360 366 
3 358 355 366 
3 359 390 392 
3 361 359 392 
3 362 361 393 
3 361 392 393 
3 363 362 394 
3 362 393 394 
3 367 395 370 
3 367 363 395 
3 363 394 395 
3 370 364 368 
3 370 395 364 
3 395 396 364 
3 391 366 365 
3 391 365 396 
3 396 365 364 
3 360 365 366 
3 367 370 369 
3 368 369 370 
3 377 398 401 
3 377 373 371 
3 377 371 398 
3 398 371 399 
3 372 400 371 
3 371 400 399 
3 400 372 374 
3 402 400 374 
3 375 403 404 
3 378 375 404 
3 401 376 377 
3 401 403 376 
3 403 375 376 
3 373 377 376 
3 374 379 402 
3 402 379 405 
3 380 406 407 
3 381 380 407 
3 404 380 378 
3 406 380 404 
3 379 382 405 
3 405 382 408 
3 381 407 384 
3 407 410 384 
3 382 409 408 
3 383 409 382 
3 409 383 385 
3 411 409 385 
3 389 386 384 
3 389 384 413 
3 413 384 410 
3 386 389 387 
3 385 388 411 
3 411 388 414 
3 389 413 415 
3 415 387 389 
3 415 419 387 
3 419 390 387 
3 397 420 416 
3 397 416 414 
3 397 414 391 
3 391 414 388 
3 390 419 421 
3 392 390 421 
3 393 392 422 
3 392 421 422 
3 394 393 423 
3 393 422 423 
3 395 394 424 
3 394 423 424 
3 420 397 396 
3 420 396 424 
3 424 396 395 
3 391 396 397 
3 398 428 431 
3 401 398 431 
3 399 429 398 
3 398 429 428 
3 400 430 399 
3 399 430 429 
3 430 400 402 
3 432 430 402 
3 403 433 435 
3 404 403 435 
3 431 403 401 
3 433 403 431 
3 402 405 432 
3 432 405 436 
3 406 437 439 
3 407 406 439 
3 435 406 404 
3 437 406 435 
3 405 408 436 
3 436 408 440 
3 407 439 410 
3 439 443 410 
3 412 408 409 
3 412 444 408 
3 444 440 408 
3 409 411 412 
3 445 417 413 
3 445 413 443 
3 443 413 410 
3 445 448 417 
3 418 444 412 
3 449 444 418 
3 411 414 418 
3 412 411 418 
3 413 417 415 
3 419 450 425 
3 415 450 419 
3 415 448 450 
3 415 417 448 
3 425 451 426 
3 450 451 425 
3 426 452 427 
3 451 452 426 
3 452 454 427 
3 416 449 418 
3 416 420 449 
3 420 455 449 
3 414 416 418 
3 419 425 421 
3 422 421 425 
3 426 422 425 
3 423 422 426 
3 427 423 426 
3 427 454 456 
3 427 456 423 
3 423 456 424 
3 455 420 424 
3 456 455 424 
3 434 458 462 
3 434 431 428 
3 434 428 458 
3 458 428 459 
3 429 460 428 
3 428 460 459 
3 430 461 429 
3 429 461 460 
3 461 430 432 
3 463 461 432 
3 433 434 462 
3 433 462 435 
3 435 462 465 
3 431 434 433 
3 438 466 464 
3 438 464 463 
3 438 463 436 
3 436 463 432 
3 437 441 439 
3 437 467 441 
3 437 435 467 
3 435 465 467 
3 442 466 438 
3 468 466 442 
3 436 440 442 
3 438 436 442 
3 441 446 443 
3 439 441 443 
3 469 441 467 
3 446 441 469 
3 447 468 442 
3 470 468 447 
3 440 444 447 
3 442 440 447 
3 443 446 445 
3 448 471 453 
3 445 471 448 
3 445 469 471 
3 445 446 469 
3 471 473 453 
3 447 472 470 
3 472 447 444 
3 472 444 474 
3 474 444 449 
3 448 453 450 
3 453 473 475 
3 453 475 450 
3 450 475 451 
3 457 475 476 
3 457 452 475 
3 452 451 475 
3 452 457 454 
3 449 455 474 
3 474 455 477 
3 457 476 478 
3 454 457 478 
3 454 478 456 
3 456 478 479 
3 477 455 456 
3 479 477 456 
3 458 480 484 
3 462 458 484 
3 459 481 458 
3 458 481 480 
3 460 482 459 
3 459 482 481 
3 461 483 460 
3 460 483 482 
3 483 461 463 
3 485 483 463 
3 462 484 465 
3 484 487 465 
3 464 488 486 
3 466 488 464 
3 485 463 464 
3 486 485 464 
3 465 487 467 
3 487 490 467 
3 466 468 488 
3 488 468 491 
3 467 490 469 
3 490 493 469 
3 468 470 491 
3 491 470 494 
3 469 493 495 
3 471 469 495 
3 495 473 471 
3 497 473 495 
3 470 496 494 
3 472 496 470 
3 496 472 474 
3 498 496 474 
3 473 497 499 
3 475 473 499 
3 499 476 475 
3 500 476 499 
3 474 477 498 
3 498 477 501 
3 476 500 502 
3 478 476 502 
3 479 478 503 
3 478 502 503 
3 501 477 479 
3 503 501 479 
3 480 504 508 
3 484 480 508 
3 481 505 480 
3 480 505 504 
3 482 506 481 
3 481 506 505 
3 483 507 482 
3 482 507 506 
3 507 483 485 
3 509 507 485 
3 489 510 513 
3 489 508 510 
3 489 487 508 
3 487 484 508 
3 486 514 511 
3 488 514 486 
3 509 485 486 
3 511 509 486 
3 489 513 515 
3 515 487 489 
3 515 518 487 
3 518 490 487 
3 492 519 516 
3 492 516 514 
3 492 514 491 
3 491 514 488 
3 490 518 493 
3 518 521 493 
3 492 520 519 
3 520 492 491 
3 520 491 522 
3 522 491 494 
3 493 521 523 
3 495 493 523 
3 523 497 495 
3 525 497 523 
3 494 524 522 
3 496 524 494 
3 524 496 498 
3 526 524 498 
3 497 525 527 
3 499 497 527 
3 527 500 499 
3 528 500 527 
3 498 501 526 
3 526 501 529 
3 500 528 530 
3 502 500 530 
3 503 502 531 
3 502 530 531 
3 529 501 503 
3 531 529 503 
3 504 533 536 
3 508 504 536 
3 505 534 504 
3 504 534 533 
3 506 535 505 
3 505 535 534 
3 512 537 535 
3 512 535 507 
3 507 535 506 
3 507 509 512 
3 510 538 541 
3 513 510 541 
3 536 510 508 
3 538 510 536 
3 539 514 517 
3 539 537 514 
3 511 514 512 
3 512 514 537 
3 511 512 509 
3 517 542 539 
3 513 541 543 
3 515 513 543 
3 543 518 515 
3 547 518 543 
3 516 548 544 
3 519 548 516 
3 517 514 516 
3 517 516 545 
3 545 516 544 
3 542 517 545 
3 518 547 521 
3 547 551 521 
3 519 549 548 
3 520 549 519 
3 549 520 522 
3 552 549 522 
3 521 551 553 
3 523 521 553 
3 553 525 523 
3 556 525 553 
3 522 554 552 
3 524 554 522 
3 554 524 526 
3 557 554 526 
3 525 556 558 
3 527 525 558 
3 558 528 527 
3 561 528 558 
3 532 562 559 
3 532 559 557 
3 532 557 529 
3 529 557 526 
3 528 561 563 
3 530 528 563 
3 562 532 531 
3 562 531 563 
3 563 531 530 
3 529 531 532 
3 540 564 568 
3 540 536 533 
3 540 533 564 
3 564 533 565 
3 534 566 533 
3 533 566 565 
3 535 567 534 
3 534 567 566 
3 567 535 537 
3 569 567 537 
3 538 540 568 
3 538 568 541 
3 541 568 572 
3 536 540 538 
3 546 573 570 
3 570 574 546 
3 537 571 569 
3 539 571 537 
3 571 539 542 
3 575 571 542 
3 541 572 576 
3 543 541 576 
3 576 547 543 
3 580 547 576 
3 546 577 573 
3 581 546 548 
3 581 577 546 
3 548 546 544 
3 574 578 546 
3 544 546 578 
3 550 578 582 
3 550 545 578 
3 545 544 578 
3 545 550 583 
3 545 583 542 
3 542 583 575 
3 547 580 551 
3 580 587 551 
3 548 584 581 
3 549 584 548 
3 552 555 550 
3 552 550 584 
3 552 584 549 
3 584 550 582 
3 588 583 550 
3 555 588 550 
3 560 553 551 
3 560 551 589 
3 589 551 587 
3 553 560 556 
3 552 554 555 
3 555 554 557 
3 555 557 588 
3 588 557 590 
3 560 589 591 
3 556 560 591 
3 556 591 558 
3 558 591 592 
3 592 561 558 
3 594 561 592 
3 559 595 593 
3 562 595 559 
3 590 557 559 
3 593 590 559 
3 561 594 596 
3 563 561 596 
3 595 562 563 
3 596 595 563 
3 564 597 601 
3 568 564 601 
3 565 598 564 
3 564 598 597 
3 566 599 565 
3 565 599 598 
3 567 600 566 
3 566 600 599 
3 600 567 569 
3 602 600 569 
3 568 601 572 
3 601 605 572 
3 570 573 579 
3 570 579 574 
3 569 603 602 
3 571 603 569 
3 603 571 575 
3 606 603 575 
3 585 576 572 
3 585 572 608 
3 608 572 605 
3 576 585 580 
3 573 577 579 
3 581 579 577 
3 581 586 579 
3 574 579 578 
3 578 579 586 
3 578 586 582 
3 575 583 606 
3 606 583 609 
3 585 608 610 
3 610 580 585 
3 610 611 580 
3 611 587 580 
3 581 584 586 
3 582 586 584 
3 583 588 609 
3 609 588 612 
3 587 611 589 
3 611 615 589 
3 588 590 612 
3 612 590 616 
3 589 615 617 
3 591 589 617 
3 592 591 618 
3 591 617 618 
3 618 594 592 
3 621 594 618 
3 593 622 619 
3 595 622 593 
3 616 590 593 
3 619 616 593 
3 594 621 623 
3 596 594 623 
3 622 595 596 
3 623 622 596 
3 597 625 628 
3 601 597 628 
3 598 626 597 
3 597 626 625 
3 599 627 598 
3 598 627 626 
3 604 629 627 
3 604 627 600 
3 600 627 599 
3 600 602 604 
3 601 628 605 
3 628 631 605 
3 604 630 629 
3 607 632 630 
3 603 607 630 
3 603 630 604 
3 603 604 602 
3 603 606 607 
3 605 631 608 
3 631 636 608 
3 607 633 632 
3 633 607 606 
3 633 606 637 
3 637 606 609 
3 613 610 608 
3 613 608 640 
3 640 608 636 
3 610 613 611 
3 614 641 638 
3 614 638 637 
3 614 637 612 
3 612 637 609 
3 613 640 642 
3 642 611 613 
3 642 644 611 
3 644 615 611 
3 620 641 614 
3 645 641 620 
3 612 616 620 
3 614 612 620 
3 615 644 646 
3 617 615 646 
3 618 617 647 
3 617 646 647 
3 621 648 624 
3 621 618 648 
3 618 647 648 
3 645 624 648 
3 620 624 645 
3 620 622 624 
3 620 619 622 
3 616 619 620 
3 621 624 623 
3 622 623 624 
3 625 651 654 
3 628 625 654 
3 626 652 625 
3 625 652 651 
3 627 653 626 
3 626 653 652 
3 653 627 629 
3 655 653 629 
3 656 634 631 
3 656 631 654 
3 654 631 628 
3 656 659 634 
3 635 629 630 
3 635 660 629 
3 660 655 629 
3 630 632 635 
3 634 661 664 
3 634 664 631 
3 631 664 636 
3 659 661 634 
3 635 662 660 
3 639 665 662 
3 633 639 662 
3 633 662 635 
3 633 635 632 
3 633 637 639 
3 636 664 640 
3 664 670 640 
3 643 671 666 
3 665 643 666 
3 639 643 665 
3 639 641 643 
3 639 638 641 
3 637 638 639 
3 640 670 672 
3 642 640 672 
3 672 644 642 
3 676 644 672 
3 649 677 673 
3 671 649 673 
3 671 643 649 
3 643 650 649 
3 641 645 650 
3 643 641 650 
3 644 676 678 
3 646 644 678 
3 677 649 647 
3 677 647 678 
3 678 647 646 
3 648 647 649 
3 650 648 649 
3 645 648 650 
3 651 657 654 
3 681 657 651 
3 681 651 680 
3 680 651 652 
3 658 682 680 
3 658 680 653 
3 653 680 652 
3 653 655 658 
3 654 657 656 
3 657 659 656 
3 657 681 659 
3 681 684 659 
3 663 682 658 
3 685 682 663 
3 655 660 663 
3 658 655 663 
3 661 667 664 
3 661 687 667 
3 661 659 687 
3 659 684 687 
3 668 685 663 
3 688 685 668 
3 660 662 669 
3 660 669 663 
3 663 669 668 
3 662 665 669 
3 667 674 670 
3 664 667 670 
3 690 667 687 
3 674 667 690 
3 675 688 668 
3 691 688 675 
3 666 671 675 
3 666 675 669 
3 669 675 668 
3 665 666 669 
3 670 674 672 
3 676 692 679 
3 672 692 676 
3 672 690 692 
3 672 674 690 
3 691 679 692 
3 675 679 691 
3 675 677 679 
3 675 673 677 
3 671 673 675 
3 676 679 678 
3 677 678 679 
3 680 683 681 
3 680 682 683 
3 683 686 684 
3 681 683 684 
3 682 685 686 
3 683 682 686 
3 686 689 687 
3 684 686 687 
3 685 688 689 
3 686 685 689 
3 689 693 690 
3 687 689 690 
3 688 691 693 
3 689 688 693 
3 690 693 692 
3 691 692 693 
