ply
format ascii 1.0
comment VCGLIB generated
element vertex 440
property float x
property float y
property float z
element face 876
property list uchar int vertex_indices
end_header
-0.03083385 0.1596265 1.73199 
-0.03229827 0.1583687 1.731833 
-0.02907468 0.1587702 1.731533 
-0.03045527 0.1576095 1.73095 
-0.0320606 0.1560995 1.731148 
-0.02721884 0.1575676 1.731743 
-0.0286427 0.1569306 1.730842 
-0.02971538 0.1550599 1.730712 
-0.02548922 0.1562519 1.732295 
-0.02697217 0.1551495 1.731196 
-0.03109639 0.1613737 1.733923 
-0.03235304 0.1601815 1.733086 
-0.02958895 0.1603839 1.732769 
-0.03380589 0.159045 1.733611 
-0.03385232 0.156735 1.732466 
-0.02787557 0.1596287 1.733057 
-0.03358239 0.1547272 1.731886 
-0.03417828 0.1524502 1.732779 
-0.02578247 0.1581573 1.733551 
-0.03197184 0.1535353 1.731353 
-0.0298831 0.1525063 1.731195 
-0.03185167 0.1502386 1.732577 
-0.02374613 0.1561345 1.733986 
-0.02801243 0.1531925 1.731026 
-0.02441472 0.1540821 1.732557 
-0.02599711 0.152705 1.731737 
-0.02169278 0.1561153 1.736326 
-0.02776656 0.1505432 1.73211 
-0.0296024 0.1473099 1.733366 
-0.01957273 0.1537246 1.736725 
-0.02187493 0.153624 1.734508 
-0.02344105 0.1506357 1.733482 
-0.0259507 0.1475164 1.733598 
-0.01975294 0.1511177 1.735561 
-0.03313193 0.1726545 1.742295 
-0.03178909 0.1712236 1.74135 
-0.03330683 0.1694456 1.740963 
-0.03107658 0.1637174 1.736792 
-0.03342532 0.1616147 1.735761 
-0.03058288 0.1703603 1.741192 
-0.03094634 0.1676337 1.739808 
-0.03340151 0.1653835 1.739005 
-0.02910544 0.1616992 1.734891 
-0.03484064 0.1595143 1.735532 
-0.03545393 0.1570136 1.734932 
-0.03513602 0.1545619 1.733458 
-0.03497367 0.1605748 1.736889 
-0.02678452 0.1605278 1.735523 
-0.03601606 0.1522321 1.734563 
-0.02420067 0.1585603 1.736182 
-0.03549104 0.1494343 1.734727 
-0.02223746 0.1581162 1.738153 
-0.02035483 0.1596551 1.741673 
-0.03644105 0.146433 1.736172 
-0.0195869 0.1566265 1.739569 
-0.03337657 0.1461943 1.734676 
-0.03056114 0.1450421 1.734334 
-0.01879228 0.158506 1.741976 
-0.03558617 0.1449397 1.736124 
-0.01786884 0.1530217 1.738825 
-0.02794405 0.1448284 1.734491 
-0.01823252 0.1518123 1.736964 
-0.02273526 0.1470391 1.734796 
-0.02487709 0.1452106 1.73486 
-0.02986343 0.1438825 1.734841 
-0.0181368 0.1505666 1.736713 
-0.02063951 0.1487508 1.73525 
-0.01848944 0.1487554 1.737081 
-0.01745355 0.1505469 1.738228 
-0.02022251 0.1463881 1.736541 
-0.02263659 0.1441603 1.736405 
-0.01842165 0.1460073 1.738679 
-0.02022767 0.1439765 1.738217 
-0.03310792 0.1750276 1.743845 
-0.03161876 0.1740391 1.742953 
-0.03415688 0.1735372 1.743746 
-0.03415411 0.1714828 1.742493 
-0.03197871 0.1762588 1.744533 
-0.0306531 0.1721944 1.742092 
-0.03467862 0.1693752 1.742536 
-0.03439452 0.1673287 1.741 
-0.02950284 0.1710229 1.742171 
-0.03490184 0.1651027 1.740894 
-0.02967177 0.1690759 1.741149 
-0.02900365 0.1671304 1.740537 
-0.02817797 0.1638594 1.738545 
-0.03524943 0.1619881 1.739422 
-0.03600511 0.1587538 1.737818 
-0.03682831 0.1559618 1.73759 
-0.03666475 0.1540113 1.735935 
-0.02135197 0.1697364 1.746508 
-0.02241214 0.1684172 1.745331 
-0.02788551 0.1660598 1.740906 
-0.0365019 0.1593502 1.740775 
-0.02576004 0.1610145 1.737816 
-0.03752628 0.1507949 1.737203 
-0.02081536 0.1612048 1.742714 
-0.03750683 0.1481185 1.736891 
-0.02050901 0.1660313 1.745632 
-0.01918744 0.1612818 1.744023 
-0.02194765 0.1610263 1.741996 
-0.02398668 0.1599932 1.738858 
-0.03800649 0.1462923 1.738026 
-0.02216403 0.1595374 1.740312 
-0.01854689 0.1637027 1.746182 
-0.01766486 0.1581234 1.743619 
-0.03704802 0.1442078 1.737945 
-0.01786954 0.1567579 1.74184 
-0.03447532 0.1434027 1.736628 
-0.03590246 0.1413655 1.739153 
-0.01723993 0.1542533 1.741747 
-0.03167049 0.1435567 1.73547 
-0.02910467 0.1426146 1.73594 
-0.01703621 0.1560612 1.743249 
-0.0319697 0.1410239 1.737713 
-0.03385476 0.1389304 1.740082 
-0.01685628 0.1510127 1.740987 
-0.02586797 0.1430274 1.736055 
-0.01718292 0.1480179 1.740113 
-0.02409193 0.1419178 1.73747 
-0.02725067 0.1403072 1.738261 
-0.03069132 0.13841 1.739784 
-0.01759085 0.1454839 1.740713 
-0.022052 0.142344 1.738142 
-0.01886953 0.1437546 1.74037 
-0.02099725 0.1418312 1.740056 
-0.01803358 0.1440436 1.742231 
-0.02358921 0.1405862 1.739266 
-0.02538362 0.1388754 1.740397 
-0.02790204 0.1377811 1.740699 
-0.03297438 0.1769266 1.745863 
-0.034008 0.1753824 1.745189 
-0.02894933 0.1822019 1.750678 
-0.03079267 0.1807171 1.749399 
-0.03101448 0.1781197 1.746574 
-0.03478375 0.1739649 1.745924 
-0.03061792 0.1759139 1.74452 
-0.03489729 0.1716025 1.744324 
-0.02687722 0.1813441 1.750097 
-0.02869943 0.179756 1.748378 
-0.02943243 0.173506 1.74355 
-0.03540725 0.1689213 1.745092 
-0.03526044 0.1667821 1.742869 
-0.02568926 0.1778665 1.748271 
-0.02865134 0.1764556 1.745903 
-0.02833848 0.171501 1.743182 
-0.03582819 0.1636222 1.743278 
-0.02186804 0.1719563 1.747208 
-0.02317558 0.1709545 1.745927 
-0.02795639 0.1688288 1.742295 
-0.03632738 0.1608974 1.742538 
-0.02297974 0.1770374 1.749656 
-0.0234076 0.1740308 1.747427 
-0.02625854 0.1722491 1.744904 
-0.02090655 0.1712461 1.747614 
-0.02410165 0.1690363 1.744726 
-0.02689311 0.1661266 1.741974 
-0.03710087 0.1585412 1.743742 
-0.01988675 0.1695766 1.748118 
-0.02694791 0.1644685 1.740806 
-0.03737698 0.1564411 1.740972 
-0.03781589 0.1534813 1.739188 
-0.0211577 0.1734655 1.749217 
-0.02550252 0.167243 1.743348 
-0.01846127 0.1661122 1.74822 
-0.02308995 0.1662842 1.744224 
-0.02562392 0.162324 1.740116 
-0.03877388 0.1505813 1.741042 
-0.02183687 0.1630967 1.743399 
-0.03863651 0.1480439 1.739333 
-0.0186314 0.1686863 1.749893 
-0.02402627 0.1641465 1.742917 
-0.02566835 0.1643365 1.74194 
-0.01755826 0.1631704 1.747826 
-0.02315572 0.1622064 1.742372 
-0.02393033 0.160924 1.740568 
-0.03880317 0.145175 1.740691 
-0.01778004 0.1617841 1.746135 
-0.02318559 0.1610703 1.741466 
-0.0379895 0.1427737 1.7402 
-0.02436807 0.1623588 1.741686 
-0.01732032 0.1593931 1.746174 
-0.03771211 0.1411541 1.741282 
-0.01713801 0.1611794 1.747456 
-0.01684778 0.1564593 1.745541 
-0.03633508 0.1394019 1.741508 
-0.01663917 0.1544262 1.744403 
-0.03455191 0.1376174 1.742138 
-0.01654549 0.1515987 1.744576 
-0.03250508 0.1373348 1.741183 
-0.016686 0.1485228 1.743423 
-0.01718447 0.1459161 1.742763 
-0.01824609 0.1437524 1.744694 
-0.03032506 0.1367888 1.741672 
-0.01994214 0.1418389 1.742981 
-0.02304094 0.1394947 1.742003 
-0.02594718 0.1375697 1.742302 
-0.02823747 0.1366256 1.742477 
-0.0291236 0.1835434 1.752989 
-0.03056639 0.1823909 1.751494 
-0.02722759 0.1831655 1.751985 
-0.03208045 0.1809217 1.751191 
-0.03263232 0.1788474 1.74853 
-0.03417513 0.1764196 1.747685 
-0.02726174 0.1840091 1.753609 
-0.02573046 0.1823273 1.751419 
-0.03504076 0.1743631 1.748205 
-0.0252109 0.1807877 1.750294 
-0.03536367 0.1715961 1.747545 
-0.0255145 0.1832055 1.753165 
-0.03471504 0.1757854 1.749923 
-0.02405692 0.1795497 1.75029 
-0.03571094 0.1678835 1.74866 
-0.02294039 0.1794571 1.751832 
-0.0358131 0.1659601 1.745675 
-0.02358597 0.1816796 1.753729 
-0.0243335 0.1814516 1.75176 
-0.02175193 0.1768814 1.751426 
-0.03615546 0.1635414 1.746529 
-0.03660484 0.1609072 1.745983 
-0.03599942 0.1649766 1.748316 
-0.02060975 0.1748389 1.752379 
-0.03734482 0.1579491 1.74718 
-0.01949403 0.1714204 1.750851 
-0.03793063 0.1557728 1.745174 
-0.03849266 0.1532468 1.743098 
-0.0185733 0.1691251 1.75249 
-0.03924301 0.150465 1.744898 
-0.01796526 0.1669864 1.75057 
-0.03935729 0.1478168 1.742933 
-0.01754676 0.1643961 1.750572 
-0.03940747 0.1451746 1.744534 
-0.03875728 0.1427517 1.742725 
-0.01788144 0.1664401 1.75242 
-0.01709785 0.1616327 1.749538 
-0.03783849 0.140442 1.743541 
-0.01693388 0.1597224 1.748537 
-0.01697696 0.156948 1.74906 
-0.03633953 0.1383524 1.743694 
-0.01669812 0.1535384 1.747569 
-0.03447946 0.1369741 1.744175 
-0.01667725 0.1507145 1.74774 
-0.0324454 0.1365209 1.742917 
-0.01682422 0.1486619 1.746745 
-0.01732872 0.1460823 1.745836 
-0.01718639 0.1489666 1.749341 
-0.01870144 0.1437929 1.747867 
-0.03000993 0.136139 1.743629 
-0.02009735 0.1416696 1.74655 
-0.02240896 0.1396046 1.745298 
-0.02467473 0.1379526 1.744201 
-0.02736737 0.1366546 1.744479 
-0.0295934 0.1361118 1.74534 
-0.02808368 0.1839699 1.754997 
-0.02995071 0.1834561 1.754589 
-0.03109808 0.1825815 1.753208 
-0.0263527 0.1840111 1.754585 
-0.03247758 0.1806513 1.75343 
-0.0336384 0.1782888 1.751047 
-0.02626227 0.1835575 1.755781 
-0.02485813 0.1832198 1.754833 
-0.03441982 0.1756901 1.752368 
-0.03514201 0.173475 1.750414 
-0.03540697 0.1705361 1.750948 
-0.02459567 0.1824259 1.755957 
-0.02365784 0.1822792 1.755077 
-0.03545871 0.1679644 1.75211 
-0.02297018 0.1812848 1.754748 
-0.02331141 0.1812715 1.755483 
-0.03512967 0.1698235 1.753281 
-0.0222869 0.1788668 1.754285 
-0.03571451 0.1653123 1.751173 
-0.03621064 0.1623331 1.749627 
-0.03683783 0.1595902 1.749052 
-0.02091368 0.1752989 1.755022 
-0.03725539 0.1573813 1.750223 
-0.0196567 0.1724426 1.753672 
-0.03786677 0.1556649 1.748456 
-0.03864211 0.1529666 1.747328 
-0.0203996 0.1730781 1.75585 
-0.01961641 0.1704432 1.755499 
-0.03926951 0.15054 1.747431 
-0.0394075 0.1479879 1.747285 
-0.03882013 0.1509473 1.749737 
-0.01865264 0.1671458 1.755074 
-0.03943045 0.1452758 1.74701 
-0.01796369 0.1644251 1.753825 
-0.03859769 0.1427415 1.746645 
-0.03894173 0.145637 1.749338 
-0.01755058 0.1618478 1.752528 
-0.03716884 0.1395144 1.745897 
-0.01716882 0.1593442 1.751115 
-0.01788134 0.1594512 1.753948 
-0.03693085 0.1406927 1.748802 
-0.0178038 0.1565197 1.753323 
-0.03584442 0.1377987 1.745409 
-0.01744607 0.1536564 1.751534 
-0.01724941 0.1509716 1.750366 
-0.03431763 0.1371265 1.746039 
-0.03477335 0.1396287 1.750212 
-0.03553015 0.1384622 1.747416 
-0.01820049 0.1484786 1.751918 
-0.0320711 0.1363672 1.745254 
-0.01801114 0.1464097 1.74948 
-0.03032604 0.1365816 1.746851 
-0.0286529 0.139896 1.75224 
-0.03169683 0.1392623 1.75108 
-0.03264297 0.1376009 1.748016 
-0.01974331 0.1438043 1.750934 
-0.02829248 0.1366982 1.74656 
-0.02031558 0.1420646 1.749272 
-0.02257406 0.140254 1.748972 
-0.02556999 0.1380427 1.747053 
-0.02578587 0.1394956 1.750631 
-0.02896262 0.1379096 1.748986 
-0.02943572 0.1828986 1.756013 
-0.03115328 0.1820997 1.755041 
-0.02771475 0.1832141 1.75639 
-0.03209479 0.1800297 1.755336 
-0.03327348 0.1780666 1.754069 
-0.028295 0.1814878 1.757199 
-0.03049111 0.1806708 1.756588 
-0.02620097 0.182085 1.756867 
-0.03365293 0.1752751 1.754763 
-0.03464834 0.1724893 1.753452 
-0.0263891 0.1795543 1.757834 
-0.02897431 0.1783458 1.757907 
-0.03181984 0.1771512 1.756511 
-0.02411594 0.1801412 1.756626 
-0.03443721 0.1700268 1.75496 
-0.03491041 0.1682322 1.754267 
-0.02444911 0.1777748 1.757874 
-0.02634544 0.1757722 1.758855 
-0.02981805 0.1738299 1.758676 
-0.03295453 0.1723302 1.756462 
-0.02257374 0.1771605 1.756641 
-0.03511941 0.1662572 1.753762 
-0.0215329 0.1746725 1.756843 
-0.03523738 0.1626984 1.754093 
-0.03647798 0.1595235 1.751765 
-0.02332528 0.1751433 1.758137 
-0.03133049 0.1696711 1.758778 
-0.03374213 0.1672466 1.75637 
-0.02155432 0.1720668 1.757761 
-0.03692138 0.1573025 1.752218 
-0.03760579 0.1543978 1.751705 
-0.0345662 0.1601309 1.756549 
-0.03600097 0.1579617 1.754354 
-0.02034645 0.1684086 1.757795 
-0.03825628 0.1513855 1.751959 
-0.03843117 0.1486473 1.751672 
-0.02037993 0.1657133 1.758825 
-0.03738301 0.1516504 1.753818 
-0.0192559 0.1661371 1.757192 
-0.03837065 0.1460639 1.75155 
-0.01860579 0.164813 1.756079 
-0.01893296 0.1618614 1.756342 
-0.03753326 0.1436828 1.751149 
-0.0192713 0.1644421 1.757543 
-0.0200538 0.1636013 1.758497 
-0.03745173 0.146601 1.753327 
-0.01887894 0.1578612 1.756105 
-0.03623286 0.1412904 1.751136 
-0.03524941 0.1408593 1.751871 
-0.02006379 0.1557366 1.757698 
-0.03544537 0.1424392 1.753073 
-0.01887092 0.1553484 1.755986 
-0.03372851 0.1408007 1.752563 
-0.01858121 0.1534361 1.754828 
-0.01840807 0.1508963 1.75352 
-0.02864658 0.1412869 1.754122 
-0.03099496 0.1412479 1.753845 
-0.01966644 0.1536922 1.75692 
-0.02637085 0.1444996 1.756688 
-0.03334327 0.1425028 1.754493 
-0.01974077 0.1483908 1.754837 
-0.02602931 0.1417173 1.753992 
-0.01962251 0.1460009 1.752959 
-0.02365619 0.1441597 1.755691 
-0.02141046 0.143834 1.753607 
-0.02366696 0.1408675 1.751874 
-0.02161977 0.1419343 1.751519 
-0.02313337 0.1422602 1.753526 
-0.02715144 0.1718695 1.760018 
-0.02928385 0.1704702 1.760006 
-0.02429677 0.1724342 1.759411 
-0.0298614 0.1678474 1.760164 
-0.0315537 0.1656816 1.759126 
-0.03340155 0.1628907 1.757586 
-0.02514316 0.1693103 1.760478 
-0.02774574 0.1684235 1.76069 
-0.02261211 0.1695329 1.759502 
-0.03328601 0.1597905 1.758249 
-0.02159891 0.1673339 1.759574 
-0.03448569 0.1572005 1.757121 
-0.03609143 0.1544661 1.755342 
-0.02332128 0.1669715 1.76045 
-0.02576151 0.1658168 1.76088 
-0.02888085 0.1644135 1.760531 
-0.03147119 0.1615733 1.759457 
-0.02186989 0.165618 1.760054 
-0.03601246 0.151802 1.755932 
-0.02123435 0.164109 1.759637 
-0.03685248 0.1492913 1.75475 
-0.0232107 0.1635972 1.760416 
-0.02613805 0.1615458 1.760733 
-0.02911374 0.1593645 1.760308 
-0.03208512 0.156952 1.759022 
-0.03433741 0.1537558 1.757446 
-0.02112046 0.1617956 1.759104 
-0.0360135 0.1473551 1.755329 
-0.02056996 0.1586528 1.758286 
-0.03605711 0.1449682 1.754223 
-0.02326095 0.1589067 1.759941 
-0.02642851 0.1568524 1.760335 
-0.02929846 0.1545917 1.759771 
-0.03203318 0.1521925 1.758565 
-0.03465824 0.149879 1.756858 
-0.0217352 0.156051 1.759046 
-0.03455681 0.1439786 1.754979 
-0.02671221 0.1469706 1.758145 
-0.033048 0.1442298 1.755872 
-0.0238338 0.1539401 1.759527 
-0.02677013 0.1528149 1.759754 
-0.02901907 0.1494529 1.75871 
-0.032283 0.1486501 1.757754 
-0.03410178 0.146318 1.756246 
-0.02122838 0.1534039 1.758289 
-0.02461747 0.1462729 1.757612 
-0.0284563 0.1458208 1.757511 
-0.03157115 0.1432233 1.755586 
-0.02008609 0.1511469 1.756492 
-0.02902487 0.1431779 1.75574 
-0.0223739 0.1505783 1.758261 
-0.02516792 0.1495432 1.758832 
-0.0311318 0.1457224 1.757014 
-0.02126656 0.1486208 1.7569 
-0.02312759 0.1458703 1.756968 
-0.02158003 0.146169 1.75578 
-0.02296457 0.1476673 1.757688 
3 0 10 12 
3 0 1 11 
3 10 0 11 
3 11 1 13 
3 2 0 12 
3 15 2 12 
3 1 0 3 
3 3 0 2 
3 14 13 1 
3 14 1 4 
3 4 1 3 
3 14 4 16 
3 5 2 15 
3 18 5 15 
3 3 2 6 
3 6 2 5 
3 4 3 7 
3 7 3 6 
3 19 16 4 
3 7 19 4 
3 8 5 18 
3 22 8 18 
3 6 5 9 
3 9 5 8 
3 23 20 7 
3 23 7 9 
3 9 7 6 
3 19 7 20 
3 8 22 24 
3 9 8 24 
3 25 9 24 
3 23 9 25 
3 10 37 42 
3 12 10 42 
3 11 38 10 
3 10 38 37 
3 38 11 13 
3 43 38 13 
3 12 42 15 
3 42 47 15 
3 13 44 43 
3 14 44 13 
3 16 17 45 
3 16 45 14 
3 14 45 44 
3 45 17 48 
3 15 47 18 
3 47 49 18 
3 17 19 21 
3 16 19 17 
3 50 48 17 
3 21 50 17 
3 26 51 54 
3 26 49 51 
3 26 22 49 
3 22 18 49 
3 20 23 27 
3 20 21 19 
3 20 27 21 
3 27 28 21 
3 55 50 21 
3 28 55 21 
3 29 26 54 
3 59 29 54 
3 22 30 24 
3 22 26 30 
3 26 29 30 
3 24 31 25 
3 30 31 24 
3 25 27 23 
3 25 31 27 
3 31 32 27 
3 60 56 28 
3 60 28 32 
3 32 28 27 
3 55 28 56 
3 29 59 61 
3 61 65 33 
3 61 33 29 
3 29 33 30 
3 66 62 31 
3 66 31 33 
3 33 31 30 
3 32 31 62 
3 63 32 62 
3 60 32 63 
3 33 65 67 
3 66 33 67 
3 34 73 74 
3 73 34 75 
3 35 34 74 
3 78 35 74 
3 76 75 34 
3 76 34 36 
3 36 34 35 
3 76 36 79 
3 39 35 78 
3 81 39 78 
3 36 35 40 
3 40 35 39 
3 80 79 36 
3 80 36 41 
3 41 36 40 
3 80 41 82 
3 39 81 83 
3 40 39 83 
3 84 40 83 
3 37 85 42 
3 37 40 85 
3 37 41 40 
3 40 84 85 
3 41 37 38 
3 41 38 86 
3 41 86 82 
3 86 38 46 
3 38 43 46 
3 42 85 47 
3 85 94 47 
3 46 87 86 
3 43 87 46 
3 43 44 87 
3 44 88 87 
3 45 89 44 
3 44 89 88 
3 89 45 48 
3 95 89 48 
3 52 96 99 
3 96 52 100 
3 47 94 49 
3 94 101 49 
3 97 50 53 
3 97 95 50 
3 95 48 50 
3 97 53 102 
3 57 52 99 
3 105 57 99 
3 54 51 103 
3 54 103 52 
3 54 52 57 
3 100 52 103 
3 101 51 49 
3 103 51 101 
3 53 55 58 
3 50 55 53 
3 106 102 53 
3 58 106 53 
3 57 105 107 
3 107 54 57 
3 107 110 54 
3 110 59 54 
3 56 60 64 
3 56 64 111 
3 55 56 111 
3 55 111 108 
3 55 108 58 
3 106 58 108 
3 68 61 59 
3 68 59 116 
3 116 59 110 
3 61 68 65 
3 62 66 69 
3 62 70 63 
3 69 70 62 
3 63 70 117 
3 60 63 117 
3 60 117 112 
3 60 112 64 
3 111 64 112 
3 68 116 118 
3 71 118 122 
3 67 118 71 
3 67 68 118 
3 67 65 68 
3 67 69 66 
3 67 71 69 
3 71 72 69 
3 123 119 70 
3 123 70 72 
3 72 70 69 
3 117 70 119 
3 71 122 124 
3 72 71 124 
3 125 72 124 
3 123 72 125 
3 77 130 134 
3 77 74 73 
3 77 73 130 
3 130 73 131 
3 131 73 75 
3 135 131 75 
3 77 134 136 
3 136 74 77 
3 136 140 74 
3 140 78 74 
3 75 137 135 
3 76 137 75 
3 137 76 79 
3 141 137 79 
3 78 140 81 
3 140 145 81 
3 79 142 141 
3 80 142 79 
3 142 80 82 
3 146 142 82 
3 90 147 154 
3 90 91 148 
3 147 90 148 
3 149 83 81 
3 149 81 145 
3 148 91 155 
3 92 149 156 
3 92 84 149 
3 84 83 149 
3 84 92 85 
3 150 86 93 
3 150 146 86 
3 146 82 86 
3 150 93 157 
3 90 154 158 
3 158 164 98 
3 158 98 90 
3 90 98 91 
3 165 155 91 
3 98 165 91 
3 92 156 159 
3 159 85 92 
3 159 166 85 
3 166 94 85 
3 86 87 93 
3 93 160 157 
3 93 87 160 
3 87 88 160 
3 89 161 88 
3 88 161 160 
3 161 89 95 
3 167 161 95 
3 104 98 164 
3 173 104 164 
3 99 96 168 
3 99 168 98 
3 99 98 104 
3 165 98 168 
3 168 96 100 
3 174 168 100 
3 94 166 101 
3 166 175 101 
3 95 169 167 
3 97 169 95 
3 169 97 102 
3 176 169 102 
3 104 173 177 
3 177 99 104 
3 177 181 99 
3 181 105 99 
3 100 178 174 
3 103 178 100 
3 175 103 101 
3 178 103 175 
3 179 106 109 
3 179 176 106 
3 176 102 106 
3 179 109 182 
3 113 107 105 
3 113 105 184 
3 184 105 181 
3 107 113 110 
3 108 111 114 
3 108 109 106 
3 108 114 109 
3 114 115 109 
3 185 182 109 
3 115 185 109 
3 113 184 186 
3 186 110 113 
3 186 188 110 
3 188 116 110 
3 112 117 120 
3 112 114 111 
3 112 120 114 
3 120 121 114 
3 189 187 115 
3 189 115 121 
3 121 115 114 
3 185 115 187 
3 116 188 190 
3 118 116 190 
3 122 191 126 
3 122 118 191 
3 118 190 191 
3 191 192 126 
3 119 123 127 
3 119 120 117 
3 119 127 120 
3 127 128 120 
3 121 120 129 
3 129 120 128 
3 193 189 121 
3 129 193 121 
3 122 126 124 
3 126 192 194 
3 126 194 124 
3 124 194 125 
3 127 123 125 
3 127 125 195 
3 195 125 194 
3 128 127 195 
3 196 128 195 
3 129 128 196 
3 197 129 196 
3 193 129 197 
3 132 198 200 
3 132 133 199 
3 198 132 199 
3 199 133 201 
3 138 132 200 
3 205 138 200 
3 133 132 139 
3 139 132 138 
3 134 130 202 
3 134 202 133 
3 134 133 139 
3 201 133 202 
3 131 203 130 
3 130 203 202 
3 203 131 135 
3 206 203 135 
3 138 205 207 
3 207 211 143 
3 207 143 138 
3 138 143 139 
3 134 144 136 
3 134 139 144 
3 139 143 144 
3 136 144 140 
3 135 208 206 
3 137 208 135 
3 208 137 141 
3 212 208 141 
3 151 213 217 
3 211 213 151 
3 211 151 143 
3 143 151 152 
3 144 143 153 
3 153 143 152 
3 140 153 145 
3 144 153 140 
3 141 214 212 
3 142 214 141 
3 214 142 146 
3 218 214 146 
3 162 151 217 
3 221 162 217 
3 147 162 154 
3 147 152 162 
3 152 151 162 
3 148 152 147 
3 153 152 148 
3 155 153 148 
3 155 163 153 
3 145 153 149 
3 149 153 163 
3 149 163 156 
3 146 219 218 
3 150 219 146 
3 219 150 157 
3 222 219 157 
3 162 221 223 
3 170 223 226 
3 158 223 170 
3 158 162 223 
3 158 154 162 
3 158 170 164 
3 163 165 171 
3 155 165 163 
3 156 172 159 
3 156 163 172 
3 163 171 172 
3 159 172 166 
3 157 224 222 
3 160 224 157 
3 161 225 160 
3 160 225 224 
3 225 161 167 
3 227 225 167 
3 170 226 228 
3 228 164 170 
3 228 230 164 
3 230 173 164 
3 165 168 171 
3 174 171 168 
3 174 180 171 
3 180 172 171 
3 166 180 175 
3 172 180 166 
3 167 229 227 
3 169 229 167 
3 229 169 176 
3 231 229 176 
3 183 177 173 
3 183 173 234 
3 234 173 230 
3 177 183 181 
3 174 178 180 
3 175 180 178 
3 176 232 231 
3 179 232 176 
3 232 179 182 
3 235 232 182 
3 183 234 236 
3 236 181 183 
3 236 237 181 
3 237 184 181 
3 182 185 235 
3 235 185 238 
3 184 237 239 
3 186 184 239 
3 239 188 186 
3 241 188 239 
3 187 242 240 
3 189 242 187 
3 238 185 187 
3 240 238 187 
3 188 241 243 
3 190 188 243 
3 191 190 244 
3 190 243 244 
3 244 192 191 
3 246 192 244 
3 189 193 242 
3 242 193 247 
3 192 246 248 
3 194 192 248 
3 195 194 249 
3 194 248 249 
3 196 195 250 
3 195 249 250 
3 197 196 251 
3 196 250 251 
3 247 193 197 
3 251 247 197 
3 204 253 256 
3 204 200 198 
3 204 198 253 
3 253 198 254 
3 199 255 198 
3 198 255 254 
3 255 199 201 
3 257 255 201 
3 209 204 256 
3 260 209 256 
3 200 209 205 
3 204 209 200 
3 201 258 257 
3 202 258 201 
3 210 261 258 
3 210 258 203 
3 203 258 202 
3 203 206 210 
3 215 209 260 
3 265 215 260 
3 205 216 207 
3 205 209 216 
3 209 215 216 
3 207 216 211 
3 210 262 261 
3 206 262 210 
3 206 208 262 
3 208 263 262 
3 263 208 212 
3 266 263 212 
3 215 265 267 
3 213 270 217 
3 213 215 270 
3 213 216 215 
3 215 267 270 
3 211 216 213 
3 220 212 214 
3 220 271 212 
3 271 266 212 
3 214 218 220 
3 217 270 221 
3 270 274 221 
3 220 272 271 
3 218 272 220 
3 218 219 272 
3 219 273 272 
3 273 219 222 
3 275 273 222 
3 221 274 276 
3 223 221 276 
3 276 226 223 
3 280 226 276 
3 222 277 275 
3 224 277 222 
3 225 278 224 
3 224 278 277 
3 278 225 227 
3 281 278 227 
3 233 228 226 
3 233 226 284 
3 284 226 280 
3 228 233 230 
3 227 282 281 
3 229 282 227 
3 282 229 231 
3 285 282 231 
3 233 284 286 
3 286 230 233 
3 286 289 230 
3 289 234 230 
3 231 287 285 
3 232 287 231 
3 287 232 235 
3 290 287 235 
3 234 289 291 
3 236 234 291 
3 291 237 236 
3 294 237 291 
3 235 238 290 
3 290 238 295 
3 237 294 296 
3 239 237 296 
3 241 297 245 
3 241 239 297 
3 239 296 297 
3 297 301 245 
3 240 302 298 
3 242 302 240 
3 295 238 240 
3 298 295 240 
3 241 245 243 
3 245 301 303 
3 245 303 243 
3 243 303 244 
3 303 246 244 
3 308 246 303 
3 252 309 304 
3 252 304 302 
3 252 302 247 
3 247 302 242 
3 246 308 310 
3 248 246 310 
3 249 248 311 
3 248 310 311 
3 250 249 312 
3 249 311 312 
3 309 252 251 
3 309 251 312 
3 312 251 250 
3 247 251 252 
3 253 259 256 
3 317 259 253 
3 317 253 315 
3 315 253 254 
3 255 316 254 
3 254 316 315 
3 316 255 257 
3 318 316 257 
3 259 264 260 
3 256 259 260 
3 322 259 317 
3 264 259 322 
3 257 319 318 
3 258 319 257 
3 319 258 261 
3 323 319 261 
3 264 268 265 
3 260 264 265 
3 328 264 322 
3 268 264 328 
3 261 324 323 
3 262 324 261 
3 269 329 324 
3 269 324 263 
3 263 324 262 
3 263 266 269 
3 265 268 267 
3 268 270 267 
3 268 328 270 
3 328 335 270 
3 269 330 329 
3 330 269 266 
3 330 266 336 
3 336 266 271 
3 337 279 274 
3 337 274 335 
3 335 274 270 
3 337 343 279 
3 271 338 336 
3 272 338 271 
3 273 339 272 
3 272 339 338 
3 339 273 275 
3 344 339 275 
3 274 279 276 
3 279 280 276 
3 279 343 280 
3 343 348 280 
3 275 345 344 
3 277 345 275 
3 283 349 345 
3 283 345 278 
3 278 345 277 
3 278 281 283 
3 280 348 284 
3 348 353 284 
3 283 350 349 
3 288 354 350 
3 282 288 350 
3 282 350 283 
3 282 283 281 
3 282 285 288 
3 284 353 355 
3 286 284 355 
3 289 356 292 
3 289 286 356 
3 286 355 356 
3 356 361 292 
3 288 357 354 
3 293 362 357 
3 287 293 357 
3 287 357 288 
3 287 288 285 
3 287 290 293 
3 289 292 291 
3 292 294 291 
3 292 361 294 
3 361 366 294 
3 299 367 363 
3 362 299 363 
3 362 293 299 
3 293 300 299 
3 290 295 300 
3 293 290 300 
3 294 366 368 
3 296 294 368 
3 297 296 369 
3 296 368 369 
3 369 301 297 
3 375 301 369 
3 305 376 370 
3 305 371 306 
3 370 371 305 
3 367 306 371 
3 367 299 306 
3 299 307 306 
3 298 302 307 
3 298 307 300 
3 300 307 299 
3 295 298 300 
3 301 375 377 
3 303 301 377 
3 377 308 303 
3 379 308 377 
3 313 376 305 
3 380 376 313 
3 306 314 305 
3 314 313 305 
3 304 309 314 
3 304 314 307 
3 307 314 306 
3 302 304 307 
3 308 379 381 
3 310 308 381 
3 380 313 311 
3 380 311 381 
3 381 311 310 
3 312 311 313 
3 314 312 313 
3 309 312 314 
3 315 320 317 
3 315 316 321 
3 320 315 321 
3 316 318 321 
3 320 325 322 
3 317 320 322 
3 321 326 320 
3 326 325 320 
3 318 319 327 
3 318 327 321 
3 321 327 326 
3 319 323 327 
3 325 331 328 
3 322 325 328 
3 326 332 325 
3 332 331 325 
3 327 333 326 
3 333 332 326 
3 323 324 334 
3 323 334 327 
3 327 334 333 
3 324 329 334 
3 331 340 335 
3 328 331 335 
3 385 332 383 
3 385 340 332 
3 340 331 332 
3 333 383 332 
3 384 383 333 
3 384 341 386 
3 384 333 341 
3 333 334 341 
3 329 330 342 
3 329 342 334 
3 334 342 341 
3 330 336 342 
3 335 340 337 
3 340 343 337 
3 340 385 343 
3 385 391 343 
3 341 387 386 
3 342 387 341 
3 388 387 342 
3 346 392 388 
3 338 346 388 
3 338 388 342 
3 338 342 336 
3 338 339 347 
3 346 338 347 
3 339 344 347 
3 393 351 348 
3 393 348 391 
3 391 348 343 
3 393 400 351 
3 346 394 392 
3 347 394 346 
3 395 394 347 
3 352 401 395 
3 345 352 395 
3 345 395 347 
3 345 347 344 
3 345 349 352 
3 351 358 353 
3 348 351 353 
3 402 351 400 
3 402 359 351 
3 359 358 351 
3 402 409 359 
3 352 403 401 
3 360 410 403 
3 350 360 403 
3 350 403 352 
3 350 352 349 
3 350 354 360 
3 353 358 355 
3 356 355 358 
3 359 356 358 
3 361 411 364 
3 356 411 361 
3 356 409 411 
3 356 359 409 
3 411 418 364 
3 360 412 410 
3 365 419 412 
3 357 365 412 
3 357 412 360 
3 357 360 354 
3 357 362 365 
3 364 372 366 
3 361 364 366 
3 427 364 418 
3 372 364 427 
3 373 428 420 
3 420 429 373 
3 374 430 421 
3 419 374 421 
3 365 374 419 
3 365 367 374 
3 365 363 367 
3 362 363 365 
3 366 372 368 
3 372 427 431 
3 372 431 368 
3 368 431 369 
3 431 375 369 
3 436 375 431 
3 378 428 373 
3 437 428 378 
3 376 432 370 
3 376 373 432 
3 376 378 373 
3 429 432 373 
3 430 374 371 
3 430 371 432 
3 432 371 370 
3 367 371 374 
3 375 436 438 
3 377 375 438 
3 379 378 382 
3 379 438 378 
3 379 377 438 
3 438 437 378 
3 376 380 382 
3 378 376 382 
3 379 382 381 
3 380 381 382 
3 383 389 385 
3 383 384 390 
3 389 383 390 
3 384 386 390 
3 389 396 391 
3 385 389 391 
3 390 397 389 
3 397 396 389 
3 386 387 398 
3 386 398 390 
3 390 398 397 
3 387 388 399 
3 398 387 399 
3 388 392 399 
3 391 396 393 
3 400 393 396 
3 400 396 404 
3 404 396 397 
3 398 405 397 
3 405 404 397 
3 399 406 398 
3 406 405 398 
3 392 394 407 
3 392 407 399 
3 399 407 406 
3 394 395 408 
3 407 394 408 
3 395 401 408 
3 400 404 402 
3 409 402 404 
3 409 404 413 
3 413 404 405 
3 406 414 405 
3 414 413 405 
3 407 415 406 
3 415 414 406 
3 408 416 407 
3 416 415 407 
3 401 403 417 
3 401 417 408 
3 408 417 416 
3 403 410 417 
3 409 413 411 
3 418 411 413 
3 418 413 422 
3 422 413 414 
3 415 423 414 
3 423 422 414 
3 416 424 415 
3 424 423 415 
3 417 425 416 
3 425 424 416 
3 410 412 426 
3 410 426 417 
3 417 426 425 
3 412 419 426 
3 422 433 427 
3 418 422 427 
3 423 434 422 
3 434 433 422 
3 420 428 434 
3 420 434 424 
3 424 434 423 
3 429 420 424 
3 429 424 435 
3 435 424 425 
3 421 430 435 
3 421 435 426 
3 426 435 425 
3 419 421 426 
3 427 433 431 
3 436 431 433 
3 436 433 439 
3 439 433 434 
3 428 437 439 
3 434 428 439 
3 429 435 432 
3 430 432 435 
3 436 439 438 
3 437 438 439 
