ply
format ascii 1.0
comment VCGLIB generated
element vertex 672
property float x
property float y
property float z
element face 1340
property list uchar int vertex_indices
end_header
2.056817 -2.718808 0.5632517 
2.056295 -2.721079 0.5630823 
2.05588 -2.723602 0.563044 
2.055641 -2.725627 0.5632269 
2.058067 -2.718019 0.5629165 
2.057913 -2.719906 0.562542 
2.057681 -2.722434 0.562457 
2.057317 -2.725174 0.5627813 
2.059288 -2.719197 0.5628245 
2.059477 -2.721456 0.5625901 
2.059452 -2.724313 0.5627568 
2.056453 -2.718105 0.5644482 
2.055552 -2.720223 0.5645645 
2.054815 -2.722806 0.5644178 
2.054562 -2.725198 0.564192 
2.057288 -2.717407 0.5634988 
2.054913 -2.726918 0.564062 
2.055097 -2.72892 0.5649932 
2.058162 -2.717042 0.5636266 
2.056448 -2.727474 0.5635979 
2.059026 -2.717815 0.5633076 
2.057214 -2.73018 0.5646634 
2.060193 -2.719001 0.5639544 
2.059182 -2.727927 0.5636259 
2.060604 -2.720672 0.5633426 
2.061401 -2.723333 0.5635924 
2.061129 -2.726026 0.5635405 
2.058968 -2.730384 0.5643927 
2.058677 -2.731937 0.5652633 
2.063038 -2.724081 0.5651788 
2.062785 -2.726143 0.5647059 
2.056818 -2.717659 0.5654306 
2.055788 -2.719638 0.5667158 
2.05437 -2.722435 0.5667554 
2.05373 -2.725227 0.566337 
2.05395 -2.727418 0.5656253 
2.057339 -2.71696 0.5643155 
2.053962 -2.729672 0.5667443 
2.057642 -2.717085 0.5652816 
2.057515 -2.718284 0.5669752 
2.05818 -2.716845 0.5645201 
2.055279 -2.731548 0.5665956 
2.059169 -2.717535 0.5643635 
2.057128 -2.732382 0.5659629 
2.058715 -2.717566 0.5656846 
2.056424 -2.733935 0.5677702 
2.056496 -2.735527 0.5695575 
2.060452 -2.719059 0.5660465 
2.058189 -2.733504 0.5665609 
2.061879 -2.721439 0.5651584 
2.060484 -2.731036 0.5651606 
2.059652 -2.733198 0.5663689 
2.058817 -2.735071 0.5684919 
2.063643 -2.723745 0.5670583 
2.061838 -2.728526 0.5646412 
2.064057 -2.726234 0.5666251 
2.063545 -2.728822 0.5663892 
2.062447 -2.73089 0.5662427 
2.061408 -2.733466 0.5675741 
2.060874 -2.735644 0.5694764 
2.054601 -2.72233 0.5699158 
2.053379 -2.725346 0.5694646 
2.053148 -2.728572 0.5685857 
2.056564 -2.720257 0.5697138 
2.053649 -2.731569 0.5686385 
2.058373 -2.719253 0.5689669 
2.054594 -2.733283 0.5685115 
2.054921 -2.734813 0.5697073 
2.055445 -2.721599 0.5712977 
2.053639 -2.733685 0.5702609 
2.054023 -2.735117 0.5712258 
2.059329 -2.718657 0.5674968 
2.05529 -2.735999 0.5712515 
2.060014 -2.719779 0.5694956 
2.060779 -2.719645 0.5681149 
2.057284 -2.73655 0.5710614 
2.062342 -2.721483 0.568404 
2.061252 -2.720409 0.5694207 
2.064112 -2.723926 0.5691571 
2.059498 -2.736754 0.5709885 
2.064729 -2.726008 0.5689091 
2.064654 -2.728847 0.5688791 
2.06358 -2.73201 0.5688122 
2.062402 -2.735018 0.5701436 
2.061215 -2.736571 0.5711703 
2.064801 -2.725439 0.5707991 
2.053574 -2.725217 0.573288 
2.052713 -2.728592 0.5723279 
2.052846 -2.731919 0.5715563 
2.053265 -2.734303 0.5720189 
2.054826 -2.722742 0.5725659 
2.054062 -2.735628 0.5728704 
2.056585 -2.721608 0.5730961 
2.05867 -2.720478 0.5712848 
2.055717 -2.736761 0.5732663 
2.061427 -2.721526 0.5718463 
2.057895 -2.737423 0.5733376 
2.063722 -2.723558 0.5712444 
2.064857 -2.725896 0.5733408 
2.060133 -2.737436 0.5732433 
2.06525 -2.728236 0.5719221 
2.064798 -2.731599 0.571821 
2.063649 -2.734456 0.5721838 
2.062078 -2.736506 0.5728454 
2.05365 -2.725726 0.5773919 
2.052675 -2.728567 0.5760874 
2.052522 -2.731606 0.5749612 
2.053068 -2.734124 0.5740026 
2.055018 -2.723417 0.5753312 
2.054226 -2.73593 0.575249 
2.057217 -2.722136 0.5769182 
2.059285 -2.721514 0.5747055 
2.056122 -2.737232 0.5758313 
2.061831 -2.722459 0.576136 
2.058433 -2.737839 0.5759702 
2.063568 -2.723842 0.5744305 
2.06493 -2.726164 0.5765888 
2.060784 -2.737556 0.5757902 
2.065533 -2.728585 0.5755998 
2.065378 -2.731337 0.5750331 
2.064453 -2.734086 0.5750561 
2.062863 -2.73627 0.5754051 
2.053825 -2.725335 0.5809647 
2.052709 -2.728387 0.5798756 
2.052493 -2.731468 0.57845 
2.053066 -2.734097 0.5769451 
2.055323 -2.723471 0.5788152 
2.054429 -2.73609 0.5781757 
2.057489 -2.721744 0.5806376 
2.06007 -2.721728 0.5791356 
2.056473 -2.73743 0.5787941 
2.059307 -2.720984 0.5816383 
2.062455 -2.722813 0.5791843 
2.058912 -2.737922 0.5789411 
2.063759 -2.724165 0.5777948 
2.065114 -2.726236 0.5798377 
2.061372 -2.737442 0.5787362 
2.065731 -2.72867 0.5789654 
2.065709 -2.731247 0.5783013 
2.064971 -2.733785 0.5781541 
2.063485 -2.735996 0.5784222 
2.054159 -2.724068 0.5839452 
2.052513 -2.727662 0.5840999 
2.052386 -2.731249 0.5821031 
2.053102 -2.734048 0.5802512 
2.051541 -2.728966 0.5866478 
2.055454 -2.722904 0.5818656 
2.054555 -2.736124 0.5814336 
2.058479 -2.720654 0.5832724 
2.056821 -2.721313 0.5832672 
2.055541 -2.722142 0.584008 
2.059869 -2.720561 0.5833827 
2.056737 -2.737445 0.5820569 
2.060579 -2.72111 0.582087 
2.062293 -2.722249 0.5821729 
2.059388 -2.737838 0.5822116 
2.063988 -2.724148 0.580945 
2.065424 -2.726106 0.5829102 
2.061974 -2.737249 0.5818268 
2.066055 -2.728537 0.5822251 
2.065987 -2.731266 0.5817035 
2.065387 -2.733413 0.5808533 
2.064084 -2.735701 0.5817367 
2.062617 -2.737139 0.5839832 
2.05122 -2.728432 0.5887478 
2.051898 -2.727199 0.5868756 
2.051147 -2.730276 0.5878605 
2.055107 -2.722067 0.586424 
2.053057 -2.724862 0.5868087 
2.051834 -2.731237 0.5858034 
2.052943 -2.73399 0.5837781 
2.051921 -2.726297 0.5884328 
2.051289 -2.731893 0.5883135 
2.056367 -2.721085 0.5850626 
2.054512 -2.736119 0.5849303 
2.057715 -2.720346 0.585317 
2.056722 -2.720483 0.5868486 
2.059648 -2.720114 0.5858479 
2.056927 -2.737404 0.585568 
2.061217 -2.720934 0.5843902 
2.063039 -2.722101 0.5857115 
2.06018 -2.737714 0.5859482 
2.064339 -2.723978 0.5841289 
2.062512 -2.737294 0.5859309 
2.065933 -2.726057 0.5859519 
2.063759 -2.736436 0.5845438 
2.066416 -2.728027 0.5847654 
2.066747 -2.730907 0.5856143 
2.065223 -2.734382 0.5847157 
2.063671 -2.736511 0.5865378 
2.067734 -2.73049 0.5880447 
2.051566 -2.726636 0.5908968 
2.050869 -2.729142 0.591058 
2.050873 -2.730687 0.5898084 
2.052557 -2.724754 0.5893083 
2.051256 -2.732809 0.5903073 
2.056216 -2.720289 0.5898151 
2.053973 -2.722691 0.5892885 
2.052437 -2.734026 0.5875877 
2.058219 -2.71966 0.5881842 
2.054341 -2.736219 0.5885285 
2.060228 -2.719516 0.5894222 
2.056815 -2.737384 0.5892491 
2.061665 -2.720618 0.5874583 
2.063538 -2.721899 0.5889742 
2.059111 -2.737767 0.5898944 
2.064875 -2.723865 0.5874111 
2.066645 -2.726118 0.589366 
2.061841 -2.737388 0.5887258 
2.06721 -2.728538 0.5874994 
2.066432 -2.733575 0.5882629 
2.064393 -2.735939 0.588996 
2.062575 -2.737137 0.5912357 
2.068064 -2.729697 0.589313 
2.067531 -2.731864 0.5883685 
2.068162 -2.73111 0.5898697 
2.067816 -2.728325 0.5899609 
2.051742 -2.72581 0.5940952 
2.050936 -2.728657 0.5934461 
2.050786 -2.731333 0.5924969 
2.052795 -2.723877 0.5916844 
2.051255 -2.733494 0.5923797 
2.056365 -2.718762 0.5939493 
2.054452 -2.72126 0.5924238 
2.052322 -2.734756 0.5908405 
2.051999 -2.734701 0.593232 
2.058718 -2.718559 0.5923869 
2.05401 -2.73621 0.5923654 
2.057902 -2.717373 0.5950304 
2.060872 -2.71914 0.5923201 
2.056856 -2.737392 0.5927163 
2.062144 -2.720307 0.5906723 
2.063949 -2.721732 0.5921702 
2.059958 -2.737637 0.5926757 
2.065298 -2.723647 0.5905848 
2.06221 -2.737195 0.5939454 
2.06667 -2.725237 0.5921335 
2.064024 -2.736434 0.5920864 
2.066003 -2.734786 0.5918763 
2.067873 -2.727395 0.5923569 
2.067579 -2.732766 0.5905256 
2.068441 -2.729764 0.5916063 
2.068347 -2.731591 0.5918988 
2.068679 -2.728983 0.5938672 
2.051928 -2.725064 0.5975628 
2.051062 -2.728169 0.5965387 
2.050823 -2.730896 0.5956001 
2.051197 -2.733202 0.5945388 
2.053023 -2.722918 0.594719 
2.052456 -2.734965 0.5954461 
2.056881 -2.717002 0.5969058 
2.055761 -2.718305 0.5961193 
2.054528 -2.720124 0.5957771 
2.053137 -2.722184 0.5972523 
2.058328 -2.716516 0.5968925 
2.054595 -2.736479 0.5957611 
2.059085 -2.717236 0.5955477 
2.06073 -2.718302 0.5954666 
2.057239 -2.737377 0.5959347 
2.062483 -2.720017 0.5938477 
2.064338 -2.721715 0.5953937 
2.059845 -2.737526 0.5962662 
2.065685 -2.723558 0.5936036 
2.062102 -2.737033 0.5969548 
2.067317 -2.725672 0.5948851 
2.064265 -2.736163 0.5947587 
2.068405 -2.727635 0.5949686 
2.066297 -2.734575 0.5956622 
2.068933 -2.729057 0.5961739 
2.067715 -2.732991 0.5934401 
2.068688 -2.730889 0.5944586 
2.052649 -2.722932 0.6001335 
2.051641 -2.72587 0.6006351 
2.051151 -2.728012 0.5996247 
2.05099 -2.730587 0.5987034 
2.051438 -2.733045 0.5974421 
2.053847 -2.720521 0.598377 
2.052939 -2.735027 0.5985666 
2.056438 -2.715914 0.5997626 
2.055195 -2.71821 0.5983382 
2.056597 -2.713648 0.6028201 
2.056094 -2.714854 0.6019269 
2.057992 -2.71561 0.5991299 
2.055131 -2.736544 0.5988754 
2.059657 -2.716566 0.5983779 
2.057378 -2.714209 0.6016956 
2.061473 -2.718052 0.5989298 
2.057578 -2.737273 0.5989774 
2.062803 -2.719823 0.5971472 
2.064808 -2.72196 0.5990649 
2.059946 -2.737327 0.5991281 
2.066128 -2.723766 0.5965092 
2.061774 -2.736927 0.5994326 
2.060318 -2.737041 0.6011467 
2.067277 -2.725267 0.5970339 
2.064056 -2.735918 0.5984687 
2.068294 -2.727025 0.5976821 
2.066496 -2.734093 0.5991594 
2.066882 -2.724715 0.5990543 
2.069134 -2.728945 0.598283 
2.067989 -2.732685 0.5966779 
2.069015 -2.730691 0.5979141 
2.068944 -2.728216 0.5997337 
2.056467 -2.713369 0.6044837 
2.055942 -2.714216 0.6034745 
2.052829 -2.722224 0.6033376 
2.0519 -2.725337 0.6030993 
2.051322 -2.72811 0.6025104 
2.05114 -2.730176 0.6013464 
2.051769 -2.732786 0.6010323 
2.057181 -2.713142 0.6035107 
2.055242 -2.715636 0.6033963 
2.05386 -2.719906 0.6007769 
2.053602 -2.735198 0.6020045 
2.055012 -2.717098 0.6014771 
2.05236 -2.733503 0.6038777 
2.058181 -2.713356 0.6039806 
2.055777 -2.736593 0.6013491 
2.059173 -2.714958 0.6019042 
2.060798 -2.716715 0.6012884 
2.061971 -2.718115 0.6012194 
2.057954 -2.736957 0.6020005 
2.062989 -2.719566 0.6002004 
2.059705 -2.736661 0.6035231 
2.062832 -2.719036 0.6023719 
2.064155 -2.720829 0.6024253 
2.062039 -2.736406 0.6016079 
2.066131 -2.723703 0.6026623 
2.06435 -2.735114 0.6020315 
2.067982 -2.72674 0.6013431 
2.066722 -2.733243 0.6025918 
2.068878 -2.728718 0.6014065 
2.068206 -2.732304 0.5997226 
2.069245 -2.729646 0.5999346 
2.069018 -2.730954 0.6002711 
2.06882 -2.730213 0.6019765 
2.068358 -2.731675 0.6017978 
2.056473 -2.713354 0.6070276 
2.055441 -2.71499 0.605697 
2.053093 -2.721367 0.6064934 
2.052158 -2.724928 0.6061162 
2.051652 -2.72803 0.6054868 
2.051617 -2.731011 0.6041963 
2.057376 -2.712765 0.6055107 
2.054619 -2.716749 0.6051381 
2.053832 -2.719266 0.6034313 
2.052599 -2.733078 0.6063325 
2.054504 -2.717273 0.6036298 
2.05337 -2.734663 0.6048897 
2.053984 -2.718458 0.6053117 
2.058543 -2.712831 0.6067702 
2.055279 -2.735952 0.6043301 
2.059547 -2.714046 0.6053619 
2.060732 -2.715828 0.6042073 
2.061927 -2.717635 0.603323 
2.063267 -2.719295 0.6046469 
2.057436 -2.736459 0.6050943 
2.058926 -2.736259 0.6059284 
2.05738 -2.736053 0.6071388 
2.064872 -2.721642 0.6055419 
2.06149 -2.735753 0.6050635 
2.066308 -2.724097 0.60636 
2.064319 -2.734407 0.605325 
2.067314 -2.726164 0.6048301 
2.068137 -2.728752 0.6040016 
2.067627 -2.731349 0.6043876 
2.066067 -2.733043 0.60568 
2.067023 -2.725893 0.6072971 
2.056729 -2.713256 0.609959 
2.055537 -2.715058 0.6091554 
2.054161 -2.71828 0.6082961 
2.053005 -2.722054 0.6097931 
2.052363 -2.724788 0.6092545 
2.051979 -2.727825 0.6086117 
2.052082 -2.730672 0.6076095 
2.057617 -2.712552 0.6082636 
2.053455 -2.733039 0.6092885 
2.05405 -2.734714 0.6069598 
2.058883 -2.712605 0.6097292 
2.055784 -2.735747 0.6069895 
2.059838 -2.713545 0.608411 
2.060941 -2.715222 0.6073738 
2.062157 -2.717323 0.6062503 
2.056417 -2.735435 0.6086579 
2.054944 -2.734799 0.6087998 
2.063756 -2.71956 0.6079457 
2.058729 -2.735479 0.6083795 
2.065433 -2.722554 0.6092216 
2.061917 -2.734802 0.6083146 
2.066503 -2.724842 0.6087097 
2.066927 -2.726587 0.6093311 
2.064457 -2.733682 0.6080679 
2.067357 -2.727977 0.6073665 
2.067383 -2.730087 0.6066597 
2.066182 -2.732036 0.6078832 
2.064681 -2.733128 0.609843 
2.05713 -2.713323 0.612866 
2.056013 -2.714545 0.6117854 
2.054832 -2.717324 0.6128761 
2.05343 -2.721272 0.6125343 
2.05259 -2.724736 0.6123837 
2.052281 -2.727751 0.611739 
2.052496 -2.730452 0.610688 
2.057994 -2.712527 0.6112527 
2.053613 -2.732338 0.6121131 
2.055366 -2.716556 0.6152499 
2.059306 -2.712643 0.6126002 
2.055859 -2.734249 0.6112189 
2.060203 -2.713424 0.6113601 
2.061032 -2.71467 0.6101157 
2.062448 -2.71693 0.6100407 
2.064312 -2.719878 0.6119874 
2.059436 -2.734638 0.6115667 
2.06317 -2.717392 0.613157 
2.065589 -2.722802 0.6126611 
2.062751 -2.733947 0.6110514 
2.066297 -2.725272 0.6114848 
2.064166 -2.7332 0.6112143 
2.063634 -2.733044 0.6130073 
2.06664 -2.72747 0.6113805 
2.065216 -2.73224 0.6107079 
2.066904 -2.728294 0.6099226 
2.066542 -2.730211 0.6095852 
2.066275 -2.729339 0.6120256 
2.065317 -2.731349 0.612434 
2.057612 -2.713618 0.6155937 
2.056208 -2.714943 0.614499 
2.05383 -2.72089 0.6163139 
2.052859 -2.724582 0.6156791 
2.052561 -2.727832 0.6150246 
2.052887 -2.730486 0.6137857 
2.058584 -2.712748 0.6143703 
2.056015 -2.715849 0.6166223 
2.054756 -2.718089 0.6157826 
2.054438 -2.73281 0.6147627 
2.055336 -2.717168 0.6168351 
2.058731 -2.713188 0.6166245 
2.059841 -2.712961 0.6149145 
2.057087 -2.734211 0.6149795 
2.060464 -2.713442 0.6138731 
2.061777 -2.715164 0.6133671 
2.063084 -2.716732 0.6150252 
2.060597 -2.7342 0.6148492 
2.064142 -2.718638 0.6151862 
2.062721 -2.733399 0.6158897 
2.062543 -2.715724 0.6161107 
2.065448 -2.721558 0.6156962 
2.06427 -2.73224 0.6145265 
2.066167 -2.724844 0.6150574 
2.066164 -2.727972 0.6142809 
2.065318 -2.730694 0.6145888 
2.056925 -2.714758 0.6168826 
2.053868 -2.721599 0.6203903 
2.052988 -2.724673 0.6192251 
2.052674 -2.727885 0.6184857 
2.053279 -2.731065 0.6175715 
2.058337 -2.714296 0.6182901 
2.056492 -2.715581 0.617731 
2.054753 -2.71889 0.6180114 
2.055166 -2.733627 0.6181118 
2.059528 -2.713562 0.6180268 
2.056044 -2.716918 0.618872 
2.057122 -2.7154 0.6186902 
2.055016 -2.719038 0.6202841 
2.055612 -2.73473 0.6211575 
2.05969 -2.713124 0.6165512 
2.057916 -2.734748 0.6187286 
2.061202 -2.714291 0.6168368 
2.060267 -2.713697 0.618013 
2.05729 -2.735495 0.6218028 
2.06284 -2.71591 0.6178983 
2.060947 -2.734359 0.6182274 
2.063643 -2.717196 0.6170046 
2.064982 -2.719385 0.618076 
2.06277 -2.733511 0.6179243 
2.063981 -2.717334 0.619332 
2.065972 -2.721488 0.6185018 
2.06407 -2.732307 0.6165577 
2.066581 -2.724039 0.6185441 
2.06645 -2.727437 0.6179575 
2.0653 -2.730662 0.6177025 
2.065837 -2.720528 0.619592 
2.063791 -2.732767 0.6186463 
2.054694 -2.720127 0.6230142 
2.053468 -2.722745 0.6235898 
2.052917 -2.724976 0.6226313 
2.052622 -2.727854 0.6218633 
2.052906 -2.730712 0.6212344 
2.053926 -2.733114 0.6209058 
2.055944 -2.718018 0.6214411 
2.05452 -2.734449 0.6231036 
2.05794 -2.716308 0.6217259 
2.056186 -2.718264 0.6235168 
2.060589 -2.714842 0.6202049 
2.056053 -2.735608 0.623904 
2.062598 -2.71572 0.619738 
2.05792 -2.735961 0.6234832 
2.063986 -2.717121 0.6217527 
2.059662 -2.735252 0.6215537 
2.062631 -2.715873 0.621783 
2.05944 -2.735912 0.6242849 
2.065436 -2.719365 0.6210914 
2.0623 -2.734051 0.6202103 
2.066655 -2.722086 0.6207473 
2.067292 -2.724225 0.6209614 
2.067457 -2.726654 0.6213189 
2.066422 -2.730214 0.6212301 
2.064327 -2.732679 0.6208881 
2.068513 -2.726998 0.6239862 
2.067962 -2.729226 0.6236578 
2.053595 -2.722146 0.6263456 
2.052818 -2.724996 0.62578 
2.052579 -2.72776 0.6250083 
2.052789 -2.730492 0.6243866 
2.053499 -2.732909 0.6237635 
2.053062 -2.722497 0.6289342 
2.055264 -2.719645 0.6258994 
2.05461 -2.734689 0.6254402 
2.059611 -2.71682 0.6254329 
2.057319 -2.717906 0.6256487 
2.060425 -2.71589 0.6232923 
2.055907 -2.735842 0.6262433 
2.061759 -2.716586 0.6254179 
2.062102 -2.715935 0.6232792 
2.057651 -2.736274 0.6257791 
2.063539 -2.716721 0.6233886 
2.059866 -2.736082 0.6265545 
2.063328 -2.716955 0.6249521 
2.065231 -2.718667 0.624679 
2.062263 -2.734728 0.6240535 
2.066758 -2.721114 0.62329 
2.067995 -2.724145 0.6235473 
2.065428 -2.732742 0.623748 
2.069103 -2.726123 0.6256541 
2.067107 -2.731289 0.623923 
2.069086 -2.728557 0.6262949 
2.068058 -2.730946 0.6258667 
2.069049 -2.724375 0.6265413 
2.066744 -2.732479 0.625648 
2.05328 -2.721976 0.630576 
2.054187 -2.720904 0.6285045 
2.052615 -2.723329 0.6304153 
2.052667 -2.724618 0.6289926 
2.052661 -2.727644 0.6281775 
2.052807 -2.730027 0.6270212 
2.053621 -2.732714 0.6270416 
2.052516 -2.724679 0.6314455 
2.056196 -2.71932 0.6285768 
2.055229 -2.735064 0.6281487 
2.059059 -2.718125 0.6287109 
2.054424 -2.733515 0.6297708 
2.061213 -2.717314 0.6274865 
2.056687 -2.736178 0.6276705 
2.063632 -2.717881 0.6275344 
2.058211 -2.736408 0.6281378 
2.059748 -2.736175 0.628857 
2.058581 -2.736166 0.6299726 
2.066467 -2.719725 0.6285498 
2.061807 -2.735406 0.628195 
2.067828 -2.72177 0.6264641 
2.069439 -2.72362 0.6289656 
2.064875 -2.733928 0.627214 
2.069768 -2.726406 0.6283815 
2.069679 -2.72883 0.6288835 
2.068809 -2.73062 0.62837 
2.067283 -2.732446 0.6279647 
2.053698 -2.72195 0.6326183 
2.0528 -2.723315 0.6321815 
2.054774 -2.720651 0.6308941 
2.052928 -2.725145 0.6336442 
2.052915 -2.727243 0.631837 
2.053462 -2.730784 0.6301497 
2.05735 -2.719733 0.6318211 
2.05521 -2.733083 0.6324211 
2.060172 -2.718971 0.6317105 
2.055527 -2.734749 0.6305005 
2.061963 -2.71824 0.6299802 
2.056892 -2.735859 0.6297632 
2.057966 -2.735543 0.6315075 
2.062671 -2.719312 0.6328476 
2.056587 -2.734907 0.6318062 
2.064976 -2.719163 0.6311406 
2.060148 -2.73543 0.6312828 
2.06493 -2.719778 0.633635 
2.067631 -2.720457 0.6314385 
2.063507 -2.734556 0.6311991 
2.068597 -2.721551 0.629765 
2.06381 -2.734114 0.6340911 
2.06971 -2.722936 0.6311412 
2.066027 -2.733492 0.6300331 
2.070152 -2.725174 0.6316012 
2.069959 -2.727979 0.6311356 
2.06934 -2.729985 0.6305756 
2.067829 -2.731888 0.6311088 
2.069135 -2.721752 0.6318878 
2.065673 -2.733439 0.6327999 
2.054309 -2.722194 0.6343974 
2.053459 -2.723423 0.6342473 
2.055209 -2.721028 0.6332662 
2.053787 -2.725086 0.6358274 
2.053834 -2.727414 0.6357934 
2.054133 -2.730172 0.6340221 
2.055572 -2.721812 0.6351358 
2.054995 -2.723517 0.6363492 
2.056975 -2.720887 0.6344414 
2.055694 -2.731953 0.6354214 
2.057561 -2.722268 0.636724 
2.060093 -2.720523 0.6348063 
2.057877 -2.734003 0.6341915 
2.06018 -2.722151 0.6374978 
2.063735 -2.720532 0.635199 
2.061421 -2.734322 0.6345578 
2.065928 -2.720682 0.6349946 
2.063094 -2.73383 0.6359073 
2.06175 -2.73352 0.6370312 
2.066798 -2.720309 0.6334161 
2.064858 -2.733213 0.635513 
2.067636 -2.721586 0.6351787 
2.068607 -2.721469 0.6334667 
2.066959 -2.731941 0.6345855 
2.069813 -2.723204 0.6333345 
2.07019 -2.725133 0.6341784 
2.069989 -2.727142 0.6338744 
2.068968 -2.729802 0.6335189 
2.069087 -2.722603 0.6349449 
2.055162 -2.726244 0.6383613 
2.054722 -2.728045 0.638089 
2.055125 -2.729837 0.6374636 
2.056894 -2.724436 0.6387115 
2.057121 -2.731827 0.6379128 
2.056779 -2.725999 0.6400628 
2.056279 -2.730246 0.6394825 
2.059318 -2.723676 0.6389679 
2.05966 -2.733158 0.6372513 
2.061549 -2.723209 0.638801 
2.061251 -2.732404 0.6388248 
2.062595 -2.721901 0.6371979 
2.063343 -2.732838 0.6375698 
2.063954 -2.72377 0.6388682 
2.065742 -2.722215 0.6368307 
2.065502 -2.731762 0.6373254 
2.066845 -2.724792 0.6384572 
2.068249 -2.723291 0.6365387 
2.067625 -2.730293 0.6366384 
2.069637 -2.724163 0.6355189 
2.069651 -2.726133 0.6360284 
2.069012 -2.728303 0.6362385 
2.068835 -2.725033 0.6371574 
2.068192 -2.726929 0.6381641 
2.067763 -2.728896 0.6381637 
2.055822 -2.728562 0.639686 
2.056429 -2.7272 0.6403783 
2.057001 -2.729696 0.6406381 
2.057712 -2.726872 0.6409878 
2.057453 -2.730824 0.6400644 
2.057675 -2.728404 0.6411486 
2.058581 -2.725525 0.6403461 
2.059031 -2.731704 0.6395535 
2.060664 -2.731057 0.6403376 
2.059803 -2.727378 0.6412588 
2.05929 -2.728851 0.6415067 
2.058782 -2.730075 0.6409918 
2.061569 -2.725205 0.6402166 
2.063261 -2.731085 0.639514 
2.062892 -2.72743 0.640965 
2.061281 -2.729355 0.6410854 
2.064666 -2.725894 0.6401104 
2.066037 -2.730045 0.6388971 
2.066539 -2.72672 0.6396908 
2.066579 -2.72829 0.6396266 
2.06519 -2.727531 0.6405162 
2.06434 -2.729055 0.6404441 
3 0 11 15 
3 0 1 12 
3 11 0 12 
3 1 2 13 
3 12 1 13 
3 2 3 14 
3 13 2 14 
3 14 3 16 
3 4 0 15 
3 18 4 15 
3 1 0 5 
3 5 0 4 
3 2 1 6 
3 6 1 5 
3 3 2 7 
3 7 2 6 
3 19 16 3 
3 7 19 3 
3 4 18 20 
3 20 22 8 
3 20 8 4 
3 4 8 5 
3 6 5 9 
3 9 5 8 
3 7 6 10 
3 10 6 9 
3 23 19 7 
3 10 23 7 
3 8 22 24 
3 9 8 24 
3 25 9 24 
3 10 9 25 
3 26 10 25 
3 23 10 26 
3 11 31 36 
3 15 11 36 
3 12 32 11 
3 11 32 31 
3 13 33 12 
3 12 33 32 
3 14 34 13 
3 13 34 33 
3 16 17 35 
3 16 35 14 
3 14 35 34 
3 35 17 37 
3 15 36 18 
3 36 40 18 
3 17 19 21 
3 16 19 17 
3 41 37 17 
3 21 41 17 
3 18 40 42 
3 20 18 42 
3 42 22 20 
3 47 22 42 
3 21 23 27 
3 19 23 21 
3 43 41 21 
3 43 21 28 
3 28 21 27 
3 43 28 48 
3 22 47 49 
3 24 22 49 
3 29 49 53 
3 29 25 49 
3 25 24 49 
3 25 30 26 
3 29 30 25 
3 26 30 54 
3 23 26 54 
3 23 54 50 
3 23 50 27 
3 28 27 50 
3 51 28 50 
3 48 28 51 
3 29 53 55 
3 30 29 55 
3 56 30 55 
3 54 30 56 
3 31 38 36 
3 31 32 39 
3 38 31 39 
3 63 39 32 
3 63 32 60 
3 60 32 33 
3 34 61 33 
3 33 61 60 
3 35 62 34 
3 34 62 61 
3 62 35 37 
3 64 62 37 
3 38 44 40 
3 36 38 40 
3 71 39 65 
3 71 44 39 
3 44 38 39 
3 63 65 39 
3 66 41 45 
3 66 64 41 
3 64 37 41 
3 45 46 67 
3 66 45 67 
3 67 46 72 
3 40 44 42 
3 44 47 42 
3 44 71 47 
3 71 74 47 
3 41 43 45 
3 48 45 43 
3 48 52 45 
3 52 46 45 
3 75 72 46 
3 52 75 46 
3 47 74 76 
3 49 47 76 
3 76 53 49 
3 78 53 76 
3 50 54 57 
3 50 58 51 
3 57 58 50 
3 51 52 48 
3 51 58 52 
3 58 59 52 
3 79 75 52 
3 59 79 52 
3 53 78 80 
3 55 53 80 
3 56 55 81 
3 55 80 81 
3 57 54 56 
3 57 56 82 
3 82 56 81 
3 58 57 82 
3 83 58 82 
3 59 58 83 
3 84 59 83 
3 79 59 84 
3 60 68 63 
3 90 68 60 
3 90 60 86 
3 86 60 61 
3 62 87 61 
3 61 87 86 
3 64 69 88 
3 64 88 62 
3 62 88 87 
3 69 70 89 
3 88 69 89 
3 89 70 91 
3 65 73 71 
3 65 93 73 
3 63 93 65 
3 63 92 93 
3 63 68 92 
3 90 92 68 
3 64 66 69 
3 67 69 66 
3 70 69 67 
3 70 67 72 
3 70 72 91 
3 91 72 94 
3 73 77 74 
3 71 73 74 
3 95 73 93 
3 77 73 95 
3 72 75 94 
3 94 75 96 
3 74 77 76 
3 78 97 85 
3 76 97 78 
3 76 95 97 
3 76 77 95 
3 97 98 85 
3 75 79 96 
3 96 79 99 
3 78 85 80 
3 85 98 100 
3 85 100 80 
3 80 100 81 
3 82 81 101 
3 81 100 101 
3 83 82 102 
3 82 101 102 
3 84 83 103 
3 83 102 103 
3 99 79 84 
3 103 99 84 
3 86 104 108 
3 90 86 108 
3 87 105 86 
3 86 105 104 
3 88 106 87 
3 87 106 105 
3 89 107 88 
3 88 107 106 
3 107 89 91 
3 109 107 91 
3 92 110 111 
3 93 92 111 
3 108 92 90 
3 110 92 108 
3 91 94 109 
3 109 94 112 
3 93 111 95 
3 111 113 95 
3 94 96 112 
3 112 96 114 
3 95 113 115 
3 97 95 115 
3 115 98 97 
3 116 98 115 
3 96 99 114 
3 114 99 117 
3 98 116 118 
3 100 98 118 
3 101 100 119 
3 100 118 119 
3 102 101 120 
3 101 119 120 
3 103 102 121 
3 102 120 121 
3 117 99 103 
3 121 117 103 
3 104 122 126 
3 108 104 126 
3 105 123 104 
3 104 123 122 
3 106 124 105 
3 105 124 123 
3 107 125 106 
3 106 125 124 
3 125 107 109 
3 127 125 109 
3 110 128 129 
3 111 110 129 
3 126 110 108 
3 128 110 126 
3 109 112 127 
3 127 112 130 
3 111 129 113 
3 129 132 113 
3 112 114 130 
3 130 114 133 
3 113 132 134 
3 115 113 134 
3 134 116 115 
3 135 116 134 
3 114 117 133 
3 133 117 136 
3 116 135 137 
3 118 116 137 
3 119 118 138 
3 118 137 138 
3 120 119 139 
3 119 138 139 
3 121 120 140 
3 120 139 140 
3 136 117 121 
3 140 136 121 
3 122 141 146 
3 126 122 146 
3 123 142 122 
3 122 142 141 
3 124 143 123 
3 123 143 142 
3 125 144 124 
3 124 144 143 
3 144 125 127 
3 147 144 127 
3 131 148 151 
3 131 129 128 
3 131 128 148 
3 148 128 149 
3 146 128 126 
3 149 128 146 
3 127 130 147 
3 147 130 152 
3 131 151 153 
3 153 129 131 
3 153 154 129 
3 154 132 129 
3 130 133 152 
3 152 133 155 
3 132 154 156 
3 134 132 156 
3 156 135 134 
3 157 135 156 
3 133 136 155 
3 155 136 158 
3 135 157 159 
3 137 135 159 
3 138 137 160 
3 137 159 160 
3 139 138 161 
3 138 160 161 
3 140 139 162 
3 139 161 162 
3 158 136 140 
3 162 158 140 
3 145 164 165 
3 164 145 166 
3 150 167 173 
3 150 146 141 
3 150 141 167 
3 167 141 168 
3 165 142 145 
3 165 168 142 
3 168 141 142 
3 145 169 166 
3 145 142 169 
3 142 143 169 
3 144 170 143 
3 143 170 169 
3 170 144 147 
3 174 170 147 
3 148 175 177 
3 151 148 177 
3 173 149 150 
3 173 175 149 
3 175 148 149 
3 146 150 149 
3 147 152 174 
3 174 152 178 
3 151 177 179 
3 153 151 179 
3 179 154 153 
3 180 154 179 
3 152 155 178 
3 178 155 181 
3 154 180 182 
3 156 154 182 
3 182 157 156 
3 184 157 182 
3 163 185 183 
3 163 183 181 
3 163 181 158 
3 158 181 155 
3 157 184 186 
3 159 157 186 
3 160 159 187 
3 159 186 187 
3 161 160 188 
3 160 187 188 
3 185 163 162 
3 185 162 188 
3 188 162 161 
3 158 162 163 
3 171 191 194 
3 171 165 164 
3 171 164 191 
3 191 164 192 
3 166 172 193 
3 166 193 164 
3 164 193 192 
3 193 172 195 
3 176 196 199 
3 176 173 167 
3 176 167 196 
3 196 167 197 
3 194 168 171 
3 194 197 168 
3 197 167 168 
3 165 171 168 
3 166 169 172 
3 172 198 195 
3 172 169 198 
3 169 170 198 
3 198 170 174 
3 200 198 174 
3 175 176 199 
3 175 199 177 
3 177 199 201 
3 173 176 175 
3 174 178 200 
3 200 178 202 
3 177 201 203 
3 179 177 203 
3 203 180 179 
3 204 180 203 
3 178 181 202 
3 202 181 205 
3 180 204 206 
3 182 180 206 
3 206 184 182 
3 207 184 206 
3 183 185 189 
3 183 189 208 
3 183 208 181 
3 181 208 205 
3 184 207 209 
3 186 184 209 
3 190 209 213 
3 190 187 209 
3 187 186 209 
3 214 187 190 
3 214 210 187 
3 210 188 187 
3 189 185 188 
3 189 188 211 
3 211 188 210 
3 208 189 211 
3 190 213 215 
3 214 190 215 
3 191 217 220 
3 194 191 220 
3 192 218 191 
3 191 218 217 
3 193 219 192 
3 192 219 218 
3 219 193 195 
3 221 219 195 
3 196 222 226 
3 199 196 226 
3 197 223 196 
3 196 223 222 
3 220 197 194 
3 223 197 220 
3 195 224 221 
3 198 224 195 
3 224 198 200 
3 227 224 200 
3 199 226 201 
3 226 229 201 
3 200 202 227 
3 227 202 230 
3 201 229 231 
3 203 201 231 
3 231 204 203 
3 232 204 231 
3 202 205 230 
3 230 205 233 
3 204 232 234 
3 206 204 234 
3 234 207 206 
3 236 207 234 
3 212 237 235 
3 212 235 233 
3 212 233 208 
3 208 233 205 
3 216 209 207 
3 216 207 239 
3 239 207 236 
3 209 216 213 
3 210 240 238 
3 214 240 210 
3 237 212 211 
3 237 211 238 
3 238 211 210 
3 208 211 212 
3 216 239 241 
3 213 216 241 
3 213 241 215 
3 215 241 242 
3 240 214 215 
3 242 240 215 
3 217 244 248 
3 220 217 248 
3 218 245 217 
3 217 245 244 
3 219 246 218 
3 218 246 245 
3 221 225 247 
3 221 247 219 
3 219 247 246 
3 247 225 249 
3 228 250 254 
3 228 226 222 
3 228 222 250 
3 250 222 251 
3 223 252 222 
3 222 252 251 
3 248 223 220 
3 252 223 248 
3 221 224 225 
3 225 224 227 
3 225 227 249 
3 249 227 255 
3 228 254 256 
3 256 226 228 
3 256 257 226 
3 257 229 226 
3 227 230 255 
3 255 230 258 
3 229 257 259 
3 231 229 259 
3 259 232 231 
3 260 232 259 
3 230 233 258 
3 258 233 261 
3 232 260 262 
3 234 232 262 
3 262 236 234 
3 264 236 262 
3 235 265 263 
3 237 265 235 
3 261 233 235 
3 263 261 235 
3 266 243 239 
3 266 239 264 
3 264 239 236 
3 266 268 243 
3 238 269 267 
3 240 269 238 
3 265 237 238 
3 267 265 238 
3 239 243 241 
3 243 268 270 
3 243 270 241 
3 241 270 242 
3 269 240 242 
3 270 269 242 
3 253 271 276 
3 253 248 244 
3 253 244 271 
3 271 244 272 
3 245 273 244 
3 244 273 272 
3 246 274 245 
3 245 274 273 
3 247 275 246 
3 246 275 274 
3 275 247 249 
3 277 275 249 
3 250 278 282 
3 254 250 282 
3 251 279 250 
3 250 279 278 
3 276 252 253 
3 276 279 252 
3 279 251 252 
3 248 253 252 
3 249 255 277 
3 277 255 283 
3 254 282 284 
3 256 254 284 
3 284 257 256 
3 286 257 284 
3 255 258 283 
3 283 258 287 
3 257 286 288 
3 259 257 288 
3 288 260 259 
3 289 260 288 
3 258 261 287 
3 287 261 290 
3 260 289 291 
3 262 260 291 
3 291 264 262 
3 294 264 291 
3 263 295 292 
3 265 295 263 
3 290 261 263 
3 292 290 263 
3 264 294 296 
3 266 264 296 
3 296 268 266 
3 299 268 296 
3 267 300 297 
3 269 300 267 
3 295 265 267 
3 297 295 267 
3 268 299 301 
3 270 268 301 
3 300 269 270 
3 301 300 270 
3 280 303 310 
3 280 281 304 
3 303 280 304 
3 304 281 311 
3 271 305 312 
3 276 271 312 
3 272 306 271 
3 271 306 305 
3 273 307 272 
3 272 307 306 
3 274 308 273 
3 273 308 307 
3 275 309 274 
3 274 309 308 
3 309 275 277 
3 313 309 277 
3 285 280 310 
3 316 285 310 
3 278 285 282 
3 278 281 285 
3 281 280 285 
3 281 314 311 
3 281 278 314 
3 278 279 314 
3 312 279 276 
3 314 279 312 
3 277 283 313 
3 313 283 317 
3 285 316 318 
3 282 285 318 
3 282 318 284 
3 284 318 319 
3 319 286 284 
3 320 286 319 
3 283 287 317 
3 317 287 321 
3 286 320 322 
3 288 286 322 
3 322 289 288 
3 325 289 322 
3 293 326 323 
3 293 323 321 
3 293 321 290 
3 290 321 287 
3 298 291 289 
3 298 289 327 
3 327 289 325 
3 291 298 294 
3 292 326 293 
3 292 295 326 
3 295 328 326 
3 290 292 293 
3 298 327 329 
3 302 329 331 
3 296 329 302 
3 296 298 329 
3 296 294 298 
3 296 302 299 
3 297 332 330 
3 300 332 297 
3 328 295 297 
3 330 328 297 
3 302 331 333 
3 299 302 333 
3 299 333 301 
3 301 333 334 
3 332 300 301 
3 334 332 301 
3 303 337 343 
3 310 303 343 
3 304 338 303 
3 303 338 337 
3 338 304 311 
3 344 338 311 
3 305 339 345 
3 312 305 345 
3 306 340 305 
3 305 340 339 
3 307 341 306 
3 306 341 340 
3 308 342 307 
3 307 342 341 
3 315 346 342 
3 315 342 309 
3 309 342 308 
3 309 313 315 
3 310 343 316 
3 343 350 316 
3 311 347 344 
3 314 347 311 
3 345 314 312 
3 347 314 345 
3 315 348 346 
3 348 315 313 
3 348 313 351 
3 351 313 317 
3 316 350 352 
3 318 316 352 
3 319 318 353 
3 318 352 353 
3 320 354 324 
3 320 319 354 
3 319 353 354 
3 354 355 324 
3 317 321 351 
3 351 321 356 
3 320 324 322 
3 324 325 322 
3 324 355 325 
3 355 359 325 
3 323 360 357 
3 326 360 323 
3 356 321 323 
3 357 356 323 
3 325 359 327 
3 359 361 327 
3 326 328 360 
3 360 328 362 
3 327 361 363 
3 329 327 363 
3 331 364 335 
3 331 329 364 
3 329 363 364 
3 335 365 336 
3 364 365 335 
3 336 330 332 
3 336 365 330 
3 365 366 330 
3 362 328 330 
3 366 362 330 
3 331 335 333 
3 334 333 335 
3 336 334 335 
3 332 334 336 
3 337 368 375 
3 343 337 375 
3 338 369 337 
3 337 369 368 
3 344 349 370 
3 344 370 338 
3 338 370 369 
3 349 345 339 
3 349 339 370 
3 370 339 371 
3 340 372 339 
3 339 372 371 
3 341 373 340 
3 340 373 372 
3 342 374 341 
3 341 374 373 
3 374 342 346 
3 376 374 346 
3 343 375 350 
3 375 378 350 
3 344 347 349 
3 345 349 347 
3 346 377 376 
3 348 377 346 
3 377 348 351 
3 379 377 351 
3 350 378 380 
3 352 350 380 
3 353 352 381 
3 352 380 381 
3 354 353 382 
3 353 381 382 
3 382 355 354 
3 385 355 382 
3 358 386 383 
3 358 383 379 
3 358 379 356 
3 356 379 351 
3 355 385 359 
3 385 387 359 
3 357 386 358 
3 357 360 386 
3 360 388 386 
3 356 357 358 
3 389 367 361 
3 389 361 387 
3 387 361 359 
3 389 390 367 
3 360 362 388 
3 388 362 391 
3 361 367 363 
3 367 390 392 
3 367 392 363 
3 363 392 364 
3 365 364 393 
3 364 392 393 
3 366 365 394 
3 365 393 394 
3 391 362 366 
3 394 391 366 
3 368 396 403 
3 375 368 403 
3 369 397 368 
3 368 397 396 
3 370 398 369 
3 369 398 397 
3 371 399 370 
3 370 399 398 
3 372 400 371 
3 371 400 399 
3 373 401 372 
3 372 401 400 
3 374 402 373 
3 373 402 401 
3 402 374 376 
3 404 402 376 
3 375 403 378 
3 403 406 378 
3 384 376 377 
3 384 407 376 
3 407 404 376 
3 377 379 384 
3 378 406 408 
3 380 378 408 
3 381 380 409 
3 380 408 409 
3 382 381 410 
3 381 409 410 
3 410 385 382 
3 411 385 410 
3 383 407 384 
3 383 386 407 
3 386 412 407 
3 379 383 384 
3 385 411 387 
3 411 414 387 
3 386 388 412 
3 412 388 415 
3 387 414 416 
3 389 387 416 
3 416 390 389 
3 419 390 416 
3 395 420 417 
3 395 417 415 
3 395 415 391 
3 391 415 388 
3 390 419 421 
3 392 390 421 
3 393 392 422 
3 392 421 422 
3 420 395 394 
3 420 394 422 
3 422 394 393 
3 391 394 395 
3 396 425 431 
3 403 396 431 
3 397 426 396 
3 396 426 425 
3 405 432 426 
3 405 426 398 
3 398 426 397 
3 433 405 398 
3 433 398 427 
3 427 398 399 
3 400 428 399 
3 399 428 427 
3 401 429 400 
3 400 429 428 
3 402 430 401 
3 401 430 429 
3 430 402 404 
3 434 430 404 
3 403 431 406 
3 431 437 406 
3 405 435 432 
3 433 435 405 
3 404 407 434 
3 434 407 438 
3 406 437 439 
3 408 406 439 
3 409 408 440 
3 408 439 440 
3 413 440 441 
3 413 410 440 
3 410 409 440 
3 410 413 411 
3 407 412 438 
3 438 412 442 
3 413 441 443 
3 443 411 413 
3 443 446 411 
3 446 414 411 
3 418 447 444 
3 418 444 442 
3 418 442 415 
3 415 442 412 
3 414 446 448 
3 416 414 448 
3 419 449 423 
3 419 416 449 
3 416 448 449 
3 423 450 424 
3 449 450 423 
3 447 424 450 
3 418 424 447 
3 418 420 424 
3 418 417 420 
3 415 417 418 
3 419 423 421 
3 422 421 423 
3 424 422 423 
3 420 422 424 
3 425 436 431 
3 456 436 425 
3 456 425 451 
3 451 425 426 
3 451 426 432 
3 457 451 432 
3 427 452 458 
3 433 427 458 
3 428 453 427 
3 427 453 452 
3 429 454 428 
3 428 454 453 
3 430 455 429 
3 429 455 454 
3 455 430 434 
3 459 455 434 
3 436 460 465 
3 436 465 431 
3 431 465 437 
3 456 460 436 
3 432 461 457 
3 435 461 432 
3 458 435 433 
3 461 435 458 
3 434 438 459 
3 459 438 466 
3 437 465 467 
3 439 437 467 
3 445 467 470 
3 445 440 467 
3 440 439 467 
3 440 445 441 
3 438 442 466 
3 466 442 471 
3 445 470 472 
3 441 445 472 
3 441 472 443 
3 443 472 473 
3 473 446 443 
3 476 446 473 
3 444 477 474 
3 447 477 444 
3 471 442 444 
3 474 471 444 
3 446 476 478 
3 448 446 478 
3 449 448 479 
3 448 478 479 
3 450 449 480 
3 449 479 480 
3 477 447 450 
3 480 477 450 
3 451 462 456 
3 457 462 451 
3 463 483 489 
3 463 458 452 
3 463 452 483 
3 483 452 484 
3 453 485 452 
3 452 485 484 
3 454 486 453 
3 453 486 485 
3 455 487 454 
3 454 487 486 
3 459 464 488 
3 459 488 455 
3 455 488 487 
3 488 464 490 
3 460 468 465 
3 460 493 468 
3 456 493 460 
3 456 491 493 
3 456 462 491 
3 489 461 463 
3 489 491 461 
3 457 461 462 
3 462 461 491 
3 458 463 461 
3 464 466 469 
3 459 466 464 
3 494 490 464 
3 469 494 464 
3 465 468 467 
3 470 495 475 
3 467 495 470 
3 467 493 495 
3 467 468 493 
3 495 497 475 
3 469 498 496 
3 469 466 498 
3 466 471 498 
3 494 469 496 
3 470 475 472 
3 475 473 472 
3 475 501 473 
3 475 497 501 
3 501 481 473 
3 473 481 476 
3 474 477 482 
3 474 482 502 
3 474 502 471 
3 471 502 498 
3 481 501 503 
3 476 481 503 
3 476 503 478 
3 478 503 504 
3 479 478 505 
3 478 504 505 
3 480 479 506 
3 479 505 506 
3 482 477 480 
3 482 480 507 
3 507 480 506 
3 502 482 507 
3 483 492 489 
3 516 492 483 
3 516 483 510 
3 510 483 484 
3 485 511 484 
3 484 511 510 
3 486 512 485 
3 485 512 511 
3 487 513 486 
3 486 513 512 
3 488 514 487 
3 487 514 513 
3 514 488 490 
3 517 514 490 
3 491 518 520 
3 493 491 520 
3 492 491 489 
3 492 519 491 
3 519 518 491 
3 516 519 492 
3 490 494 517 
3 517 494 521 
3 499 495 493 
3 499 493 523 
3 523 493 520 
3 495 499 497 
3 496 498 500 
3 496 500 524 
3 496 524 494 
3 494 524 521 
3 499 523 525 
3 525 497 499 
3 525 528 497 
3 528 501 497 
3 500 529 526 
3 500 498 529 
3 498 502 529 
3 524 500 526 
3 501 528 530 
3 503 501 530 
3 504 503 531 
3 503 530 531 
3 508 531 533 
3 508 505 531 
3 505 504 531 
3 505 509 506 
3 508 509 505 
3 534 506 509 
3 534 532 506 
3 532 507 506 
3 529 502 507 
3 532 529 507 
3 508 533 535 
3 509 508 535 
3 536 509 535 
3 534 509 536 
3 515 539 540 
3 539 515 541 
3 510 515 540 
3 510 540 516 
3 516 540 547 
3 515 542 541 
3 515 510 542 
3 510 511 542 
3 512 543 511 
3 511 543 542 
3 513 544 512 
3 512 544 543 
3 514 545 513 
3 513 545 544 
3 545 514 517 
3 548 545 517 
3 518 522 520 
3 551 522 518 
3 551 518 549 
3 549 518 519 
3 547 519 516 
3 549 519 547 
3 517 521 548 
3 548 521 552 
3 522 527 523 
3 520 522 523 
3 553 522 551 
3 527 522 553 
3 521 524 552 
3 552 524 554 
3 523 527 525 
3 527 528 525 
3 527 553 528 
3 553 557 528 
3 526 558 555 
3 529 558 526 
3 554 524 526 
3 555 554 526 
3 528 557 559 
3 530 528 559 
3 537 559 560 
3 537 531 559 
3 531 530 559 
3 531 537 533 
3 532 534 538 
3 532 538 561 
3 532 561 529 
3 529 561 558 
3 537 560 562 
3 533 537 562 
3 533 562 535 
3 535 562 563 
3 536 535 564 
3 535 563 564 
3 538 534 536 
3 538 536 565 
3 565 536 564 
3 561 538 565 
3 539 566 568 
3 540 539 568 
3 541 546 567 
3 541 567 539 
3 539 567 566 
3 567 546 569 
3 540 568 547 
3 568 572 547 
3 541 542 546 
3 546 570 569 
3 546 542 570 
3 542 543 570 
3 544 571 543 
3 543 571 570 
3 550 573 571 
3 550 571 545 
3 545 571 544 
3 545 548 550 
3 549 574 576 
3 551 549 576 
3 572 549 547 
3 574 549 572 
3 550 575 573 
3 575 550 548 
3 575 548 577 
3 577 548 552 
3 551 576 553 
3 576 581 553 
3 556 582 578 
3 556 578 577 
3 556 577 554 
3 554 577 552 
3 553 581 557 
3 581 584 557 
3 555 582 556 
3 555 558 582 
3 558 585 582 
3 554 555 556 
3 557 584 586 
3 559 557 586 
3 586 560 559 
3 588 560 586 
3 558 561 585 
3 585 561 589 
3 560 588 590 
3 562 560 590 
3 563 562 591 
3 562 590 591 
3 564 563 592 
3 563 591 592 
3 565 564 593 
3 564 592 593 
3 589 561 565 
3 593 589 565 
3 566 596 598 
3 568 566 598 
3 567 597 566 
3 566 597 596 
3 597 567 569 
3 599 597 569 
3 568 598 572 
3 598 604 572 
3 569 600 599 
3 570 600 569 
3 571 601 570 
3 570 601 600 
3 601 571 573 
3 605 601 573 
3 574 579 576 
3 574 607 579 
3 574 572 607 
3 572 604 607 
3 580 573 575 
3 580 608 573 
3 608 605 573 
3 575 577 580 
3 579 583 581 
3 576 579 581 
3 610 579 607 
3 583 579 610 
3 578 608 580 
3 578 582 608 
3 582 611 608 
3 577 578 580 
3 583 612 615 
3 583 615 581 
3 581 615 584 
3 610 612 583 
3 587 616 613 
3 587 613 611 
3 587 611 585 
3 585 611 582 
3 594 586 584 
3 594 584 618 
3 618 584 615 
3 586 594 588 
3 595 616 587 
3 619 616 595 
3 585 589 595 
3 587 585 595 
3 594 618 620 
3 588 594 620 
3 588 620 590 
3 590 620 621 
3 591 590 622 
3 590 621 622 
3 592 591 623 
3 591 622 623 
3 619 595 593 
3 619 593 623 
3 623 593 592 
3 589 593 595 
3 596 602 598 
3 596 597 603 
3 602 596 603 
3 597 599 603 
3 602 606 604 
3 598 602 604 
3 628 603 625 
3 628 606 603 
3 606 602 603 
3 599 625 603 
3 599 600 625 
3 600 626 625 
3 601 627 600 
3 600 627 626 
3 627 601 605 
3 629 627 605 
3 606 609 607 
3 604 606 607 
3 632 606 628 
3 609 606 632 
3 605 608 629 
3 629 608 633 
3 609 634 636 
3 609 636 607 
3 607 636 610 
3 632 634 609 
3 614 637 635 
3 614 635 633 
3 614 633 611 
3 611 633 608 
3 612 617 615 
3 612 639 617 
3 612 610 639 
3 610 636 639 
3 613 637 614 
3 613 616 637 
3 616 640 637 
3 611 613 614 
3 617 624 618 
3 615 617 618 
3 642 617 639 
3 624 617 642 
3 616 619 640 
3 640 619 643 
3 618 624 620 
3 624 642 644 
3 624 644 620 
3 620 644 621 
3 622 621 645 
3 621 644 645 
3 623 622 646 
3 622 645 646 
3 643 619 623 
3 646 643 623 
3 625 630 628 
3 651 630 625 
3 651 625 650 
3 650 625 626 
3 631 652 650 
3 631 650 627 
3 627 650 626 
3 627 629 631 
3 630 653 656 
3 630 656 628 
3 628 656 632 
3 651 653 630 
3 631 654 652 
3 654 631 629 
3 654 629 657 
3 657 629 633 
3 634 638 636 
3 634 662 638 
3 634 632 662 
3 632 656 662 
3 635 663 658 
3 637 663 635 
3 657 633 635 
3 658 657 635 
3 638 641 639 
3 636 638 639 
3 666 638 662 
3 641 638 666 
3 637 640 663 
3 663 640 667 
3 641 647 642 
3 639 641 642 
3 668 641 666 
3 668 648 641 
3 648 647 641 
3 648 669 649 
3 668 669 648 
3 649 669 667 
3 649 667 643 
3 643 667 640 
3 642 647 644 
3 645 644 647 
3 648 645 647 
3 646 645 648 
3 649 646 648 
3 643 646 649 
3 650 655 651 
3 650 652 655 
3 653 659 656 
3 653 651 655 
3 653 655 659 
3 659 655 660 
3 652 654 661 
3 652 661 655 
3 655 661 660 
3 654 657 661 
3 659 664 662 
3 656 659 662 
3 660 665 659 
3 665 664 659 
3 658 663 665 
3 658 665 661 
3 661 665 660 
3 657 658 661 
3 664 670 666 
3 662 664 666 
3 665 671 664 
3 671 670 664 
3 663 667 671 
3 665 663 671 
3 666 670 668 
3 669 668 670 
3 671 669 670 
3 667 669 671 
