ply
format ascii 1.0
comment VCGLIB generated
element vertex 252
property float x
property float y
property float z
element face 500
property list uchar int vertex_indices
end_header
-0.07925764 0.850881 -0.5253469 
0.07925764 -0.850881 -0.5253469 
-0.06553082 0.2510951 0.9684731 
-0.7386838 -0.6671262 -0.1207108 
-0.7420948 -0.6286428 0.2635254 
-0.7237839 0.6718976 -0.1906831 
0.556064 0.7351975 0.3953507 
0.6206312 0.6952928 -0.3706884 
0.6206313 -0.6952926 0.3706888 
0.556064 -0.7351975 -0.3953507 
-0.6671263 -0.1207108 -0.7386838 
-0.657041 0.276148 -0.7096424 
-0.1532086 -0.9252287 -0.3577503 
-0.1224495 0.9755419 0.198982 
-0.1532088 0.9252287 -0.3577504 
-0.1207108 0.7386838 0.6671263 
0.4142813 0.4931463 0.7730423 
-0.3574825 0.9373006 0.0924671 
-0.2510953 -0.9684731 -0.06553083 
0.9684732 0.06553083 -0.2510951 
0.3272207 -0.2017063 -0.9265592 
0.3751867 -0.4503397 0.8173016 
0.3272205 0.2017065 -0.9265592 
0.3577503 0.1532087 0.9252287 
-0.3718104 -0.8938679 0.2608448 
-0.4152585 -0.8625776 -0.3085296 
-0.4152586 0.8625775 0.3085297 
0.8508808 -0.5253471 -0.07925763 
-0.9252286 0.3577504 -0.1532088 
-0.9252286 0.3577503 0.1532088 
0.6952928 0.3706888 -0.620631 
-0.5253469 -0.07925767 0.8508809 
-0.4760096 -0.08011942 -0.8800575 
0.4605441 0.03431115 0.8946196 
-0.6393749 -0.4177494 0.6544141 
-0.6952928 -0.3706888 -0.620631 
0.9252286 -0.3577504 -0.1532088 
0.9252286 -0.3577503 0.1532088 
-0.8508808 0.5253471 -0.07925763 
0.4152586 -0.8625775 0.3085297 
0.3718104 0.8938679 0.2608448 
0.4152585 0.8625776 -0.3085296 
-0.2608445 -0.3718107 0.8938679 
-0.3751867 0.4503397 0.8173016 
-0.3414643 0.1175401 -0.9353721 
-0.198982 0.1224496 0.9755419 
-0.9684732 -0.06553083 -0.2510951 
0.2510953 0.9684731 -0.06553083 
0.3574825 -0.9373006 0.0924671 
0.1207108 -0.7386838 0.6671263 
0.1224495 -0.9755419 0.198982 
0.1532088 -0.9252287 -0.3577504 
0.1532086 0.9252287 -0.3577503 
0.657041 -0.276148 -0.7096424 
0.6671263 0.1207108 -0.7386838 
-0.6206313 0.6952926 0.3706888 
-0.556064 0.7351975 -0.3953507 
-0.556064 -0.7351975 0.3953507 
-0.6206312 -0.6952928 -0.3706884 
0.7237839 -0.6718976 -0.1906831 
0.7386838 0.6671262 -0.1207108 
0.7420948 0.6286428 0.2635254 
-0.0380338 -0.6609119 0.7530132 
0.0380338 0.6609119 0.7530132 
3.660416e-07 0.4674595 0.8863561 
0.09750414 0.5112437 -0.8621423 
0.03353075 0.9798741 -0.2100551 
0.07156406 0.9637859 0.2670763 
-0.03353075 -0.9798741 -0.2100551 
-0.07156406 -0.9637859 0.2670763 
-0.04800679 -0.07455429 0.9999545 
-0.07136507 -0.1080115 -0.9947031 
-0.6609119 -0.7530132 0.03803354 
-0.6940557 0.7292874 0.0360917 
0.6940557 -0.7292874 0.0360917 
0.6609119 0.7530132 0.03803354 
-0.7356679 -0.6067895 -0.3111156 
-0.7906759 0.561173 0.2743179 
0.3116975 -0.2278729 0.9268594 
0.3857948 -0.3135809 -0.8753906 
0.8753905 0.3857946 -0.3135813 
0.8309891 -0.4425675 0.3445298 
-0.2100551 0.03353075 -0.9798741 
-0.0655309 0.251095 -0.9684732 
0.9961224 0.03640524 0.147504 
0.7011999 -0.5249793 -0.4946712 
0.6773509 0.5819721 0.4559665 
0.5836715 0.6090939 -0.5425342 
-0.7530131 0.03803347 -0.660912 
-0.07925779 0.850881 0.5253466 
-0.9120278 -0.3933572 -0.154812 
0.1956197 0.3353489 0.9275694 
0.1285359 -0.4239831 -0.8994426 
0.09246712 -0.3574825 0.9373006 
-0.5112438 0.8621423 -0.09750412 
-0.59392 0.7944166 0.1464272 
-0.5939205 -0.7944162 -0.1464274 
-0.53238 -0.8324506 0.169933 
-0.2670763 -0.07156395 0.9637859 
-0.2267467 -0.673153 -0.7076253 
-0.3706887 0.6206308 -0.695293 
0.9275694 -0.1956195 0.3353488 
0.513375 0.646578 0.564254 
0.513375 -0.646578 -0.564254 
0.5425336 -0.5836716 0.6090944 
0.7944164 0.1464273 0.5939203 
0.7530131 -0.03803337 0.6609121 
-0.399607 0.0823236 0.912982 
-0.3979 -0.1496326 0.9081227 
0.4674592 0.8863563 5.104156e-07 
0.3353486 -0.9275694 -0.1956198 
0.2905506 0.9500443 0.1330059 
0.4239827 0.8994427 -0.128536 
0.7351975 -0.3953507 0.5560641 
0.371748 -0.707107 -0.601501 
0.3753888 -0.6525238 0.6644135 
0.2771256 0.7093283 0.6582189 
-0.7076253 0.2267469 0.673153 
-0.8627508 -0.5106166 0.08064663 
-0.9823627 -0.20922 0.04100354 
-0.9798741 0.2100552 0.03353054 
-0.9947031 0.07136501 -0.1080118 
0.5670652 -0.1205519 -0.8185223 
0.5670654 -0.120552 0.8185222 
-0.5751289 0.3105703 0.7619351 
-0.5574651 -0.2735244 0.7871 
-0.4191247 0.8024259 -0.4320191 
-0.3470673 0.7721389 0.5435571 
-0.4183991 -0.7339672 -0.538942 
-0.4191247 -0.802426 0.432019 
0.8983485 0.06833644 0.4446471 
0.8863562 1.094829e-07 -0.4674594 
-0.8324506 0.1699335 0.5323798 
-0.5277257 0.4894952 -0.6980692 
0.9084786 0.3315602 0.2661009 
0.07455416 0.9999545 0.04800676 
-0.1699332 -0.5323799 0.8324506 
-0.1464273 0.5939203 0.7944164 
0.1966393 0.8048809 0.5703833 
0.2735241 -0.7871002 -0.557465 
-0.4142813 -0.4931463 0.7730423 
-0.5277258 -0.4894954 -0.698069 
0.8324506 -0.1699333 -0.5323799 
0.7944164 0.1464273 -0.5939203 
0.4425677 0.34453 -0.830989 
0.8084939 -0.4267319 -0.4196132 
0.6980691 -0.5277256 0.4894954 
0.8173342 0.3754564 -0.4518789 
0.8173018 0.3751865 0.4503396 
0.1496327 -0.9081226 0.3979002 
0.1080115 -0.9947031 -0.07136507 
0.1496326 0.9081227 0.3979001 
-0.6067892 -0.3111159 -0.7356682 
-0.9275694 0.1956195 -0.3353488 
-0.8994427 -0.128536 -0.4239829 
-0.3953506 -0.5560642 -0.7351975 
-0.3013505 0.4778364 -0.8283379 
0.1464272 -0.5939201 -0.7944166 
0.1207104 -0.7386838 -0.6671264 
0.1966392 0.8048809 -0.5703833 
-0.03803358 -0.660912 -0.7530131 
-0.1966392 -0.8048809 -0.5703833 
-0.03609142 0.6940557 -0.7292874 
-0.1464272 0.5939201 -0.7944166 
0.3013505 -0.4778364 -0.8283379 
0.3953506 0.5560642 -0.7351975 
0.8994427 0.128536 -0.4239829 
0.9275694 -0.1956195 -0.3353488 
0.6067892 0.3111159 -0.7356682 
-0.1496326 -0.9081227 0.3979001 
-0.1080115 0.9947031 -0.07136507 
-0.1496327 0.9081226 0.3979002 
-0.8173342 -0.3754564 -0.4518789 
-0.8173018 -0.3751865 0.4503396 
-0.8084939 0.4267319 -0.4196132 
-0.6980691 0.5277256 0.4894954 
-0.4425677 -0.34453 -0.830989 
-0.7944164 -0.1464273 -0.5939203 
-0.8324506 0.1699333 -0.5323799 
0.5277258 0.4894954 -0.698069 
-0.2735241 0.7871002 -0.557465 
-0.1966393 -0.8048809 0.5703833 
0.09651925 -0.5177717 0.8603269 
0.1699332 0.5323799 0.8324506 
-0.07455416 -0.9999545 0.04800676 
-0.9084786 -0.3315602 0.2661009 
0.6393749 0.4177494 0.6544141 
0.5277257 -0.4894952 -0.6980692 
0.8324506 -0.1699335 0.5323798 
-0.8983485 -0.06833644 0.4446471 
-0.8863562 -1.094829e-07 -0.4674594 
0.4183991 0.7339672 -0.538942 
0.4191247 0.802426 0.432019 
0.4191247 -0.8024259 -0.4320191 
0.3470673 -0.7721389 0.5435571 
0.6061419 0.2046161 0.7785025 
0.5751289 -0.3105703 0.7619351 
-0.5670652 0.1205519 -0.8185223 
-0.5670654 0.120552 0.8185222 
-0.6671264 -0.1207106 0.7386837 
0.9798741 -0.2100552 0.03353054 
0.9947031 -0.07136501 -0.1080118 
0.9823627 0.20922 0.04100354 
0.8627508 0.5106166 0.08064663 
0.7076253 -0.2267469 0.673153 
-0.2771256 -0.7093283 0.6582189 
-0.371748 0.707107 -0.601501 
-0.3753888 0.6525238 0.6644135 
-0.7351975 0.3953507 0.5560641 
-0.2905506 -0.9500443 0.1330059 
-0.4239827 -0.8994427 -0.128536 
-0.3353486 0.9275694 -0.1956198 
-0.4674592 -0.8863563 5.104156e-07 
0.4521559 0.1160992 -0.8873988 
0.4572576 -0.04597509 -0.8911427 
-0.7530131 0.03803337 0.6609121 
-0.7944164 -0.1464273 0.5939203 
-0.3272205 -0.2017065 -0.9265592 
-0.513375 0.646578 -0.564254 
-0.5425336 0.5836716 0.6090944 
-0.513375 -0.646578 0.564254 
-0.9275694 0.1956195 0.3353488 
0.3706887 -0.6206308 -0.695293 
0.2267467 0.673153 -0.7076253 
0.2100549 -0.03353051 0.9798741 
0.2100551 -0.03353075 -0.9798741 
0.5939205 0.7944162 -0.1464274 
0.53238 0.8324506 0.169933 
0.5112438 -0.8621423 -0.09750412 
0.59392 -0.7944166 0.1464272 
-0.1285361 0.4239829 0.8994426 
-0.09750414 -0.5112437 -0.8621423 
-0.1285359 0.4239831 -0.8994426 
-0.1330062 -0.2905505 0.9500443 
0.9120278 0.3933572 -0.154812 
0.07925779 -0.850881 0.5253466 
0.7530131 -0.03803347 -0.660912 
-0.6773509 -0.5819721 0.4559665 
-0.5836715 -0.6090939 -0.5425342 
-0.7011999 0.5249793 -0.4946712 
-0.9961224 -0.03640524 0.147504 
0.0655309 -0.251095 -0.9684732 
0.04800671 0.07455435 -0.9999545 
0.07136513 0.1080113 0.9947031 
0.1956196 0.3353488 -0.9275694 
-0.8309891 0.4425675 0.3445298 
-0.8753905 -0.3857946 -0.3135813 
-0.3315602 0.2661008 0.9084786 
-0.3852676 0.3110454 -0.8755898 
-0.1956196 -0.3353488 -0.9275694 
0.7906759 -0.561173 0.2743179 
0.7356679 0.6067895 -0.3111156 
3 94 95 17 
3 17 95 26 
3 73 77 55 
3 26 55 127 
3 73 55 95 
3 55 26 95 
3 245 221 208 
3 245 208 175 
3 132 189 215 
3 132 215 117 
3 208 117 124 
3 221 132 208 
3 132 117 208 
3 127 207 15 
3 137 43 230 
3 137 230 64 
3 207 137 15 
3 43 137 207 
3 245 175 77 
3 77 175 55 
3 208 124 219 
3 219 43 207 
3 124 43 219 
3 55 219 127 
3 219 207 127 
3 208 219 175 
3 175 219 55 
3 26 127 171 
3 26 171 13 
3 170 13 135 
3 17 13 170 
3 26 13 17 
3 127 15 89 
3 15 137 63 
3 137 64 63 
3 63 116 138 
3 15 138 89 
3 63 138 15 
3 135 67 111 
3 135 111 47 
3 67 151 40 
3 151 138 192 
3 151 192 40 
3 47 111 109 
3 111 40 227 
3 111 227 109 
3 67 40 111 
3 127 89 171 
3 89 138 151 
3 67 135 13 
3 89 151 171 
3 171 67 13 
3 151 67 171 
3 94 17 211 
3 17 170 211 
3 211 170 14 
3 126 14 180 
3 211 14 126 
3 66 47 52 
3 135 47 66 
3 47 109 112 
3 52 41 159 
3 47 41 52 
3 112 41 47 
3 0 162 180 
3 163 162 65 
3 0 159 162 
3 159 223 162 
3 135 66 170 
3 170 66 14 
3 52 159 0 
3 14 0 180 
3 52 0 14 
3 52 14 66 
3 73 94 5 
3 211 126 56 
3 5 56 239 
3 5 239 174 
3 211 56 94 
3 56 5 94 
3 180 162 100 
3 180 100 206 
3 163 65 232 
3 163 232 156 
3 100 156 133 
3 156 248 133 
3 162 163 100 
3 163 156 100 
3 178 11 88 
3 178 88 190 
3 239 11 174 
3 174 178 153 
3 11 178 174 
3 180 206 126 
3 206 100 218 
3 126 218 56 
3 206 218 126 
3 133 248 11 
3 133 11 239 
3 100 133 218 
3 218 239 56 
3 133 239 218 
3 94 73 95 
3 5 174 38 
3 73 38 77 
3 5 38 73 
3 174 153 28 
3 153 190 46 
3 178 190 153 
3 28 153 121 
3 153 46 121 
3 29 221 245 
3 29 120 221 
3 120 240 221 
3 221 240 189 
3 221 189 132 
3 174 28 38 
3 28 121 120 
3 121 240 120 
3 38 29 77 
3 77 29 245 
3 28 29 38 
3 120 29 28 
3 109 227 75 
3 75 227 61 
3 40 192 6 
3 61 6 86 
3 40 6 227 
3 6 61 227 
3 116 63 183 
3 63 64 183 
3 183 91 16 
3 183 16 116 
3 148 105 130 
3 186 195 105 
3 186 105 148 
3 138 116 192 
3 116 16 102 
3 192 102 6 
3 116 102 192 
3 16 195 186 
3 86 186 148 
3 86 148 61 
3 16 186 102 
3 102 86 6 
3 186 86 102 
3 64 230 2 
3 43 124 247 
3 243 45 70 
3 2 45 243 
3 43 247 230 
3 247 45 2 
3 247 2 230 
3 124 117 198 
3 215 189 216 
3 215 216 199 
3 199 125 31 
3 117 215 198 
3 198 199 31 
3 215 199 198 
3 70 98 233 
3 70 233 93 
3 98 108 42 
3 108 125 140 
3 108 140 42 
3 93 233 182 
3 233 42 136 
3 233 136 182 
3 98 42 233 
3 124 198 247 
3 198 31 107 
3 247 107 45 
3 198 107 247 
3 31 125 108 
3 98 70 45 
3 31 108 107 
3 107 98 45 
3 108 98 107 
3 173 185 4 
3 240 119 185 
3 189 185 173 
3 240 185 189 
3 240 121 119 
3 119 46 90 
3 121 46 119 
3 46 190 154 
3 154 172 246 
3 46 246 90 
3 154 246 46 
3 118 90 3 
3 90 246 76 
3 90 76 3 
3 72 3 96 
3 72 96 212 
3 118 72 4 
3 3 72 118 
3 119 118 185 
3 185 118 4 
3 90 118 119 
3 190 88 177 
3 177 88 10 
3 11 248 197 
3 152 32 176 
3 10 32 152 
3 11 197 88 
3 197 32 10 
3 197 10 88 
3 232 65 83 
3 44 83 82 
3 83 242 82 
3 156 232 248 
3 248 83 44 
3 232 83 248 
3 217 249 176 
3 217 71 249 
3 249 71 241 
3 249 241 231 
3 197 44 32 
3 248 44 197 
3 82 242 71 
3 82 71 217 
3 32 217 176 
3 82 217 32 
3 82 32 44 
3 162 223 65 
3 223 191 165 
3 159 191 223 
3 244 165 144 
3 165 179 144 
3 65 165 244 
3 223 165 65 
3 159 41 191 
3 191 41 7 
3 41 112 226 
3 112 109 226 
3 7 60 251 
3 226 60 7 
3 226 7 41 
3 168 30 54 
3 143 147 166 
3 143 166 131 
3 30 143 54 
3 147 143 30 
3 191 7 87 
3 191 87 165 
3 7 251 87 
3 251 80 147 
3 87 147 30 
3 251 147 87 
3 179 30 168 
3 179 168 144 
3 87 30 179 
3 87 179 165 
3 228 229 48 
3 48 229 39 
3 74 250 8 
3 39 8 194 
3 74 8 229 
3 8 39 229 
3 81 101 113 
3 81 113 146 
3 188 130 106 
3 188 106 204 
3 113 204 196 
3 101 188 113 
3 188 204 113 
3 194 115 49 
3 182 21 93 
3 115 182 49 
3 21 182 115 
3 81 146 250 
3 250 146 8 
3 113 196 104 
3 104 21 115 
3 196 21 104 
3 8 104 194 
3 104 115 194 
3 113 104 146 
3 146 104 8 
3 39 194 149 
3 39 149 50 
3 150 50 184 
3 48 50 150 
3 39 50 48 
3 194 49 235 
3 49 182 62 
3 62 205 181 
3 49 181 235 
3 62 181 49 
3 184 69 209 
3 184 209 18 
3 69 169 24 
3 169 181 129 
3 169 129 24 
3 18 209 212 
3 209 24 97 
3 209 97 212 
3 69 24 209 
3 194 235 149 
3 235 181 169 
3 69 184 50 
3 235 169 149 
3 149 69 50 
3 169 69 149 
3 228 48 110 
3 48 150 110 
3 110 150 51 
3 193 51 139 
3 110 51 193 
3 68 18 12 
3 184 18 68 
3 18 212 210 
3 12 25 161 
3 18 25 12 
3 210 25 18 
3 1 158 139 
3 158 160 157 
3 157 160 231 
3 1 161 158 
3 161 99 160 
3 161 160 158 
3 184 68 150 
3 150 68 51 
3 12 161 1 
3 51 1 139 
3 12 1 51 
3 12 51 68 
3 74 228 59 
3 110 193 9 
3 59 9 85 
3 59 85 145 
3 110 9 228 
3 9 59 228 
3 139 158 222 
3 139 222 114 
3 157 231 92 
3 157 92 164 
3 222 164 187 
3 164 79 187 
3 158 157 222 
3 157 164 222 
3 142 53 236 
3 142 236 131 
3 85 53 145 
3 145 142 167 
3 53 142 145 
3 139 114 193 
3 114 222 103 
3 193 103 9 
3 114 103 193 
3 187 79 53 
3 187 53 85 
3 222 187 103 
3 103 85 9 
3 187 85 103 
3 228 74 229 
3 59 145 27 
3 74 27 250 
3 59 27 74 
3 145 167 36 
3 167 131 19 
3 142 131 167 
3 36 167 201 
3 167 19 201 
3 37 101 81 
3 37 200 101 
3 200 84 101 
3 101 84 130 
3 101 130 188 
3 145 36 27 
3 36 201 200 
3 201 84 200 
3 27 37 250 
3 250 37 81 
3 36 37 27 
3 200 37 36 
3 21 196 78 
3 93 78 224 
3 93 224 70 
3 21 78 93 
3 196 204 123 
3 106 130 105 
3 106 105 195 
3 204 106 123 
3 123 195 33 
3 106 195 123 
3 243 23 91 
3 243 91 2 
3 23 195 16 
3 23 16 91 
3 2 91 64 
3 91 183 64 
3 196 123 78 
3 123 33 78 
3 33 195 23 
3 224 23 243 
3 224 243 70 
3 33 224 78 
3 23 224 33 
3 212 97 72 
3 72 97 4 
3 24 129 57 
3 4 57 237 
3 24 57 97 
3 57 4 97 
3 205 62 136 
3 62 182 136 
3 136 42 140 
3 136 140 205 
3 34 125 199 
3 173 216 189 
3 34 199 216 
3 34 216 173 
3 181 205 129 
3 205 140 220 
3 129 220 57 
3 205 220 129 
3 140 125 34 
3 237 34 173 
3 237 173 4 
3 140 34 220 
3 220 237 57 
3 34 237 220 
3 160 99 231 
3 99 128 155 
3 161 128 99 
3 249 155 176 
3 155 141 176 
3 231 155 249 
3 99 155 231 
3 161 25 128 
3 128 25 58 
3 25 210 96 
3 210 212 96 
3 58 3 76 
3 96 3 58 
3 96 58 25 
3 152 35 10 
3 177 172 154 
3 177 154 190 
3 35 177 10 
3 172 177 35 
3 128 58 238 
3 128 238 155 
3 58 76 238 
3 76 246 172 
3 238 172 35 
3 76 172 238 
3 141 35 152 
3 141 152 176 
3 238 35 141 
3 238 141 155 
3 131 236 143 
3 143 236 54 
3 53 79 122 
3 54 214 213 
3 168 213 144 
3 54 213 168 
3 53 122 236 
3 122 214 54 
3 122 54 236 
3 92 231 241 
3 20 241 225 
3 225 71 242 
3 241 71 225 
3 164 92 79 
3 79 241 20 
3 92 241 79 
3 22 244 144 
3 22 242 244 
3 244 242 83 
3 244 83 65 
3 79 20 122 
3 20 214 122 
3 225 242 22 
3 213 22 144 
3 20 225 214 
3 225 22 213 
3 225 213 214 
3 148 134 61 
3 84 202 134 
3 130 134 148 
3 84 134 130 
3 84 201 202 
3 202 19 234 
3 201 19 202 
3 19 131 166 
3 166 147 80 
3 19 80 234 
3 166 80 19 
3 203 234 60 
3 234 80 251 
3 234 251 60 
3 75 60 226 
3 75 226 109 
3 203 75 61 
3 60 75 203 
3 202 203 134 
3 134 203 61 
3 234 203 202 
